GeoramaExtended-ExtraLight.ufo
<glyph name="exclam" format="2">
  <advance width="275.12399999999997"/>
  <unicode hex="0021"/>
  <outline>
    <contour>
      <point x="118.69699999999999" y="263.55" type="line"/>
      <point x="156.814" y="263.55" type="line"/>
      <point x="158.50599999999997" y="740.0" type="line"/>
      <point x="117.08599999999998" y="740.0" type="line"/>
    </contour>
    <contour>
      <point x="110.13099999999999" y="24.848000000000003" type="curve" smooth="yes"/>
      <point x="110.13099999999999" y="3.457"/>
      <point x="115.26899999999999" y="-0.9629999999999999"/>
      <point x="137.56199999999998" y="-0.9629999999999999" type="curve" smooth="yes"/>
      <point x="160.76500000000001" y="-0.9629999999999999"/>
      <point x="164.993" y="3.457"/>
      <point x="164.993" y="24.848000000000003" type="curve" smooth="yes"/>
      <point x="164.993" y="46.32899999999999"/>
      <point x="160.76500000000001" y="50.748999999999995"/>
      <point x="137.56199999999998" y="50.748999999999995" type="curve" smooth="yes"/>
      <point x="114.359" y="50.748999999999995"/>
      <point x="110.13099999999999" y="46.32899999999999"/>
    </contour>
  </outline>
</glyph>
<glyph name="numbersign" format="2">
  <advance width="804.3979999999999"/>
  <unicode hex="0023"/>
  <outline>
    <contour>
      <point x="130.346" y="471.271" type="line"/>
      <point x="274.13800000000003" y="471.271" type="line"/>
      <point x="216.329" y="218.416" type="line"/>
      <point x="81.48199999999999" y="218.416" type="line"/>
      <point x="81.48199999999999" y="186.991" type="line"/>
      <point x="209.351" y="186.991" type="line"/>
      <point x="167.659" y="0.0" type="line"/>
      <point x="208.76399999999998" y="0.0" type="line"/>
      <point x="250.456" y="186.991" type="line"/>
      <point x="484.878" y="186.991" type="line"/>
      <point x="443.186" y="0.0" type="line"/>
      <point x="484.291" y="0.0" type="line"/>
      <point x="525.983" y="186.991" type="line"/>
      <point x="674.1149999999999" y="186.991" type="line"/>
      <point x="674.1149999999999" y="218.416" type="line"/>
      <point x="532.961" y="218.416" type="line"/>
      <point x="590.77" y="471.271" type="line"/>
      <point x="722.9789999999999" y="471.271" type="line"/>
      <point x="722.9789999999999" y="502.624" type="line"/>
      <point x="597.321" y="502.624" type="line"/>
      <point x="642.799" y="700.0" type="line"/>
      <point x="601.694" y="700.0" type="line"/>
      <point x="556.216" y="502.624" type="line"/>
      <point x="321.794" y="502.624" type="line"/>
      <point x="367.272" y="700.0" type="line"/>
      <point x="326.16700000000003" y="700.0" type="line"/>
      <point x="280.68899999999996" y="502.624" type="line"/>
      <point x="130.346" y="502.624" type="line"/>
    </contour>
    <contour>
      <point x="315.243" y="471.271" type="line"/>
      <point x="549.665" y="471.271" type="line"/>
      <point x="491.85599999999994" y="218.416" type="line"/>
      <point x="257.43399999999997" y="218.416" type="line"/>
    </contour>
  </outline>
</glyph>
<glyph name="dollar" format="2">
  <advance width="804.3979999999999"/>
  <unicode hex="0024"/>
  <outline>
    <contour>
      <point x="404.64700000000005" y="-10.0" type="curve" smooth="yes"/>
      <point x="617.4829999999998" y="-10.756"/>
      <point x="720.357" y="46.190000000000005"/>
      <point x="720.357" y="168.242" type="curve" smooth="yes"/>
      <point x="720.357" y="277.14"/>
      <point x="638.6619999999999" y="327.70099999999996"/>
      <point x="439.033" y="366.05899999999997" type="curve" smooth="yes"/>
      <point x="250.73300000000003" y="402.874"/>
      <point x="168.281" y="447.70899999999995"/>
      <point x="168.281" y="536.881" type="curve" smooth="yes"/>
      <point x="168.281" y="624.496"/>
      <point x="260.81899999999996" y="674.0400000000001"/>
      <point x="425.621" y="674.0400000000001" type="curve" smooth="yes"/>
      <point x="497.54599999999994" y="674.0400000000001"/>
      <point x="599.997" y="658.0379999999999"/>
      <point x="673.91" y="636.275" type="curve"/>
      <point x="683.732" y="671.536" type="line"/>
      <point x="609.489" y="694.4549999999999"/>
      <point x="503.669" y="710.0"/>
      <point x="420.69999999999993" y="710.0" type="curve" smooth="yes"/>
      <point x="230.69299999999996" y="708.726"/>
      <point x="125.55799999999998" y="647.768"/>
      <point x="125.55799999999998" y="534.739" type="curve" smooth="yes"/>
      <point x="125.55799999999998" y="424.945"/>
      <point x="211.02699999999996" y="371.08200000000005"/>
      <point x="407.567" y="332.77500000000003" type="curve" smooth="yes"/>
      <point x="597.579" y="295.13800000000003"/>
      <point x="677.938" y="252.74599999999998"/>
      <point x="677.938" y="165.344" type="curve" smooth="yes"/>
      <point x="677.938" y="70.702"/>
      <point x="594.267" y="25.567"/>
      <point x="410.318" y="25.567" type="curve" smooth="yes"/>
      <point x="321.037" y="25.567"/>
      <point x="186.103" y="47.677"/>
      <point x="93.941" y="77.55299999999998" type="curve"/>
      <point x="84.167" y="41.952999999999996" type="line"/>
      <point x="175.86599999999999" y="11.925999999999997"/>
      <point x="311.563" y="-9.748000000000001"/>
    </contour>
    <contour>
      <point x="401.84299999999996" y="-105.0" type="line"/>
      <point x="437.116" y="-105.0" type="line"/>
      <point x="437.116" y="-1.4449999999999996" type="line"/>
      <point x="401.84299999999996" y="-3.5119999999999996" type="line"/>
    </contour>
    <contour>
      <point x="401.84299999999996" y="702.708" type="line"/>
      <point x="437.116" y="703.8119999999999" type="line"/>
      <point x="437.116" y="804.946" type="line"/>
      <point x="401.84299999999996" y="804.946" type="line"/>
    </contour>
  </outline>
</glyph>
<glyph name="ampersand" format="2">
  <advance width="817.3119999999999"/>
  <unicode hex="0026"/>
  <outline>
    <contour>
      <point x="775.218" y="-10.092" type="line"/>
      <point x="816.346" y="4.385999999999999" type="line"/>
      <point x="263.526" y="407.232" type="line" smooth="yes"/>
      <point x="206.95800000000003" y="451.36400000000003"/>
      <point x="178.702" y="497.034"/>
      <point x="178.702" y="546.802" type="curve" smooth="yes"/>
      <point x="178.702" y="627.838"/>
      <point x="245.22600000000003" y="675.7800000000001"/>
      <point x="381.86799999999994" y="675.7800000000001" type="curve" smooth="yes"/>
      <point x="505.3539999999999" y="675.7800000000001"/>
      <point x="572.27" y="630.634"/>
      <point x="572.27" y="548.7459999999999" type="curve" smooth="yes"/>
      <point x="572.27" y="485.57399999999996"/>
      <point x="541.334" y="444.84"/>
      <point x="465.6359999999999" y="423.96200000000005" type="curve"/>
      <point x="484.55799999999994" y="399.976" type="line"/>
      <point x="573.866" y="427.86600000000004"/>
      <point x="612.1600000000001" y="477.97799999999995"/>
      <point x="612.1600000000001" y="553.6259999999999" type="curve" smooth="yes"/>
      <point x="612.1600000000001" y="655.378"/>
      <point x="532.2379999999999" y="710.0"/>
      <point x="381.058" y="710.0" type="curve" smooth="yes"/>
      <point x="214.61" y="710.0"/>
      <point x="136.56199999999998" y="648.1940000000001"/>
      <point x="136.56199999999998" y="546.622" type="curve" smooth="yes"/>
      <point x="136.56199999999998" y="488.418"/>
      <point x="165.836" y="434.39"/>
      <point x="223.344" y="387.342" type="curve" smooth="yes"/>
    </contour>
    <contour>
      <point x="355.97200000000004" y="-10.0" type="curve" smooth="yes"/>
      <point x="474.6039999999999" y="-10.0"/>
      <point x="574.672" y="27.636"/>
      <point x="640.448" y="92.83800000000001" type="curve"/>
      <point x="615.18" y="116.424" type="line"/>
      <point x="556.606" y="58.38999999999999"/>
      <point x="469.68399999999997" y="23.95"/>
      <point x="358.852" y="23.95" type="curve" smooth="yes"/>
      <point x="192.44" y="23.95"/>
      <point x="94.31" y="88.87400000000001"/>
      <point x="94.31" y="195.606" type="curve" smooth="yes"/>
      <point x="94.31" y="281.5520000000001"/>
      <point x="146.948" y="338.07599999999996"/>
      <point x="250.946" y="377.196" type="curve"/>
      <point x="225.05399999999997" y="398.90000000000003" type="line"/>
      <point x="110.41400000000002" y="358.03000000000003"/>
      <point x="53.699999999999996" y="291.61199999999997"/>
      <point x="53.699999999999996" y="192.816" type="curve" smooth="yes"/>
      <point x="53.699999999999996" y="66.604"/>
      <point x="163.534" y="-10.0"/>
    </contour>
    <contour>
      <point x="661.9739999999999" y="107.506" type="line"/>
      <point x="711.8319999999999" y="164.482"/>
      <point x="738.8119999999999" y="235.934"/>
      <point x="738.8119999999999" y="317.968" type="curve" smooth="yes"/>
      <point x="738.8119999999999" y="340.36999999999995"/>
      <point x="735.82" y="357.97799999999995"/>
      <point x="729.86" y="378.184" type="curve"/>
      <point x="694.75" y="372.978" type="line"/>
      <point x="700.71" y="352.862"/>
      <point x="702.8580000000001" y="336.468"/>
      <point x="702.588" y="318.598" type="curve" smooth="yes"/>
      <point x="701.868" y="245.064"/>
      <point x="679.406" y="181.588"/>
      <point x="634.5699999999999" y="132.224" type="curve"/>
    </contour>
  </outline>
</glyph>
<glyph name="quotesingle" format="2">
  <advance width="175.18099999999998"/>
  <unicode hex="0027"/>
  <outline>
    <contour>
      <point x="72.82" y="427.0" type="line"/>
      <point x="102.28" y="427.0" type="line"/>
      <point x="107.703" y="700.0" type="line"/>
      <point x="67.478" y="700.0" type="line"/>
    </contour>
  </outline>
</glyph>
<glyph name="parenleft" format="2">
  <advance width="381.478"/>
  <unicode hex="0028"/>
  <outline>
    <contour>
      <point x="117.705" y="265.0" type="curve" smooth="yes"/>
      <point x="117.705" y="18.458"/>
      <point x="191.88700000000003" y="-185.625"/>
      <point x="355.84499999999997" y="-220.273" type="curve"/>
      <point x="355.84499999999997" y="-185.858" type="line"/>
      <point x="220.665" y="-150.708"/>
      <point x="155.47699999999998" y="32.411"/>
      <point x="155.47699999999998" y="265.0" type="curve" smooth="yes"/>
      <point x="155.47699999999998" y="497.58899999999994"/>
      <point x="220.665" y="680.7080000000001"/>
      <point x="355.84499999999997" y="715.8580000000001" type="curve"/>
      <point x="355.84499999999997" y="750.2729999999999" type="line"/>
      <point x="191.88700000000003" y="715.625"/>
      <point x="117.705" y="511.54200000000003"/>
    </contour>
  </outline>
</glyph>
<glyph name="parenright" format="2">
  <advance width="381.478"/>
  <unicode hex="0029"/>
  <outline>
    <contour>
      <point x="25.632999999999996" y="-185.858" type="curve"/>
      <point x="25.632999999999996" y="-220.273" type="line"/>
      <point x="189.59099999999998" y="-185.625"/>
      <point x="263.773" y="18.458"/>
      <point x="263.773" y="265.0" type="curve" smooth="yes"/>
      <point x="263.773" y="511.54200000000003"/>
      <point x="189.59099999999998" y="715.625"/>
      <point x="25.632999999999996" y="750.2729999999999" type="curve"/>
      <point x="25.632999999999996" y="715.8580000000001" type="line"/>
      <point x="160.813" y="680.7080000000001"/>
      <point x="226.00099999999998" y="497.58899999999994"/>
      <point x="226.00099999999998" y="265.0" type="curve" smooth="yes"/>
      <point x="226.00099999999998" y="32.411"/>
      <point x="160.813" y="-150.708"/>
    </contour>
  </outline>
</glyph>
<glyph name="asterisk" format="2">
  <advance width="387.20799999999997"/>
  <unicode hex="002A"/>
  <outline>
    <contour>
      <point x="90.499" y="336.083" type="line"/>
      <point x="194.24099999999999" y="479.497" type="line"/>
      <point x="295.43499999999995" y="335.446" type="line"/>
      <point x="315.57800000000003" y="349.30899999999997" type="line"/>
      <point x="216.62599999999998" y="498.037" type="line"/>
      <point x="377.883" y="555.125" type="line"/>
      <point x="369.844" y="577.9309999999999" type="line"/>
      <point x="209.13400000000001" y="525.5519999999999" type="line"/>
      <point x="207.892" y="702.697" type="line"/>
      <point x="180.59" y="702.697" type="line"/>
      <point x="179.34799999999998" y="525.5519999999999" type="line"/>
      <point x="17.364" y="577.9309999999999" type="line"/>
      <point x="9.325000000000001" y="555.125" type="line"/>
      <point x="171.85599999999997" y="498.037" type="line"/>
      <point x="69.719" y="350.583" type="line"/>
    </contour>
  </outline>
</glyph>
<glyph name="plus" format="2">
  <advance width="518.336"/>
  <unicode hex="002B"/>
  <outline>
    <contour>
      <point x="240.159" y="75.402" type="line"/>
      <point x="278.11400000000003" y="75.402" type="line"/>
      <point x="278.11400000000003" y="274.27500000000003" type="line"/>
      <point x="462.644" y="274.27500000000003" type="line"/>
      <point x="462.644" y="309.71" type="line"/>
      <point x="278.11400000000003" y="309.71" type="line"/>
      <point x="278.11400000000003" y="508.52" type="line"/>
      <point x="240.159" y="508.52" type="line"/>
      <point x="240.159" y="309.71" type="line"/>
      <point x="55.692" y="309.71" type="line"/>
      <point x="55.692" y="274.27500000000003" type="line"/>
      <point x="240.159" y="274.27500000000003" type="line"/>
    </contour>
  </outline>
</glyph>
<glyph name="comma" format="2">
  <advance width="195.317"/>
  <unicode hex="002C"/>
  <outline>
    <contour>
      <point x="80.506" y="37.108000000000004" type="line"/>
      <point x="89.075" y="16.415"/>
      <point x="94.05199999999999" y="-6.244999999999999"/>
      <point x="94.05199999999999" y="-27.274" type="curve" smooth="yes"/>
      <point x="94.05199999999999" y="-87.14"/>
      <point x="66.322" y="-153.4"/>
      <point x="11.760999999999996" y="-182.853" type="curve"/>
      <point x="38.013" y="-200.47099999999998" type="line"/>
      <point x="103.915" y="-167.57899999999998"/>
      <point x="134.446" y="-90.325"/>
      <point x="134.446" y="-26.306" type="curve" smooth="yes"/>
      <point x="134.446" y="-0.6109999999999998"/>
      <point x="129.391" y="23.933"/>
      <point x="119.83399999999999" y="44.842000000000006" type="curve"/>
    </contour>
  </outline>
</glyph>
<glyph name="hyphen" format="2">
  <advance width="372.041"/>
  <unicode hex="002D"/>
  <outline>
    <contour>
      <point x="47.994" y="253.11" type="line"/>
      <point x="324.04699999999997" y="253.11" type="line"/>
      <point x="324.04699999999997" y="289.112" type="line"/>
      <point x="47.994" y="289.112" type="line"/>
    </contour>
  </outline>
</glyph>
<glyph name="period" format="2">
  <advance width="196.325"/>
  <unicode hex="002E"/>
  <outline>
    <contour>
      <point x="71.05" y="24.929" type="curve" smooth="yes"/>
      <point x="71.05" y="3.5380000000000003"/>
      <point x="76.18799999999999" y="-0.882"/>
      <point x="98.48100000000001" y="-0.882" type="curve" smooth="yes"/>
      <point x="121.68399999999998" y="-0.882"/>
      <point x="125.912" y="3.5380000000000003"/>
      <point x="125.912" y="24.929" type="curve" smooth="yes"/>
      <point x="125.912" y="46.41"/>
      <point x="121.68399999999998" y="50.83"/>
      <point x="98.48100000000001" y="50.83" type="curve" smooth="yes"/>
      <point x="75.27799999999999" y="50.83"/>
      <point x="71.05" y="46.41"/>
    </contour>
  </outline>
</glyph>
<glyph name="slash" format="2">
  <advance width="384.589"/>
  <unicode hex="002F"/>
  <outline>
    <contour>
      <point x="7.276" y="-210.0" type="line"/>
      <point x="44.675" y="-210.0" type="line"/>
      <point x="377.313" y="740.0" type="line"/>
      <point x="339.887" y="740.0" type="line"/>
    </contour>
  </outline>
</glyph>
<glyph name="zero" format="2">
  <advance width="804.3979999999999"/>
  <unicode hex="0030"/>
  <outline>
    <contour>
      <point x="40.843999999999994" y="350.0" type="curve" smooth="yes"/>
      <point x="40.843999999999994" y="69.678"/>
      <point x="205.779" y="-10.0"/>
      <point x="402.19899999999996" y="-10.0" type="curve" smooth="yes"/>
      <point x="598.664" y="-10.0"/>
      <point x="763.554" y="69.786"/>
      <point x="763.554" y="350.0" type="curve" smooth="yes"/>
      <point x="763.554" y="630.514"/>
      <point x="599.069" y="710.0"/>
      <point x="402.19899999999996" y="710.0" type="curve" smooth="yes"/>
      <point x="205.69799999999998" y="710.0"/>
      <point x="40.843999999999994" y="630.73"/>
    </contour>
    <contour>
      <point x="83.731" y="349.649" type="curve" smooth="yes"/>
      <point x="83.731" y="604.011"/>
      <point x="229.99299999999997" y="674.97"/>
      <point x="402.19899999999996" y="674.97" type="curve" smooth="yes"/>
      <point x="574.531" y="674.97"/>
      <point x="720.7929999999999" y="604.038"/>
      <point x="720.7929999999999" y="349.649" type="curve" smooth="yes"/>
      <point x="720.7929999999999" y="96.42399999999999"/>
      <point x="574.612" y="25.03"/>
      <point x="402.19899999999996" y="25.03" type="curve" smooth="yes"/>
      <point x="229.91199999999998" y="25.03"/>
      <point x="83.731" y="96.39699999999999"/>
    </contour>
  </outline>
</glyph>
<glyph name="one" format="2">
  <advance width="804.3979999999999"/>
  <unicode hex="0031"/>
  <outline>
    <contour>
      <point x="74.79100000000001" y="0.0" type="line"/>
      <point x="773.8690000000001" y="0.0" type="line"/>
      <point x="773.8690000000001" y="35.75" type="line"/>
      <point x="477.83899999999994" y="35.75" type="line"/>
      <point x="477.83899999999994" y="706.37" type="line"/>
      <point x="454.93999999999994" y="706.37" type="line"/>
      <point x="65.27499999999999" y="528.151" type="line"/>
      <point x="78.849" y="494.953" type="line"/>
      <point x="435.483" y="656.869" type="line"/>
      <point x="435.483" y="35.75" type="line"/>
      <point x="74.79100000000001" y="35.75" type="line"/>
    </contour>
  </outline>
</glyph>
<glyph name="two" format="2">
  <advance width="804.67"/>
  <unicode hex="0032"/>
  <outline>
    <contour>
      <point x="76.0" y="29.51" type="curve"/>
      <point x="80.32" y="0.0" type="line"/>
      <point x="743.18" y="0.0" type="line"/>
      <point x="743.18" y="35.84" type="line"/>
      <point x="152.73000000000002" y="35.84" type="line"/>
      <point x="551.41" y="276.1"/>
      <point x="632.5999999999999" y="373.02000000000004"/>
      <point x="632.5999999999999" y="500.75" type="curve" smooth="yes"/>
      <point x="632.5999999999999" y="636.76"/>
      <point x="543.3599999999999" y="710.0"/>
      <point x="374.37999999999994" y="710.0" type="curve" smooth="yes"/>
      <point x="280.76" y="710.0"/>
      <point x="182.06999999999996" y="687.42"/>
      <point x="109.21999999999998" y="646.79" type="curve"/>
      <point x="124.29999999999998" y="614.23" type="line"/>
      <point x="195.92999999999998" y="651.64"/>
      <point x="284.72" y="671.9599999999999"/>
      <point x="370.51" y="671.9599999999999" type="curve" smooth="yes"/>
      <point x="514.83" y="671.9599999999999"/>
      <point x="589.7899999999998" y="612.2000000000002"/>
      <point x="589.7899999999998" y="498.06000000000006" type="curve" smooth="yes"/>
      <point x="589.7899999999998" y="379.33"/>
      <point x="503.49" y="284.96999999999997"/>
    </contour>
  </outline>
</glyph>
<glyph name="three" format="2">
  <advance width="804.6700000000001"/>
  <unicode hex="0033"/>
  <outline>
    <contour>
      <point x="35.9" y="68.29999999999998" type="line"/>
      <point x="132.72" y="15.1"/>
      <point x="225.66" y="-9.5"/>
      <point x="361.15" y="-9.5" type="curve" smooth="yes"/>
      <point x="594.48" y="-9.5"/>
      <point x="731.71" y="70.72999999999999"/>
      <point x="731.71" y="206.67999999999998" type="curve" smooth="yes"/>
      <point x="731.71" y="299.96999999999997"/>
      <point x="656.3199999999999" y="362.16"/>
      <point x="517.77" y="370.14" type="curve"/>
      <point x="619.34" y="386.13000000000005"/>
      <point x="677.2199999999998" y="444.0"/>
      <point x="677.2199999999998" y="529.74" type="curve" smooth="yes"/>
      <point x="677.2199999999998" y="642.8199999999998"/>
      <point x="581.43" y="710.0"/>
      <point x="375.7399999999999" y="710.0" type="curve" smooth="yes"/>
      <point x="274.52" y="710.0"/>
      <point x="172.99999999999997" y="693.4599999999999"/>
      <point x="90.74999999999999" y="668.25" type="curve"/>
      <point x="100.85000000000001" y="635.09" type="line"/>
      <point x="184.03999999999996" y="658.62"/>
      <point x="278.54999999999995" y="673.3499999999999"/>
      <point x="371.33" y="673.3499999999999" type="curve" smooth="yes"/>
      <point x="551.05" y="673.3499999999999"/>
      <point x="635.4399999999999" y="618.5799999999999"/>
      <point x="635.4399999999999" y="524.69" type="curve" smooth="yes"/>
      <point x="635.4399999999999" y="435.58"/>
      <point x="556.2600000000001" y="384.0400000000001"/>
      <point x="409.72999999999996" y="384.0400000000001" type="curve" smooth="yes"/>
      <point x="221.45" y="384.0400000000001" type="line"/>
      <point x="221.45" y="350.36" type="line"/>
      <point x="401.75" y="350.36" type="line" smooth="yes"/>
      <point x="592.5899999999998" y="350.36"/>
      <point x="689.1199999999999" y="308.24"/>
      <point x="689.1199999999999" y="208.11999999999998" type="curve" smooth="yes"/>
      <point x="689.1199999999999" y="94.17"/>
      <point x="567.7099999999999" y="26.61"/>
      <point x="359.62000000000006" y="26.61" type="curve" smooth="yes"/>
      <point x="232.91" y="26.61"/>
      <point x="143.48000000000002" y="49.62"/>
      <point x="50.27000000000001" y="98.97000000000001" type="curve"/>
    </contour>
  </outline>
</glyph>
<glyph name="four" format="2">
  <advance width="804.67"/>
  <unicode hex="0034"/>
  <outline>
    <contour>
      <point x="37.56999999999999" y="194.92999999999998" type="line"/>
      <point x="559.91" y="194.92999999999998" type="line"/>
      <point x="559.91" y="0.0" type="line"/>
      <point x="602.32" y="0.0" type="line"/>
      <point x="602.32" y="194.92999999999998" type="line"/>
      <point x="776.1899999999998" y="194.92999999999998" type="line"/>
      <point x="776.1899999999998" y="229.14999999999998" type="line"/>
      <point x="602.32" y="229.14999999999998" type="line"/>
      <point x="602.32" y="699.59" type="line"/>
      <point x="571.5300000000001" y="707.28" type="line"/>
      <point x="33.11" y="226.06" type="line"/>
    </contour>
    <contour>
      <point x="87.36" y="229.14999999999998" type="line"/>
      <point x="560.1800000000001" y="648.43" type="line"/>
      <point x="560.1800000000001" y="229.14999999999998" type="line"/>
    </contour>
  </outline>
</glyph>
<glyph name="five" format="2">
  <advance width="804.5059999999999"/>
  <unicode hex="0035"/>
  <outline>
    <contour>
      <point x="57.285000000000004" y="68.78099999999999" type="line"/>
      <point x="141.07999999999998" y="19.110000000000003"/>
      <point x="223.11599999999996" y="-9.381000000000002"/>
      <point x="377.25399999999996" y="-9.381000000000002" type="curve" smooth="yes"/>
      <point x="619.849" y="-9.381000000000002"/>
      <point x="734.2020000000001" y="70.71900000000001"/>
      <point x="734.2020000000001" y="215.16" type="curve" smooth="yes"/>
      <point x="734.2020000000001" y="349.24899999999997"/>
      <point x="658.656" y="406.571"/>
      <point x="489.4579999999999" y="406.571" type="curve" smooth="yes"/>
      <point x="145.048" y="406.571" type="line"/>
      <point x="183.123" y="663.44" type="line"/>
      <point x="683.2310000000001" y="663.44" type="line"/>
      <point x="683.2310000000001" y="700.0" type="line"/>
      <point x="150.85999999999999" y="700.0" type="line"/>
      <point x="103.96499999999999" y="383.26099999999997" type="line"/>
      <point x="114.00999999999999" y="372.44100000000003" type="line"/>
      <point x="470.70199999999994" y="372.44100000000003" type="line" smooth="yes"/>
      <point x="631.032" y="372.44100000000003"/>
      <point x="691.972" y="324.538"/>
      <point x="691.972" y="214.21499999999997" type="curve" smooth="yes"/>
      <point x="691.972" y="93.046"/>
      <point x="599.57" y="26.774"/>
      <point x="375.904" y="26.774" type="curve" smooth="yes"/>
      <point x="226.19799999999998" y="26.774"/>
      <point x="150.112" y="55.937000000000005"/>
      <point x="72.901" y="99.88499999999999" type="curve"/>
    </contour>
  </outline>
</glyph>
<glyph name="six" format="2">
  <advance width="804.5059999999999"/>
  <unicode hex="0036"/>
  <outline>
    <contour>
      <point x="427.006" y="-10.0" type="curve" smooth="yes"/>
      <point x="637.908" y="-10.0"/>
      <point x="759.53" y="75.296"/>
      <point x="759.53" y="219.276" type="curve" smooth="yes"/>
      <point x="759.53" y="357.56999999999994"/>
      <point x="644.912" y="429.626"/>
      <point x="456.488" y="429.626" type="curve" smooth="yes"/>
      <point x="312.57000000000005" y="429.626"/>
      <point x="159.426" y="385.5879999999999"/>
      <point x="80.84999999999998" y="323.94399999999996" type="curve"/>
      <point x="83.62" y="286.272" type="line"/>
      <point x="157.41600000000003" y="350.00200000000007"/>
      <point x="305.296" y="394.932"/>
      <point x="447.782" y="394.932" type="curve" smooth="yes"/>
      <point x="614.846" y="394.932"/>
      <point x="717.48" y="335.8739999999999"/>
      <point x="717.48" y="218.178" type="curve" smooth="yes"/>
      <point x="717.48" y="97.064"/>
      <point x="612.016" y="25.167999999999996"/>
      <point x="428.91999999999996" y="25.167999999999996" type="curve" smooth="yes"/>
      <point x="196.45199999999997" y="25.167999999999996"/>
      <point x="87.80400000000002" y="124.294"/>
      <point x="87.80400000000002" y="341.286" type="curve" smooth="yes"/>
      <point x="87.80400000000002" y="562.01"/>
      <point x="211.03" y="673.842"/>
      <point x="442.18" y="673.842" type="curve" smooth="yes"/>
      <point x="538.0900000000001" y="673.842"/>
      <point x="623.252" y="658.5540000000002"/>
      <point x="715.674" y="636.5699999999998" type="curve"/>
      <point x="726.028" y="670.7540000000001" type="line"/>
      <point x="634.3399999999999" y="694.9259999999999"/>
      <point x="543.0219999999999" y="710.0"/>
      <point x="439.43199999999996" y="710.0" type="curve" smooth="yes"/>
      <point x="184.26" y="710.0"/>
      <point x="45.034" y="589.798"/>
      <point x="45.034" y="341.64200000000005" type="curve" smooth="yes"/>
      <point x="45.034" y="100.098"/>
      <point x="166.054" y="-10.0"/>
    </contour>
  </outline>
</glyph>
<glyph name="seven" format="2">
  <advance width="804.5059999999999"/>
  <unicode hex="0037"/>
  <outline>
    <contour>
      <point x="292.792" y="0.0" type="curve"/>
      <point x="335.652" y="0.0" type="line"/>
      <point x="336.43800000000005" y="132.636"/>
      <point x="382.66799999999995" y="232.57199999999997"/>
      <point x="477.282" y="353.22600000000006" type="curve" smooth="yes"/>
      <point x="726.79" y="670.13" type="line"/>
      <point x="726.79" y="700.0" type="line"/>
      <point x="66.226" y="700.0" type="line"/>
      <point x="66.226" y="662.27" type="line"/>
      <point x="672.4779999999998" y="662.27" type="line"/>
      <point x="469.538" y="406.68600000000004" type="line" smooth="yes"/>
      <point x="331.2099999999999" y="232.39599999999996"/>
      <point x="292.792" y="141.848"/>
    </contour>
  </outline>
</glyph>
<glyph name="eight" format="2">
  <advance width="804.67"/>
  <unicode hex="0038"/>
  <outline>
    <contour>
      <point x="526.48" y="366.18" type="curve"/>
      <point x="566.4200000000001" y="354.82" type="line"/>
      <point x="684.7800000000001" y="401.40999999999997"/>
      <point x="731.8" y="463.04"/>
      <point x="731.8" y="538.88" type="curve" smooth="yes"/>
      <point x="731.8" y="651.5600000000001"/>
      <point x="622.28" y="710.0"/>
      <point x="407.42999999999995" y="710.0" type="curve" smooth="yes"/>
      <point x="193.07999999999998" y="710.0"/>
      <point x="70.75999999999999" y="648.88"/>
      <point x="70.75999999999999" y="536.0000000000001" type="curve" smooth="yes"/>
      <point x="70.75999999999999" y="253.46"/>
      <point x="730.9499999999998" y="453.69000000000005"/>
      <point x="730.9499999999998" y="189.08999999999997" type="curve" smooth="yes"/>
      <point x="730.9499999999998" y="79.32"/>
      <point x="611.59" y="23.590000000000003"/>
      <point x="398.17" y="23.590000000000003" type="curve" smooth="yes"/>
      <point x="187.15" y="23.590000000000003"/>
      <point x="72.67999999999999" y="85.59"/>
      <point x="72.67999999999999" y="193.66" type="curve" smooth="yes"/>
      <point x="72.67999999999999" y="277.67"/>
      <point x="136.14000000000001" y="341.49"/>
      <point x="264.96999999999997" y="381.91" type="curve"/>
      <point x="222.69" y="396.60999999999996" type="line"/>
      <point x="89.74" y="350.47"/>
      <point x="29.909999999999997" y="281.06"/>
      <point x="29.909999999999997" y="189.49" type="curve" smooth="yes"/>
      <point x="29.909999999999997" y="62.09"/>
      <point x="156.99" y="-10.0"/>
      <point x="395.29" y="-10.0" type="curve" smooth="yes"/>
      <point x="638.9799999999999" y="-10.0"/>
      <point x="774.4399999999999" y="58.5"/>
      <point x="774.4399999999999" y="192.11" type="curve" smooth="yes"/>
      <point x="774.4399999999999" y="491.53000000000003"/>
      <point x="112.09" y="294.18"/>
      <point x="112.09" y="538.59" type="curve" smooth="yes"/>
      <point x="112.09" y="627.1999999999999"/>
      <point x="217.59" y="675.92"/>
      <point x="405.99" y="675.92" type="curve" smooth="yes"/>
      <point x="596.3299999999999" y="675.92"/>
      <point x="690.7399999999999" y="628.7099999999999"/>
      <point x="690.7399999999999" y="535.0500000000001" type="curve" smooth="yes"/>
      <point x="690.7399999999999" y="466.37"/>
      <point x="651.07" y="416.52000000000004"/>
    </contour>
  </outline>
</glyph>
<glyph name="nine" format="2">
  <advance width="804.5059999999999"/>
  <unicode hex="0039"/>
  <outline>
    <contour>
      <point x="361.974" y="-10.0" type="curve" smooth="yes"/>
      <point x="617.146" y="-10.0"/>
      <point x="754.3979999999999" y="109.84199999999998"/>
      <point x="754.3979999999999" y="357.45799999999997" type="curve" smooth="yes"/>
      <point x="754.3979999999999" y="599.5419999999999"/>
      <point x="634.548" y="710.0"/>
      <point x="397.72599999999994" y="710.0" type="curve" smooth="yes"/>
      <point x="176.82999999999998" y="710.0"/>
      <point x="39.901999999999994" y="628.2379999999999"/>
      <point x="39.901999999999994" y="481.208" type="curve" smooth="yes"/>
      <point x="39.901999999999994" y="345.784"/>
      <point x="157.08599999999998" y="270.374"/>
      <point x="342.49399999999997" y="270.374" type="curve" smooth="yes"/>
      <point x="486.77199999999993" y="270.374"/>
      <point x="639.8259999999999" y="314.09400000000005"/>
      <point x="718.582" y="375.82800000000003" type="curve"/>
      <point x="717.8279999999999" y="416.14" type="line"/>
      <point x="642.9340000000001" y="348.672"/>
      <point x="494.0459999999999" y="304.52799999999996"/>
      <point x="351.65000000000003" y="304.52799999999996" type="curve" smooth="yes"/>
      <point x="193.432" y="304.52799999999996"/>
      <point x="81.862" y="367.84000000000003"/>
      <point x="81.862" y="482.57599999999996" type="curve" smooth="yes"/>
      <point x="81.862" y="606.8299999999999"/>
      <point x="202.722" y="674.9220000000001"/>
      <point x="395.812" y="674.9220000000001" type="curve" smooth="yes"/>
      <point x="604.15" y="674.9220000000001"/>
      <point x="711.808" y="575.796"/>
      <point x="711.808" y="358.714" type="curve" smooth="yes"/>
      <point x="711.808" y="137.98999999999998"/>
      <point x="590.286" y="25.798"/>
      <point x="359.22599999999994" y="25.798" type="curve" smooth="yes"/>
      <point x="265.026" y="25.798"/>
      <point x="177.98" y="41.44599999999999"/>
      <point x="83.758" y="63.34" type="curve"/>
      <point x="73.40400000000001" y="29.516" type="line"/>
      <point x="166.892" y="5.254"/>
      <point x="260.18399999999997" y="-10.0"/>
    </contour>
  </outline>
</glyph>
<glyph name="less" format="2">
  <advance width="518.336"/>
  <unicode hex="003C"/>
  <outline>
    <contour>
      <point x="462.93799999999993" y="72.48899999999999" type="line"/>
      <point x="462.93799999999993" y="110.308" type="line"/>
      <point x="94.798" y="291.721" type="line"/>
      <point x="462.93799999999993" y="474.645" type="line"/>
      <point x="462.93799999999993" y="511.38" type="line"/>
      <point x="55.398" y="309.317" type="line"/>
      <point x="55.398" y="273.936" type="line"/>
    </contour>
  </outline>
</glyph>
<glyph name="equal" format="2">
  <advance width="517.7959999999999"/>
  <unicode hex="003D"/>
  <outline>
    <contour>
      <point x="462.104" y="205.442" type="line"/>
      <point x="55.692" y="205.442" type="line"/>
      <point x="55.692" y="170.007" type="line"/>
      <point x="462.104" y="170.007" type="line"/>
    </contour>
    <contour>
      <point x="462.104" y="415.709" type="line"/>
      <point x="55.692" y="415.709" type="line"/>
      <point x="55.692" y="380.274" type="line"/>
      <point x="462.104" y="380.274" type="line"/>
    </contour>
  </outline>
</glyph>
<glyph name="greater" format="2">
  <advance width="518.336"/>
  <unicode hex="003E"/>
  <outline>
    <contour>
      <point x="462.93799999999993" y="273.663" type="line"/>
      <point x="462.93799999999993" y="309.044" type="line"/>
      <point x="55.398" y="511.38" type="line"/>
      <point x="55.398" y="473.462" type="line"/>
      <point x="423.538" y="291.448" type="line"/>
      <point x="55.398" y="109.762" type="line"/>
      <point x="55.398" y="72.48899999999999" type="line"/>
    </contour>
  </outline>
</glyph>
<glyph name="question" format="2">
  <advance width="549.404"/>
  <unicode hex="003F"/>
  <outline>
    <contour>
      <point x="232.189" y="261.639" type="line"/>
      <point x="270.33299999999997" y="261.639" type="line"/>
      <point x="270.459" y="329.718" type="line"/>
      <point x="433.39799999999997" y="382.257"/>
      <point x="513.181" y="438.09499999999997"/>
      <point x="513.181" y="552.29" type="curve" smooth="yes"/>
      <point x="513.181" y="701.29"/>
      <point x="387.053" y="749.973"/>
      <point x="274.695" y="749.973" type="curve" smooth="yes"/>
      <point x="184.96399999999997" y="749.973"/>
      <point x="85.12" y="726.081"/>
      <point x="11.376000000000001" y="677.5780000000001" type="curve"/>
      <point x="26.944" y="645.796" type="line"/>
      <point x="99.80099999999999" y="692.137"/>
      <point x="189.89999999999998" y="713.074"/>
      <point x="270.69899999999996" y="713.074" type="curve" smooth="yes"/>
      <point x="364.89399999999995" y="713.074"/>
      <point x="470.13800000000003" y="670.506"/>
      <point x="470.13800000000003" y="550.991" type="curve" smooth="yes"/>
      <point x="470.13800000000003" y="465.766"/>
      <point x="410.52399999999994" y="401.741"/>
      <point x="231.64000000000001" y="352.789" type="curve"/>
    </contour>
    <contour>
      <point x="227.935" y="24.848000000000003" type="curve" smooth="yes"/>
      <point x="227.935" y="3.457"/>
      <point x="233.59199999999998" y="-0.9629999999999999"/>
      <point x="255.63899999999998" y="-0.9629999999999999" type="curve" smooth="yes"/>
      <point x="278.542" y="-0.9629999999999999"/>
      <point x="283.07" y="3.457"/>
      <point x="283.07" y="24.848000000000003" type="curve" smooth="yes"/>
      <point x="283.07" y="46.32899999999999"/>
      <point x="278.542" y="50.748999999999995"/>
      <point x="255.63899999999998" y="50.748999999999995" type="curve" smooth="yes"/>
      <point x="232.409" y="50.748999999999995"/>
      <point x="227.935" y="46.32899999999999"/>
    </contour>
  </outline>
</glyph>
<glyph name="at" format="2">
  <advance width="946.3359999999999"/>
  <unicode hex="0040"/>
  <outline>
    <contour>
      <point x="460.89199999999994" y="-123.18" type="curve" smooth="yes"/>
      <point x="562.186" y="-123.18"/>
      <point x="658.718" y="-93.31"/>
      <point x="727.8159999999999" y="-55.00000000000001" type="curve"/>
      <point x="716.736" y="-29.961999999999996" type="line"/>
      <point x="650.188" y="-67.11"/>
      <point x="560.9" y="-93.988"/>
      <point x="462.782" y="-93.988" type="curve" smooth="yes"/>
      <point x="243.73399999999998" y="-93.988"/>
      <point x="99.226" y="26.437999999999995"/>
      <point x="99.226" y="270.134" type="curve" smooth="yes"/>
      <point x="99.226" y="501.348"/>
      <point x="227.20999999999998" y="681.594"/>
      <point x="483.37199999999996" y="681.594" type="curve" smooth="yes"/>
      <point x="727.606" y="681.594"/>
      <point x="850.18" y="558.4119999999999"/>
      <point x="850.18" y="341.772" type="curve" smooth="yes"/>
      <point x="850.18" y="210.732"/>
      <point x="802.54" y="100.168"/>
      <point x="734.64" y="100.168" type="curve" smooth="yes"/>
      <point x="678.798" y="100.168"/>
      <point x="651.49" y="140.452"/>
      <point x="657.664" y="255.792" type="curve" smooth="yes"/>
      <point x="671.4919999999998" y="497.418" type="line"/>
      <point x="608.726" y="513.806"/>
      <point x="551.366" y="523.3219999999999"/>
      <point x="502.46199999999993" y="523.3219999999999" type="curve" smooth="yes"/>
      <point x="334.58599999999996" y="523.3219999999999"/>
      <point x="254.156" y="396.554"/>
      <point x="254.156" y="267.39400000000006" type="curve" smooth="yes"/>
      <point x="254.156" y="136.186"/>
      <point x="318.63" y="73.392"/>
      <point x="407.94199999999995" y="73.392" type="curve" smooth="yes"/>
      <point x="500.74799999999993" y="73.392"/>
      <point x="584.7579999999999" y="137.28000000000003"/>
      <point x="624.136" y="269.23199999999997" type="curve"/>
      <point x="619.4979999999999" y="148.48"/>
      <point x="636.5179999999999" y="69.654"/>
      <point x="730.07" y="69.654" type="curve" smooth="yes"/>
      <point x="824.966" y="69.654"/>
      <point x="880.514" y="197.944"/>
      <point x="880.514" y="342.258" type="curve" smooth="yes"/>
      <point x="880.514" y="579.512"/>
      <point x="745.4679999999998" y="709.4259999999999"/>
      <point x="485.44199999999995" y="709.4259999999999" type="curve" smooth="yes"/>
      <point x="208.18" y="709.4259999999999"/>
      <point x="67.72399999999999" y="517.27"/>
      <point x="67.72399999999999" y="270.26000000000005" type="curve" smooth="yes"/>
      <point x="67.72399999999999" y="8.155999999999999"/>
      <point x="223.468" y="-123.18"/>
    </contour>
    <contour>
      <point x="416.47999999999996" y="107.57799999999999" type="curve" smooth="yes"/>
      <point x="348.678" y="107.57799999999999"/>
      <point x="294.92800000000005" y="158.12199999999999"/>
      <point x="294.92800000000005" y="269.51800000000003" type="curve" smooth="yes"/>
      <point x="294.92800000000005" y="377.612"/>
      <point x="363.508" y="490.788"/>
      <point x="499.67999999999995" y="490.788" type="curve" smooth="yes"/>
      <point x="535.004" y="490.788"/>
      <point x="588.4279999999999" y="482.77"/>
      <point x="631.8539999999999" y="472.46" type="curve"/>
      <point x="627.1199999999999" y="397.64" type="line" smooth="yes"/>
      <point x="600.7439999999999" y="181.958"/>
      <point x="507.076" y="107.57799999999999"/>
    </contour>
  </outline>
</glyph>
<glyph name="A" format="2">
  <advance width="766.549"/>
  <unicode hex="0041"/>
  <anchor x="754.4129999999999" y="0.0" name="ogonek"/>
  <anchor x="382.562" y="0.0" name="bottom"/>
  <anchor x="383.69599999999997" y="700.0" name="top"/>
  <outline>
    <contour>
      <point x="12.261999999999999" y="0.0" type="line"/>
      <point x="58.16" y="0.0" type="line"/>
      <point x="162.026" y="209.87400000000002" type="line"/>
      <point x="601.776" y="209.87400000000002" type="line"/>
      <point x="706.1229999999999" y="0.0" type="line"/>
      <point x="754.4129999999999" y="0.0" type="line"/>
      <point x="401.489" y="709.1" type="line"/>
      <point x="364.323" y="709.1" type="line"/>
    </contour>
    <contour>
      <point x="177.39000000000001" y="245.587" type="line"/>
      <point x="381.53999999999996" y="657.038" type="line"/>
      <point x="586.9860000000001" y="245.587" type="line"/>
    </contour>
  </outline>
</glyph>
<glyph name="B" format="2">
  <advance width="815.8599999999999"/>
  <unicode hex="0042"/>
  <anchor x="418.06999999999994" y="700.0" name="top"/>
  <anchor x="418.06999999999994" y="0.0" name="bottom"/>
  <outline>
    <contour>
      <point x="107.566" y="2.0239999999999996" type="line"/>
      <point x="263.52" y="-7.672"/>
      <point x="333.368" y="-10.0"/>
      <point x="440.794" y="-10.0" type="curve" smooth="yes"/>
      <point x="680.1220000000001" y="-10.0"/>
      <point x="771.0720000000001" y="47.894000000000005"/>
      <point x="771.0720000000001" y="191.97199999999998" type="curve" smooth="yes"/>
      <point x="771.0720000000001" y="289.35799999999995"/>
      <point x="701.014" y="354.202"/>
      <point x="586.858" y="369.66" type="curve"/>
      <point x="586.858" y="371.414" type="line"/>
      <point x="671.504" y="391.502"/>
      <point x="722.6379999999999" y="454.694"/>
      <point x="722.6379999999999" y="538.884" type="curve" smooth="yes"/>
      <point x="722.6379999999999" y="662.36"/>
      <point x="643.338" y="710.0"/>
      <point x="427.39" y="710.0" type="curve" smooth="yes"/>
      <point x="342.532" y="710.0"/>
      <point x="262.84399999999994" y="706.492"/>
      <point x="107.566" y="697.3940000000001" type="curve"/>
    </contour>
    <contour>
      <point x="150.78599999999997" y="381.19399999999996" type="line"/>
      <point x="150.78599999999997" y="664.586" type="line"/>
      <point x="302.6979999999999" y="673.3820000000001"/>
      <point x="316.0679999999999" y="674.3820000000001"/>
      <point x="413.332" y="674.3820000000001" type="curve" smooth="yes"/>
      <point x="609.088" y="674.3820000000001"/>
      <point x="680.408" y="634.2540000000001"/>
      <point x="680.408" y="532.044" type="curve" smooth="yes"/>
      <point x="680.408" y="442.096"/>
      <point x="608.014" y="381.19399999999996"/>
      <point x="494.48400000000004" y="381.19399999999996" type="curve" smooth="yes"/>
    </contour>
    <contour>
      <point x="150.78599999999997" y="35.988" type="curve"/>
      <point x="150.78599999999997" y="346.074" type="line"/>
      <point x="502.46999999999997" y="346.074" type="line" smooth="yes"/>
      <point x="646.548" y="346.074"/>
      <point x="726.682" y="291.24600000000004"/>
      <point x="726.682" y="192.15" type="curve" smooth="yes"/>
      <point x="726.682" y="70.608"/>
      <point x="647.746" y="25.29"/>
      <point x="432.70599999999996" y="25.29" type="curve" smooth="yes"/>
      <point x="359.25399999999996" y="25.29"/>
      <point x="306.64599999999996" y="27.618"/>
    </contour>
  </outline>
</glyph>
<glyph name="C" format="2">
  <advance width="821.593"/>
  <unicode hex="0043"/>
  <anchor x="460.576" y="700.0" name="top"/>
  <anchor x="459.286" y="0.0" name="bottom"/>
  <outline>
    <contour>
      <point x="68.759" y="336.448" type="curve" smooth="yes"/>
      <point x="68.759" y="94.31899999999999"/>
      <point x="210.54000000000002" y="-10.0"/>
      <point x="463.80499999999995" y="-10.0" type="curve" smooth="yes"/>
      <point x="580.563" y="-10.0"/>
      <point x="688.584" y="4.466999999999999"/>
      <point x="777.32" y="31.250999999999994" type="curve"/>
      <point x="768.0679999999999" y="66.35" type="line"/>
      <point x="680.8469999999999" y="40.55"/>
      <point x="572.543" y="26.284"/>
      <point x="467.984" y="26.284" type="curve" smooth="yes"/>
      <point x="238.63899999999998" y="26.284"/>
      <point x="112.465" y="122.08500000000001"/>
      <point x="112.465" y="337.006" type="curve" smooth="yes"/>
      <point x="112.465" y="569.287"/>
      <point x="245.322" y="673.155"/>
      <point x="482.74999999999994" y="673.155" type="curve" smooth="yes"/>
      <point x="579.843" y="673.155"/>
      <point x="651.8539999999999" y="664.774"/>
      <point x="736.4490000000001" y="642.6580000000001" type="curve"/>
      <point x="746.2139999999999" y="678.0600000000001" type="line"/>
      <point x="660.452" y="701.4570000000001"/>
      <point x="587.732" y="710.0"/>
      <point x="480.803" y="710.0" type="curve" smooth="yes"/>
      <point x="216.03799999999998" y="710.0"/>
      <point x="68.759" y="589.946"/>
    </contour>
  </outline>
</glyph>
<glyph name="D" format="2">
  <advance width="895.8299999999999"/>
  <unicode hex="0044"/>
  <anchor x="439.91399999999993" y="700.0" name="top"/>
  <outline>
    <contour>
      <point x="412.934" y="-10.0" type="curve" smooth="yes"/>
      <point x="676.052" y="-10.0"/>
      <point x="827.0439999999999" y="103.78599999999999"/>
      <point x="827.0439999999999" y="344.688" type="curve" smooth="yes"/>
      <point x="827.0439999999999" y="597.844"/>
      <point x="690.626" y="710.0"/>
      <point x="398.066" y="710.0" type="curve" smooth="yes"/>
      <point x="308.96000000000004" y="710.0"/>
      <point x="218.10199999999998" y="707.2459999999999"/>
      <point x="107.566" y="700.9840000000002" type="curve"/>
      <point x="107.566" y="-1.6560000000000008" type="line"/>
      <point x="217.86799999999997" y="-5.410000000000001"/>
      <point x="329.85999999999996" y="-10.0"/>
    </contour>
    <contour>
      <point x="405.23199999999997" y="24.897999999999996" type="curve" smooth="yes"/>
      <point x="349.48799999999994" y="24.897999999999996"/>
      <point x="218.09199999999998" y="28.553999999999995"/>
      <point x="150.786" y="32.455999999999996" type="curve"/>
      <point x="150.786" y="667.388" type="line"/>
      <point x="232.07399999999998" y="671.9540000000002"/>
      <point x="337.06" y="674.856"/>
      <point x="392.6" y="674.856" type="curve" smooth="yes"/>
      <point x="658.156" y="674.856"/>
      <point x="782.3739999999999" y="576.864"/>
      <point x="782.3739999999999" y="345.35200000000003" type="curve" smooth="yes"/>
      <point x="782.3739999999999" y="125.488"/>
      <point x="647.72" y="24.897999999999996"/>
    </contour>
  </outline>
</glyph>
<glyph name="E" format="2">
  <advance width="748.14"/>
  <unicode hex="0045"/>
  <anchor x="708.262" y="0.0" name="ogonek"/>
  <anchor x="408.324" y="0.0" name="bottom"/>
  <anchor x="400.86999999999995" y="700.0" name="top"/>
  <outline>
    <contour>
      <point x="107.566" y="0.0" type="line"/>
      <point x="708.352" y="0.0" type="line"/>
      <point x="708.352" y="38.18" type="line"/>
      <point x="150.876" y="38.18" type="line"/>
      <point x="150.876" y="356.08599999999996" type="line"/>
      <point x="657.918" y="356.08599999999996" type="line"/>
      <point x="657.918" y="393.48" type="line"/>
      <point x="150.876" y="393.48" type="line"/>
      <point x="150.876" y="661.82" type="line"/>
      <point x="685.016" y="661.82" type="line"/>
      <point x="685.016" y="700.0" type="line"/>
      <point x="107.566" y="700.0" type="line"/>
    </contour>
  </outline>
</glyph>
<glyph name="F" format="2">
  <advance width="712.0759999999999"/>
  <unicode hex="0046"/>
  <outline>
    <contour>
      <point x="107.566" y="0.0" type="line"/>
      <point x="150.87599999999998" y="0.0" type="line"/>
      <point x="150.87599999999998" y="304.66200000000003" type="line"/>
      <point x="623.41" y="304.66200000000003" type="line"/>
      <point x="623.41" y="341.96600000000007" type="line"/>
      <point x="150.786" y="341.96600000000007" type="line"/>
      <point x="150.786" y="661.64" type="line"/>
      <point x="684.2959999999999" y="661.64" type="line"/>
      <point x="684.2959999999999" y="700.0" type="line"/>
      <point x="107.566" y="700.0" type="line"/>
    </contour>
  </outline>
</glyph>
<glyph name="G" format="2">
  <advance width="868.8559999999999"/>
  <unicode hex="0047"/>
  <anchor x="447.84499999999997" y="700.0" name="top"/>
  <anchor x="452.60499999999996" y="0.0" name="bottom"/>
  <outline>
    <contour>
      <point x="68.759" y="336.502" type="curve" smooth="yes"/>
      <point x="68.759" y="110.09199999999998"/>
      <point x="203.29299999999998" y="-10.0"/>
      <point x="445.103" y="-10.0" type="curve" smooth="yes"/>
      <point x="577.992" y="-10.0"/>
      <point x="700.8879999999999" y="7.978999999999999"/>
      <point x="782.6679999999999" y="41.35" type="curve"/>
      <point x="782.6679999999999" y="328.56399999999996" type="line"/>
      <point x="458.865" y="328.56399999999996" type="line"/>
      <point x="458.865" y="294.05" type="line"/>
      <point x="742.481" y="294.05" type="line"/>
      <point x="742.481" y="66.24900000000001" type="line"/>
      <point x="662.098" y="38.289"/>
      <point x="565.739" y="25.006"/>
      <point x="449.54299999999995" y="25.006" type="curve" smooth="yes"/>
      <point x="234.76399999999998" y="25.006"/>
      <point x="112.41099999999999" y="132.767"/>
      <point x="112.41099999999999" y="336.817" type="curve" smooth="yes"/>
      <point x="112.41099999999999" y="552.634"/>
      <point x="240.15499999999997" y="673.209"/>
      <point x="461.675" y="673.209" type="curve" smooth="yes"/>
      <point x="557.9509999999999" y="673.209"/>
      <point x="648.446" y="661.024"/>
      <point x="738.5060000000001" y="634.35" type="curve"/>
      <point x="747.9739999999999" y="668.532" type="line"/>
      <point x="662.338" y="696.16"/>
      <point x="566.594" y="710.0"/>
      <point x="459.863" y="710.0" type="curve" smooth="yes"/>
      <point x="211.505" y="710.0"/>
      <point x="68.759" y="575.587"/>
    </contour>
  </outline>
</glyph>
<glyph name="H" format="2">
  <advance width="925.996"/>
  <unicode hex="0048"/>
  <anchor x="463.33" y="700.0" name="top"/>
  <outline>
    <contour>
      <point x="107.512" y="0.0" type="line"/>
      <point x="150.597" y="0.0" type="line"/>
      <point x="150.597" y="283.622" type="line"/>
      <point x="775.3989999999999" y="283.622" type="line"/>
      <point x="775.3989999999999" y="0.0" type="line"/>
      <point x="818.4839999999999" y="0.0" type="line"/>
      <point x="818.4839999999999" y="700.0" type="line"/>
      <point x="775.3989999999999" y="700.0" type="line"/>
      <point x="775.3989999999999" y="321.664" type="line"/>
      <point x="150.597" y="321.664" type="line"/>
      <point x="150.597" y="700.0" type="line"/>
      <point x="107.512" y="700.0" type="line"/>
    </contour>
  </outline>
</glyph>
<glyph name="I" format="2">
  <advance width="258.109"/>
  <unicode hex="0049"/>
  <anchor x="150.597" y="0.0" name="ogonek"/>
  <anchor x="129.068" y="0.0" name="bottom"/>
  <anchor x="129.068" y="700.0" name="top"/>
  <outline>
    <contour>
      <point x="107.512" y="0.0" type="line"/>
      <point x="150.597" y="0.0" type="line"/>
      <point x="150.597" y="700.0" type="line"/>
      <point x="107.512" y="700.0" type="line"/>
    </contour>
  </outline>
</glyph>
<glyph name="J" format="2">
  <advance width="614.226"/>
  <unicode hex="004A"/>
  <anchor x="301.817" y="700.0" name="top"/>
  <outline>
    <contour>
      <point x="20.593999999999998" y="27.891999999999996" type="line"/>
      <point x="95.392" y="3.262999999999999"/>
      <point x="191.11499999999998" y="-10.636999999999999"/>
      <point x="264.637" y="-10.636999999999999" type="curve" smooth="yes"/>
      <point x="437.568" y="-10.636999999999999"/>
      <point x="527.684" y="67.378"/>
      <point x="527.684" y="235.572" type="curve" smooth="yes"/>
      <point x="527.684" y="700.0" type="line"/>
      <point x="78.35799999999999" y="700.0" type="line"/>
      <point x="78.35799999999999" y="662.48" type="line"/>
      <point x="484.59899999999993" y="662.48" type="line"/>
      <point x="484.59899999999993" y="238.803" type="line" smooth="yes"/>
      <point x="484.59899999999993" y="87.522"/>
      <point x="401.586" y="26.154"/>
      <point x="258.301" y="26.154" type="curve" smooth="yes"/>
      <point x="191.433" y="26.154"/>
      <point x="103.01899999999998" y="39.673"/>
      <point x="30.533" y="63.19499999999999" type="curve"/>
    </contour>
  </outline>
</glyph>
<glyph name="K" format="2">
  <advance width="825.52"/>
  <unicode hex="004B"/>
  <anchor x="412.73999999999995" y="700.0" name="top"/>
  <anchor x="395.03000000000003" y="0.0" name="bottom"/>
  <outline>
    <contour>
      <point x="791.4599999999999" y="-10.0" type="curve" smooth="yes"/>
      <point x="795.5899999999999" y="-10.0"/>
      <point x="802.4499999999999" y="-10.0"/>
      <point x="808.99" y="-8.5" type="curve"/>
      <point x="808.99" y="32.379999999999995" type="line"/>
      <point x="804.04" y="31.47"/>
      <point x="798.6799999999998" y="31.47"/>
      <point x="794.7299999999999" y="31.47" type="curve" smooth="yes"/>
      <point x="729.8599999999999" y="33.11"/>
      <point x="680.5999999999999" y="60.029999999999994"/>
      <point x="554.7899999999998" y="151.75" type="curve" smooth="yes"/>
      <point x="150.85999999999999" y="446.46" type="line"/>
      <point x="150.85999999999999" y="700.0" type="line"/>
      <point x="107.72999999999999" y="700.0" type="line"/>
      <point x="107.72999999999999" y="0.0" type="line"/>
      <point x="150.85999999999999" y="0.0" type="line"/>
      <point x="150.85999999999999" y="396.15" type="line"/>
      <point x="538.27" y="113.69999999999999" type="line" smooth="yes"/>
      <point x="658.13" y="26.660000000000004"/>
      <point x="720.01" y="-10.0"/>
    </contour>
    <contour>
      <point x="300.47" y="315.88" type="line"/>
      <point x="448.0299999999999" y="384.47"/>
      <point x="667.0500000000001" y="507.71999999999997"/>
      <point x="773.6800000000001" y="685.1" type="curve"/>
      <point x="740.12" y="705.8100000000001" type="line"/>
      <point x="629.97" y="527.4"/>
      <point x="407.18999999999994" y="406.02"/>
      <point x="269.31" y="339.29" type="curve"/>
    </contour>
  </outline>
</glyph>
<glyph name="L" format="2">
  <advance width="680.51"/>
  <unicode hex="004C"/>
  <anchor x="340.587" y="350.0" name="center"/>
  <anchor x="129.068" y="700.0" name="top"/>
  <anchor x="437.135" y="700.0" name="topright"/>
  <anchor x="374.35699999999997" y="0.0" name="bottom"/>
  <outline>
    <contour>
      <point x="107.512" y="0.0" type="line"/>
      <point x="658.47" y="0.0" type="line"/>
      <point x="658.47" y="37.85300000000001" type="line"/>
      <point x="150.624" y="37.85300000000001" type="line"/>
      <point x="150.624" y="700.0" type="line"/>
      <point x="107.512" y="700.0" type="line"/>
    </contour>
  </outline>
</glyph>
<glyph name="M" format="2">
  <advance width="1044.601"/>
  <unicode hex="004D"/>
  <outline>
    <contour>
      <point x="107.71199999999999" y="0.0" type="line"/>
      <point x="148.736" y="0.0" type="line"/>
      <point x="148.736" y="642.082" type="line"/>
      <point x="511.6639999999999" y="271.305" type="line"/>
      <point x="531.8430000000001" y="271.305" type="line"/>
      <point x="895.8649999999999" y="642.928" type="line"/>
      <point x="895.8649999999999" y="0.0" type="line"/>
      <point x="936.8889999999999" y="0.0" type="line"/>
      <point x="936.8889999999999" y="700.0" type="line"/>
      <point x="895.5599999999998" y="700.0" type="line"/>
      <point x="522.996" y="316.42699999999996" type="line"/>
      <point x="150.43599999999998" y="700.0" type="line"/>
      <point x="107.71199999999999" y="700.0" type="line"/>
    </contour>
  </outline>
</glyph>
<glyph name="N" format="2">
  <advance width="919.7199999999999"/>
  <unicode hex="004E"/>
  <anchor x="460.10999999999996" y="700.0" name="top"/>
  <anchor x="460.10999999999996" y="0.0" name="bottom"/>
  <outline>
    <contour>
      <point x="107.68499999999999" y="0.0" type="line"/>
      <point x="148.29500000000002" y="0.0" type="line"/>
      <point x="148.29500000000002" y="643.0500000000001" type="line"/>
      <point x="772.65" y="-0.18000000000000002" type="line"/>
      <point x="812.0349999999999" y="-0.18000000000000002" type="line"/>
      <point x="812.0349999999999" y="700.0" type="line"/>
      <point x="771.4249999999998" y="700.0" type="line"/>
      <point x="771.4249999999998" y="60.294999999999995" type="line"/>
      <point x="146.70499999999998" y="706.37" type="line"/>
      <point x="107.68499999999999" y="706.37" type="line"/>
    </contour>
  </outline>
</glyph>
<glyph name="O" format="2">
  <advance width="966.265"/>
  <unicode hex="004F"/>
  <anchor x="535.6749999999998" y="0.13500000000000023" name="ogonek"/>
  <anchor x="481.745" y="700.0" name="top"/>
  <anchor x="724.3449999999999" y="669.615" name="topright"/>
  <anchor x="481.88" y="0.0" name="bottom"/>
  <outline>
    <contour>
      <point x="481.78999999999996" y="24.979999999999997" type="curve" smooth="yes"/>
      <point x="309.175" y="24.979999999999997"/>
      <point x="112.575" y="90.08999999999999"/>
      <point x="112.575" y="349.635" type="curve" smooth="yes"/>
      <point x="112.575" y="617.6899999999999"/>
      <point x="308.85999999999996" y="675.2"/>
      <point x="481.78999999999996" y="675.2" type="curve" smooth="yes"/>
      <point x="656.0349999999999" y="675.2"/>
      <point x="852.7349999999999" y="618.06"/>
      <point x="852.7349999999999" y="349.68" type="curve" smooth="yes"/>
      <point x="852.7349999999999" y="81.8"/>
      <point x="655.9899999999999" y="24.979999999999997"/>
    </contour>
    <contour>
      <point x="481.88" y="-10.0" type="curve" smooth="yes"/>
      <point x="688.335" y="-10.0"/>
      <point x="897.2249999999998" y="56.635"/>
      <point x="897.2249999999998" y="353.135" type="curve" smooth="yes"/>
      <point x="897.2249999999998" y="642.9599999999999"/>
      <point x="682.0849999999998" y="710.0"/>
      <point x="481.78999999999996" y="710.0" type="curve" smooth="yes"/>
      <point x="279.175" y="710.0"/>
      <point x="69.03999999999999" y="640.64"/>
      <point x="69.03999999999999" y="349.815" type="curve" smooth="yes"/>
      <point x="69.03999999999999" y="67.50999999999999"/>
      <point x="280.65999999999997" y="-10.0"/>
    </contour>
  </outline>
</glyph>
<glyph name="P" format="2">
  <advance width="811.9350000000001"/>
  <unicode hex="0050"/>
  <outline>
    <contour>
      <point x="107.512" y="0.0" type="line"/>
      <point x="150.624" y="0.0" type="line"/>
      <point x="150.624" y="254.545" type="line"/>
      <point x="267.44699999999995" y="251.364"/>
      <point x="321.637" y="250.727"/>
      <point x="417.445" y="250.727" type="curve" smooth="yes"/>
      <point x="667.461" y="250.727"/>
      <point x="762.3070000000001" y="307.493"/>
      <point x="762.3070000000001" y="486.86699999999996" type="curve" smooth="yes"/>
      <point x="762.3070000000001" y="647.391"/>
      <point x="692.914" y="710.0"/>
      <point x="395.65199999999993" y="710.0" type="curve" smooth="yes"/>
      <point x="345.053" y="710.0"/>
      <point x="274.11699999999996" y="707.964"/>
      <point x="107.512" y="701.1460000000001" type="curve"/>
    </contour>
    <contour>
      <point x="150.65099999999998" y="667.1" type="line"/>
      <point x="293.594" y="673.348"/>
      <point x="347.12699999999995" y="674.895"/>
      <point x="397.95" y="674.895" type="curve" smooth="yes"/>
      <point x="656.328" y="674.895"/>
      <point x="718.754" y="621.094"/>
      <point x="718.754" y="486.309" type="curve" smooth="yes"/>
      <point x="718.754" y="339.68800000000005"/>
      <point x="649.2869999999999" y="286.486"/>
      <point x="407.944" y="286.486" type="curve" smooth="yes"/>
      <point x="308.378" y="286.486"/>
      <point x="256.16999999999996" y="288.46000000000004"/>
      <point x="150.65099999999998" y="290.95" type="curve"/>
    </contour>
  </outline>
</glyph>
<glyph name="Q" format="2">
  <advance width="966.2919999999999"/>
  <unicode hex="0051"/>
  <outline>
    <contour>
      <point x="557.4280000000001" y="4.356" type="curve"/>
      <point x="516.75" y="-0.9919999999999997" type="line"/>
      <point x="567.704" y="-130.0"/>
      <point x="629.2959999999999" y="-207.339"/>
      <point x="729.5049999999999" y="-207.339" type="curve" smooth="yes"/>
      <point x="764.081" y="-207.339"/>
      <point x="804.9139999999999" y="-198.654"/>
      <point x="850.1709999999999" y="-178.847" type="curve"/>
      <point x="840.8349999999999" y="-145.00300000000001" type="line"/>
      <point x="801.3729999999998" y="-162.698"/>
      <point x="765.7449999999999" y="-170.694"/>
      <point x="735.185" y="-170.694" type="curve" smooth="yes"/>
      <point x="652.653" y="-170.694"/>
      <point x="601.885" y="-107.369"/>
    </contour>
    <component base="O"/>
  </outline>
</glyph>
<glyph name="R" format="2">
  <advance width="875.93"/>
  <unicode hex="0052"/>
  <anchor x="406.5199999999999" y="700.0" name="top"/>
  <anchor x="426.45" y="0.0" name="bottom"/>
  <outline>
    <contour>
      <point x="852.4899999999999" y="-10.0" type="curve" smooth="yes"/>
      <point x="858.1599999999999" y="-10.0"/>
      <point x="865.3799999999999" y="-9.0"/>
      <point x="870.92" y="-8.0" type="curve"/>
      <point x="870.0099999999999" y="31.3" type="line"/>
      <point x="865.3299999999999" y="30.39"/>
      <point x="857.74" y="29.889999999999997"/>
      <point x="854.4699999999999" y="29.889999999999997" type="curve" smooth="yes"/>
      <point x="783.9999999999999" y="29.889999999999997"/>
      <point x="655.4000000000001" y="128.51"/>
      <point x="518.27" y="306.14" type="curve"/>
      <point x="667.77" y="321.48"/>
      <point x="748.1300000000001" y="373.43"/>
      <point x="748.1300000000001" y="511.3" type="curve" smooth="yes"/>
      <point x="748.1300000000001" y="665.48"/>
      <point x="649.14" y="709.59"/>
      <point x="374.90999999999997" y="709.59" type="curve" smooth="yes"/>
      <point x="277.06" y="709.59"/>
      <point x="212.81999999999996" y="707.9100000000001"/>
      <point x="107.72999999999999" y="702.23" type="curve"/>
      <point x="107.72999999999999" y="0.0" type="line"/>
      <point x="150.95" y="0.0" type="line"/>
      <point x="150.95" y="299.92" type="line"/>
      <point x="236.98999999999998" y="297.59999999999997"/>
      <point x="317.96" y="296.28000000000003"/>
      <point x="394.8099999999999" y="296.28000000000003" type="curve" smooth="yes"/>
      <point x="418.96999999999997" y="296.28000000000003"/>
      <point x="445.69" y="296.59999999999997"/>
      <point x="469.84999999999997" y="297.51" type="curve"/>
      <point x="617.1700000000001" y="105.42999999999999"/>
      <point x="759.2699999999999" y="-10.0"/>
    </contour>
    <contour>
      <point x="401.25" y="332.75" type="curve" smooth="yes"/>
      <point x="322.24" y="332.75"/>
      <point x="242.12999999999997" y="334.25"/>
      <point x="150.95" y="336.75" type="curve"/>
      <point x="150.95" y="669.47" type="line"/>
      <point x="243.1" y="674.38"/>
      <point x="281.31" y="674.79"/>
      <point x="376.58" y="674.79" type="curve" smooth="yes"/>
      <point x="621.27" y="674.79"/>
      <point x="704.1" y="636.3199999999999"/>
      <point x="704.1" y="507.74" type="curve" smooth="yes"/>
      <point x="704.1" y="377.2"/>
      <point x="627.1099999999999" y="332.75"/>
    </contour>
  </outline>
</glyph>
<glyph name="S" format="2">
  <advance width="756.9500000000002"/>
  <unicode hex="0053"/>
  <anchor x="379.8999999999999" y="700.0" name="top"/>
  <anchor x="378.28000000000003" y="0.0" name="bottom"/>
  <outline>
    <contour>
      <point x="653.3599999999999" y="671.4999999999999" type="line"/>
      <point x="587.3299999999999" y="691.5600000000001"/>
      <point x="475.61999999999995" y="710.0"/>
      <point x="390.48999999999995" y="710.0" type="curve" smooth="yes"/>
      <point x="182.21" y="710.0"/>
      <point x="69.03999999999999" y="641.96"/>
      <point x="69.03999999999999" y="527.78" type="curve" smooth="yes"/>
      <point x="69.03999999999999" y="409.23999999999995"/>
      <point x="186.67" y="371.36000000000007"/>
      <point x="368.98999999999995" y="333.21" type="curve" smooth="yes"/>
      <point x="544.74" y="296.74999999999994"/>
      <point x="658.8299999999998" y="267.58"/>
      <point x="658.8299999999998" y="172.38" type="curve" smooth="yes"/>
      <point x="658.8299999999998" y="74.66000000000001"/>
      <point x="560.77" y="25.750000000000004"/>
      <point x="372.26000000000005" y="25.750000000000004" type="curve" smooth="yes"/>
      <point x="256.63" y="25.750000000000004"/>
      <point x="103.47999999999999" y="59.58"/>
      <point x="49.269999999999996" y="78.28999999999999" type="curve"/>
      <point x="38.489999999999995" y="42.589999999999996" type="line"/>
      <point x="91.79000000000002" y="24.38"/>
      <point x="250.17000000000002" y="-10.0"/>
      <point x="369.46999999999997" y="-10.0" type="curve" smooth="yes"/>
      <point x="587.5899999999999" y="-10.0"/>
      <point x="703.18" y="51.9"/>
      <point x="703.18" y="175.54" type="curve" smooth="yes"/>
      <point x="703.18" y="292.52"/>
      <point x="584.3399999999999" y="329.5"/>
      <point x="401.89" y="367.33" type="curve" smooth="yes"/>
      <point x="228.02999999999994" y="402.75"/>
      <point x="113.30000000000001" y="432.92"/>
      <point x="113.30000000000001" y="529.8499999999999" type="curve" smooth="yes"/>
      <point x="113.30000000000001" y="620.5600000000001"/>
      <point x="212.04" y="674.6600000000001"/>
      <point x="389.2299999999999" y="674.6600000000001" type="curve" smooth="yes"/>
      <point x="469.2099999999999" y="674.6600000000001"/>
      <point x="577.95" y="656.9000000000001"/>
      <point x="643.26" y="636.48" type="curve"/>
    </contour>
  </outline>
</glyph>
<glyph name="T" format="2">
  <advance width="675.398"/>
  <unicode hex="0054"/>
  <anchor x="337.699" y="700.0" name="top"/>
  <anchor x="337.699" y="0.0" name="bottom"/>
  <outline>
    <contour>
      <point x="667.7359999999999" y="662.676" type="line"/>
      <point x="667.7359999999999" y="700.0" type="line"/>
      <point x="7.662000000000001" y="700.0" type="line"/>
      <point x="7.662000000000001" y="662.676" type="line"/>
      <point x="316.17" y="662.676" type="line"/>
      <point x="316.17" y="0.0" type="line"/>
      <point x="359.255" y="0.0" type="line"/>
      <point x="359.255" y="662.676" type="line"/>
    </contour>
  </outline>
</glyph>
<glyph name="U" format="2">
  <advance width="883.7899999999998"/>
  <unicode hex="0055"/>
  <anchor x="501.678" y="0.05399999999999999" name="ogonek"/>
  <anchor x="442.04499999999996" y="700.0" name="top"/>
  <anchor x="797.2479999999999" y="700.0" name="topright"/>
  <anchor x="442.04499999999996" y="0.0" name="bottom"/>
  <outline>
    <contour>
      <point x="86.542" y="247.036" type="line"/>
      <point x="86.542" y="38.339999999999996"/>
      <point x="268.71799999999996" y="-10.0"/>
      <point x="441.991" y="-10.0" type="curve" smooth="yes"/>
      <point x="615.453" y="-10.0"/>
      <point x="797.2479999999999" y="38.339999999999996"/>
      <point x="797.2479999999999" y="247.036" type="curve" smooth="yes"/>
      <point x="797.2479999999999" y="700.0" type="line"/>
      <point x="754.6129999999999" y="700.0" type="line"/>
      <point x="754.6129999999999" y="248.37699999999998" type="line" smooth="yes"/>
      <point x="754.6129999999999" y="65.29299999999999"/>
      <point x="589.613" y="26.353"/>
      <point x="442.18" y="26.353" type="curve" smooth="yes"/>
      <point x="295.215" y="26.353"/>
      <point x="129.123" y="64.726"/>
      <point x="129.123" y="248.37699999999998" type="curve" smooth="yes"/>
      <point x="129.123" y="700.0" type="line"/>
      <point x="86.542" y="700.0" type="line"/>
    </contour>
  </outline>
</glyph>
<glyph name="V" format="2">
  <advance width="779.8090000000001"/>
  <unicode hex="0056"/>
  <outline>
    <contour>
      <point x="370.09299999999996" y="0.0" type="line"/>
      <point x="409.99499999999995" y="0.0" type="line"/>
      <point x="768.519" y="695.995" type="line"/>
      <point x="726.3779999999999" y="704.5680000000001" type="line"/>
      <point x="390.16999999999996" y="49.5" type="line"/>
      <point x="53.62" y="704.5680000000001" type="line"/>
      <point x="11.29" y="695.995" type="line"/>
    </contour>
  </outline>
</glyph>
<glyph name="W" format="2">
  <advance width="1076.97"/>
  <unicode hex="0057"/>
  <anchor x="538.235" y="700.0" name="top"/>
  <anchor x="538.235" y="0.0" name="bottom"/>
  <outline>
    <contour>
      <point x="833.0759999999999" y="0.0" type="line"/>
      <point x="1065.748" y="697.3689999999999" type="line"/>
      <point x="1022.2009999999998" y="703.1940000000001" type="line"/>
      <point x="812.7579999999998" y="58.549" type="line"/>
      <point x="560.413" y="671.988" type="line"/>
      <point x="517.97" y="671.988" type="line"/>
      <point x="264.554" y="58.297" type="line"/>
      <point x="54.391" y="703.1940000000001" type="line"/>
      <point x="11.222" y="697.3689999999999" type="line"/>
      <point x="243.08399999999997" y="0.0" type="line"/>
      <point x="281.53" y="0.0" type="line"/>
      <point x="537.5509999999999" y="613.855" type="line"/>
      <point x="792.0869999999999" y="0.0" type="line"/>
    </contour>
  </outline>
</glyph>
<glyph name="X" format="2">
  <advance width="780.77"/>
  <unicode hex="0058"/>
  <outline>
    <contour>
      <point x="21.53" y="5.459999999999999" type="line"/>
      <point x="62.75" y="-6.370000000000001" type="line"/>
      <point x="389.57" y="331.55" type="line"/>
      <point x="716.4499999999998" y="-6.370000000000001" type="line"/>
      <point x="758.8799999999999" y="5.459999999999999" type="line"/>
      <point x="418.59999999999997" y="361.27000000000004" type="line"/>
      <point x="738.78" y="693.72" type="line"/>
      <point x="699.32" y="705.2800000000001" type="line"/>
      <point x="392.55" y="388.35999999999996" type="line"/>
      <point x="85.95" y="705.46" type="line"/>
      <point x="42.89000000000001" y="693.72" type="line"/>
      <point x="364.83" y="359.59" type="line"/>
    </contour>
  </outline>
</glyph>
<glyph name="Y" format="2">
  <advance width="761.0"/>
  <unicode hex="0059"/>
  <anchor x="380.77299999999997" y="700.0" name="top"/>
  <anchor x="384.95899999999995" y="0.0" name="bottom"/>
  <outline>
    <contour>
      <point x="363.67599999999993" y="0.0" type="line"/>
      <point x="406.76099999999997" y="0.0" type="line"/>
      <point x="406.76099999999997" y="305.23" type="line"/>
      <point x="749.091" y="694.085" type="line"/>
      <point x="708.678" y="705.915" type="line"/>
      <point x="385.358" y="338.158" type="line"/>
      <point x="51.48199999999999" y="705.915" type="line"/>
      <point x="10.817" y="694.085" type="line"/>
      <point x="363.67599999999993" y="305.23" type="line"/>
    </contour>
  </outline>
</glyph>
<glyph name="Z" format="2">
  <advance width="743.744"/>
  <unicode hex="005A"/>
  <anchor x="371.638" y="350.0" name="center"/>
  <anchor x="371.638" y="0.0" name="bottom"/>
  <anchor x="374.74899999999997" y="700.0" name="top"/>
  <outline>
    <contour>
      <point x="35.415" y="0.0" type="line"/>
      <point x="715.3629999999999" y="0.0" type="line"/>
      <point x="715.3629999999999" y="35.909000000000006" type="line"/>
      <point x="98.71799999999999" y="35.909000000000006" type="line"/>
      <point x="98.71799999999999" y="37.864000000000004" type="line"/>
      <point x="678.866" y="669.4300000000001" type="line"/>
      <point x="678.866" y="700.0" type="line"/>
      <point x="65.353" y="700.0" type="line"/>
      <point x="65.353" y="664.181" type="line"/>
      <point x="616.2829999999999" y="664.181" type="line"/>
      <point x="616.2829999999999" y="662.136" type="line"/>
      <point x="35.415" y="30.659999999999997" type="line"/>
    </contour>
  </outline>
</glyph>
<glyph name="bracketleft" format="2">
  <advance width="381.478"/>
  <unicode hex="005B"/>
  <outline>
    <contour>
      <point x="147.616" y="-177.85" type="line"/>
      <point x="147.616" y="707.85" type="line"/>
      <point x="347.928" y="707.85" type="line"/>
      <point x="347.928" y="740.0" type="line"/>
      <point x="111.33500000000001" y="740.0" type="line"/>
      <point x="111.33500000000001" y="-210.0" type="line"/>
      <point x="347.928" y="-210.0" type="line"/>
      <point x="347.928" y="-177.85" type="line"/>
    </contour>
  </outline>
</glyph>
<glyph name="backslash" format="2">
  <advance width="384.589"/>
  <unicode hex="005C"/>
  <outline>
    <contour>
      <point x="44.702" y="740.0" type="line"/>
      <point x="7.276" y="740.0" type="line"/>
      <point x="339.914" y="-210.0" type="line"/>
      <point x="377.313" y="-210.0" type="line"/>
    </contour>
  </outline>
</glyph>
<glyph name="bracketright" format="2">
  <advance width="381.478"/>
  <unicode hex="005D"/>
  <outline>
    <contour>
      <point x="33.55" y="-177.85" type="line"/>
      <point x="33.55" y="-210.0" type="line"/>
      <point x="270.14300000000003" y="-210.0" type="line"/>
      <point x="270.14300000000003" y="740.0" type="line"/>
      <point x="33.55" y="740.0" type="line"/>
      <point x="33.55" y="707.85" type="line"/>
      <point x="233.862" y="707.85" type="line"/>
      <point x="233.862" y="-177.85" type="line"/>
    </contour>
  </outline>
</glyph>
<glyph name="asciicircum" format="2">
  <advance width="518.336"/>
  <unicode hex="005E"/>
  <outline>
    <contour>
      <point x="50.614999999999995" y="271.239" type="line"/>
      <point x="89.179" y="271.239" type="line"/>
      <point x="259.168" y="664.379" type="line"/>
      <point x="429.247" y="271.239" type="line"/>
      <point x="467.721" y="271.239" type="line"/>
      <point x="278.231" y="709.1" type="line"/>
      <point x="240.105" y="709.1" type="line"/>
    </contour>
  </outline>
</glyph>
<glyph name="underscore" format="2">
  <advance width="885.406"/>
  <unicode hex="005F"/>
  <outline>
    <contour>
      <point x="1.7999999999999998" y="-142.63299999999998" type="line"/>
      <point x="883.606" y="-142.63299999999998" type="line"/>
      <point x="883.606" y="-109.313" type="line"/>
      <point x="1.7999999999999998" y="-109.313" type="line"/>
    </contour>
  </outline>
</glyph>
<glyph name="a" format="2">
  <advance width="649.0999999999999"/>
  <unicode hex="0061"/>
  <anchor x="636.2999999999998" y="0.53" name="ogonek"/>
  <anchor x="321.31999999999994" y="0.0" name="bottom"/>
  <anchor x="322.87" y="531.8" name="top"/>
  <outline>
    <contour>
      <point x="55.080000000000005" y="120.91" type="curve" smooth="yes"/>
      <point x="55.080000000000005" y="30.490000000000002"/>
      <point x="118.23" y="-10.0"/>
      <point x="208.49" y="-10.0" type="curve" smooth="yes"/>
      <point x="332.21000000000004" y="-10.0"/>
      <point x="432.0299999999999" y="46.50999999999999"/>
      <point x="497.97999999999996" y="100.01999999999998" type="curve"/>
      <point x="500.67999999999995" y="20.8"/>
      <point x="531.79" y="-10.0"/>
      <point x="587.41" y="-10.0" type="curve" smooth="yes"/>
      <point x="604.28" y="-10.0"/>
      <point x="621.1999999999999" y="-6.42"/>
      <point x="638.9999999999998" y="1.88" type="curve"/>
      <point x="631.7399999999999" y="32.11" type="line"/>
      <point x="619.78" y="27.289999999999996"/>
      <point x="608.7799999999999" y="25.469999999999995"/>
      <point x="598.2299999999999" y="25.469999999999995" type="curve" smooth="yes"/>
      <point x="560.4300000000001" y="25.469999999999995"/>
      <point x="537.37" y="45.620000000000005"/>
      <point x="538.1899999999999" y="116.39000000000001" type="curve" smooth="yes"/>
      <point x="540.24" y="371.34" type="line" smooth="yes"/>
      <point x="541.4699999999999" y="490.41"/>
      <point x="451.2" y="541.8"/>
      <point x="312.30999999999995" y="541.8" type="curve" smooth="yes"/>
      <point x="246.78999999999996" y="541.8"/>
      <point x="172.35999999999999" y="530.4399999999999"/>
      <point x="99.40999999999998" y="510.93999999999994" type="curve"/>
      <point x="107.01999999999998" y="477.03999999999996" type="line"/>
      <point x="183.90000000000003" y="498.00000000000006"/>
      <point x="254.82999999999996" y="506.77000000000004"/>
      <point x="312.00999999999993" y="506.77000000000004" type="curve" smooth="yes"/>
      <point x="436.06999999999994" y="506.77000000000004"/>
      <point x="499.68999999999994" y="457.27"/>
      <point x="498.86999999999995" y="371.07" type="curve" smooth="yes"/>
      <point x="498.46" y="294.86" type="line"/>
      <point x="202.17" y="277.79999999999995"/>
      <point x="55.080000000000005" y="262.14"/>
    </contour>
    <contour>
      <point x="97.57999999999998" y="126.36" type="curve" smooth="yes"/>
      <point x="97.57999999999998" y="241.26000000000002"/>
      <point x="254.76999999999995" y="255.49"/>
      <point x="498.04999999999995" y="266.41" type="curve"/>
      <point x="496.81999999999994" y="133.51999999999998" type="line"/>
      <point x="415.21" y="62.730000000000004"/>
      <point x="311.26" y="21.65"/>
      <point x="218.43999999999997" y="21.65" type="curve" smooth="yes"/>
      <point x="144.89" y="21.65"/>
      <point x="97.57999999999998" y="55.81"/>
    </contour>
  </outline>
</glyph>
<glyph name="b" format="2">
  <advance width="688.077"/>
  <unicode hex="0062"/>
  <outline>
    <contour>
      <point x="94.915" y="16.431" type="line"/>
      <point x="183.045" y="-1.521000000000001"/>
      <point x="253.445" y="-10.0"/>
      <point x="317.388" y="-10.0" type="curve" smooth="yes"/>
      <point x="528.622" y="-10.0"/>
      <point x="630.925" y="82.389"/>
      <point x="630.925" y="282.408" type="curve" smooth="yes"/>
      <point x="630.925" y="445.883"/>
      <point x="543.685" y="541.8"/>
      <point x="397.28" y="541.8" type="curve" smooth="yes"/>
      <point x="311.768" y="541.8"/>
      <point x="234.148" y="514.154"/>
      <point x="136.73999999999998" y="447.74500000000006" type="curve"/>
      <point x="136.73999999999998" y="740.0" type="line"/>
      <point x="94.915" y="740.0" type="line"/>
    </contour>
    <contour>
      <point x="136.73999999999998" y="43.135000000000005" type="curve"/>
      <point x="136.73999999999998" y="413.61" type="line"/>
      <point x="234.40699999999998" y="480.008"/>
      <point x="304.733" y="506.20000000000005"/>
      <point x="386.19499999999994" y="506.20000000000005" type="curve" smooth="yes"/>
      <point x="511.82599999999996" y="506.20000000000005"/>
      <point x="588.551" y="422.86899999999997"/>
      <point x="588.551" y="280.959" type="curve" smooth="yes"/>
      <point x="588.551" y="101.603"/>
      <point x="499.91200000000003" y="22.089"/>
      <point x="316.64399999999995" y="22.089" type="curve" smooth="yes"/>
      <point x="267.514" y="22.089"/>
      <point x="208.185" y="28.71"/>
    </contour>
  </outline>
</glyph>
<glyph name="c" format="2">
  <advance width="642.793"/>
  <unicode hex="0063"/>
  <anchor x="368.765" y="531.8" name="top"/>
  <anchor x="369.03799999999995" y="0.0" name="bottom"/>
  <outline>
    <contour>
      <point x="57.242" y="254.384" type="curve" smooth="yes"/>
      <point x="57.242" y="78.75600000000001"/>
      <point x="166.391" y="-10.0"/>
      <point x="369.4529999999999" y="-10.0" type="curve" smooth="yes"/>
      <point x="446.551" y="-10.0"/>
      <point x="537.944" y="3.2749999999999995"/>
      <point x="605.712" y="21.299" type="curve"/>
      <point x="599.093" y="53.541999999999994" type="line"/>
      <point x="530.4430000000001" y="36.538000000000004"/>
      <point x="444.66799999999995" y="23.857"/>
      <point x="376.771" y="23.857" type="curve" smooth="yes"/>
      <point x="199.47299999999998" y="23.857"/>
      <point x="99.256" y="98.43900000000001"/>
      <point x="99.256" y="253.601" type="curve" smooth="yes"/>
      <point x="99.256" y="424.987"/>
      <point x="205.119" y="507.691"/>
      <point x="375.42799999999994" y="507.691" type="curve" smooth="yes"/>
      <point x="438.395" y="507.691"/>
      <point x="523.828" y="496.395"/>
      <point x="587.7030000000001" y="480.81" type="curve"/>
      <point x="593.98" y="513.971" type="line"/>
      <point x="530.6600000000001" y="530.2700000000001"/>
      <point x="441.56600000000003" y="541.8"/>
      <point x="374.82499999999993" y="541.8" type="curve" smooth="yes"/>
      <point x="178.08299999999997" y="541.8"/>
      <point x="57.242" y="444.862"/>
    </contour>
  </outline>
</glyph>
<glyph name="d" format="2">
  <advance width="688.23"/>
  <unicode hex="0064"/>
  <anchor x="344.672" y="275.0" name="center"/>
  <anchor x="342.76399999999995" y="740.0" name="top"/>
  <anchor x="695.38" y="740.0" name="topright"/>
  <anchor x="344.672" y="0.0" name="bottom"/>
  <outline>
    <contour>
      <point x="560.182" y="-0.27" type="line"/>
      <point x="593.3599999999999" y="-0.27" type="line"/>
      <point x="593.3599999999999" y="740.0" type="line"/>
      <point x="551.4" y="740.0" type="line"/>
      <point x="551.4" y="522.838" type="line"/>
      <point x="490.04999999999995" y="535.422"/>
      <point x="425.372" y="541.8"/>
      <point x="369.474" y="541.8" type="curve" smooth="yes"/>
      <point x="159.55399999999995" y="541.8"/>
      <point x="57.169999999999995" y="448.808"/>
      <point x="57.169999999999995" y="249.64399999999998" type="curve" smooth="yes"/>
      <point x="57.169999999999995" y="85.45800000000001"/>
      <point x="144.728" y="-10.0"/>
      <point x="291.64599999999996" y="-10.0" type="curve" smooth="yes"/>
      <point x="377.40999999999997" y="-10.0"/>
      <point x="453.67400000000004" y="17.099999999999998"/>
      <point x="551.4" y="83.49" type="curve"/>
    </contour>
    <contour>
      <point x="551.31" y="118.082" type="line"/>
      <point x="453.74199999999996" y="51.9"/>
      <point x="383.32599999999996" y="25.618"/>
      <point x="301.726" y="25.618" type="curve" smooth="yes"/>
      <point x="176.368" y="25.618"/>
      <point x="99.67" y="108.21"/>
      <point x="99.67" y="251.264" type="curve" smooth="yes"/>
      <point x="99.67" y="430.2420000000001"/>
      <point x="188.246" y="509.522"/>
      <point x="371.424" y="509.522" type="curve" smooth="yes"/>
      <point x="420.6979999999999" y="509.522"/>
      <point x="480.138" y="502.96399999999994"/>
      <point x="551.31" y="488.51200000000006" type="curve"/>
    </contour>
  </outline>
</glyph>
<glyph name="e" format="2">
  <advance width="677.2119999999999"/>
  <unicode hex="0065"/>
  <anchor x="578.736" y="15.812000000000001" name="ogonek"/>
  <anchor x="358.63" y="0.0" name="bottom"/>
  <anchor x="358.27599999999995" y="531.8" name="top"/>
  <outline>
    <contour>
      <point x="341.024" y="-10.0" type="curve" smooth="yes"/>
      <point x="454.2279999999999" y="-10.0"/>
      <point x="558.444" y="8.764"/>
      <point x="619.15" y="24.434" type="curve"/>
      <point x="612.834" y="57.44199999999999" type="line"/>
      <point x="553.8739999999999" y="43.245999999999995"/>
      <point x="448.37799999999993" y="24.244"/>
      <point x="344.69" y="24.244" type="curve" smooth="yes"/>
      <point x="198.71399999999997" y="24.244"/>
      <point x="99.58000000000001" y="91.55"/>
      <point x="99.58000000000001" y="247.626" type="curve" smooth="yes"/>
      <point x="99.58000000000001" y="257.97999999999996"/>
      <point x="100.154" y="267.73600000000005"/>
      <point x="100.908" y="277.516" type="curve"/>
      <point x="359.16999999999996" y="277.87600000000003"/>
      <point x="567.3879999999999" y="293.33600000000007"/>
      <point x="626.168" y="297.344" type="curve"/>
      <point x="626.9219999999999" y="304.94599999999997"/>
      <point x="627.258" y="315.524"/>
      <point x="627.258" y="321.8500000000001" type="curve" smooth="yes"/>
      <point x="627.258" y="474.204"/>
      <point x="541.6619999999999" y="541.8"/>
      <point x="373.9" y="541.8" type="curve" smooth="yes"/>
      <point x="204.438" y="541.8"/>
      <point x="57.169999999999995" y="463.14599999999996"/>
      <point x="57.169999999999995" y="250.14600000000002" type="curve" smooth="yes"/>
      <point x="57.169999999999995" y="71.622"/>
      <point x="169.766" y="-10.0"/>
    </contour>
    <contour>
      <point x="102.89999999999999" y="308.904" type="curve"/>
      <point x="126.14" y="465.13"/>
      <point x="261.644" y="509.33200000000005"/>
      <point x="372.46" y="509.33200000000005" type="curve" smooth="yes"/>
      <point x="517.954" y="509.33200000000005"/>
      <point x="584.1840000000001" y="450.488"/>
      <point x="584.724" y="325.65200000000004" type="curve"/>
      <point x="544.4459999999999" y="321.914"/>
      <point x="342.53399999999993" y="309.084"/>
    </contour>
  </outline>
</glyph>
<glyph name="f" format="2">
  <advance width="445.994"/>
  <unicode hex="0066"/>
  <outline>
    <contour>
      <point x="145.95800000000003" y="0.0" type="line"/>
      <point x="187.423" y="0.0" type="line"/>
      <point x="187.423" y="451.961" type="line"/>
      <point x="436.9" y="451.961" type="line"/>
      <point x="436.9" y="485.21500000000003" type="line"/>
      <point x="187.45" y="485.21500000000003" type="line"/>
      <point x="187.45" y="504.21399999999994" type="line" smooth="yes"/>
      <point x="187.45" y="656.8910000000001"/>
      <point x="247.44400000000002" y="715.952"/>
      <point x="362.055" y="715.952" type="curve" smooth="yes"/>
      <point x="411.872" y="715.952"/>
      <point x="457.91599999999994" y="707.477"/>
      <point x="514.3879999999999" y="691.3689999999999" type="curve"/>
      <point x="521.41" y="724.2059999999999" type="line"/>
      <point x="456.62299999999993" y="743.386"/>
      <point x="409.27299999999997" y="750.6370000000001"/>
      <point x="354.28700000000003" y="750.6370000000001" type="curve" smooth="yes"/>
      <point x="223.718" y="750.6370000000001"/>
      <point x="145.95800000000003" y="682.3280000000001"/>
      <point x="145.95800000000003" y="504.646" type="curve" smooth="yes"/>
      <point x="145.95800000000003" y="485.21500000000003" type="line"/>
      <point x="32.684999999999995" y="478.943" type="line"/>
      <point x="32.684999999999995" y="451.961" type="line"/>
      <point x="145.95800000000003" y="451.961" type="line"/>
    </contour>
  </outline>
</glyph>
<glyph name="g" format="2">
  <advance width="701.2779999999999"/>
  <unicode hex="0067"/>
  <anchor x="354.206" y="531.8" name="top"/>
  <anchor x="342.328" y="-217.0" name="bottom"/>
  <outline>
    <contour>
      <point x="339.46599999999995" y="-220.0" type="curve" smooth="yes"/>
      <point x="561.6220000000001" y="-220.0"/>
      <point x="679.926" y="-155.65800000000002"/>
      <point x="679.926" y="-47.312" type="curve" smooth="yes"/>
      <point x="679.926" y="37.489999999999995"/>
      <point x="623.714" y="77.108"/>
      <point x="508.928" y="77.108" type="curve" smooth="yes"/>
      <point x="248.61800000000002" y="77.108" type="line" smooth="yes"/>
      <point x="157.44199999999998" y="77.108"/>
      <point x="112.026" y="105.18599999999999"/>
      <point x="112.026" y="155.75" type="curve" smooth="yes"/>
      <point x="112.026" y="195.15599999999998"/>
      <point x="140.34" y="225.038"/>
      <point x="188.238" y="247.17999999999998" type="curve"/>
      <point x="160.946" y="258.552" type="line"/>
      <point x="102.30000000000001" y="230.72399999999996"/>
      <point x="75.172" y="195.10999999999999"/>
      <point x="75.172" y="146.81799999999998" type="curve" smooth="yes"/>
      <point x="75.172" y="77.744"/>
      <point x="135.62199999999999" y="41.42399999999999"/>
      <point x="248.516" y="41.42399999999999" type="curve" smooth="yes"/>
      <point x="499.9939999999999" y="41.42399999999999" type="line" smooth="yes"/>
      <point x="591.308" y="41.42399999999999"/>
      <point x="639.136" y="11.957999999999998"/>
      <point x="639.136" y="-49.22400000000001" type="curve" smooth="yes"/>
      <point x="639.136" y="-137.07399999999998"/>
      <point x="538.146" y="-187.55600000000004"/>
      <point x="342.16600000000005" y="-187.55600000000004" type="curve" smooth="yes"/>
      <point x="162.20799999999997" y="-187.55600000000004"/>
      <point x="68.734" y="-148.82999999999998"/>
      <point x="68.734" y="-60.332" type="curve" smooth="yes"/>
      <point x="68.734" y="-11.088000000000003"/>
      <point x="96.79599999999999" y="33.912"/>
      <point x="189.09599999999998" y="56.144" type="curve"/>
      <point x="154.032" y="65.99" type="line"/>
      <point x="59.188" y="41.942"/>
      <point x="30.734" y="-10.708000000000002"/>
      <point x="30.734" y="-65.676" type="curve" smooth="yes"/>
      <point x="30.734" y="-173.23000000000002"/>
      <point x="134.58" y="-220.0"/>
    </contour>
    <contour>
      <point x="349.656" y="212.522" type="curve" smooth="yes"/>
      <point x="525.2159999999999" y="212.522"/>
      <point x="607.548" y="266.372"/>
      <point x="607.548" y="377.37" type="curve" smooth="yes"/>
      <point x="607.548" y="488.368"/>
      <point x="525.2159999999999" y="541.89"/>
      <point x="349.656" y="541.89" type="curve" smooth="yes"/>
      <point x="174.09599999999998" y="541.89"/>
      <point x="91.854" y="488.368"/>
      <point x="91.854" y="377.37" type="curve" smooth="yes"/>
      <point x="91.854" y="266.372"/>
      <point x="174.09599999999998" y="212.522"/>
    </contour>
    <contour>
      <point x="349.656" y="243.31199999999998" type="curve" smooth="yes"/>
      <point x="199.59599999999998" y="243.31199999999998"/>
      <point x="132.284" y="284.596"/>
      <point x="132.284" y="377.37" type="curve" smooth="yes"/>
      <point x="132.284" y="470.47999999999996"/>
      <point x="199.59599999999998" y="511.19"/>
      <point x="349.656" y="511.19" type="curve" smooth="yes"/>
      <point x="499.716" y="511.19"/>
      <point x="567.0279999999999" y="470.47999999999996"/>
      <point x="567.0279999999999" y="377.37" type="curve" smooth="yes"/>
      <point x="567.0279999999999" y="284.596"/>
      <point x="499.716" y="243.31199999999998"/>
    </contour>
    <contour>
      <point x="522.7339999999999" y="488.25399999999996" type="line"/>
      <point x="540.514" y="524.578"/>
      <point x="575.764" y="540.662"/>
      <point x="627.9919999999998" y="540.662" type="curve" smooth="yes"/>
      <point x="643.492" y="540.662"/>
      <point x="656.4659999999999" y="539.908"/>
      <point x="672.0400000000001" y="537.3100000000001" type="curve"/>
      <point x="675.8639999999999" y="571.17" type="line"/>
      <point x="655.552" y="573.7679999999999"/>
      <point x="644.39" y="574.6120000000001"/>
      <point x="628.982" y="574.6120000000001" type="curve" smooth="yes"/>
      <point x="563.4519999999999" y="574.6120000000001"/>
      <point x="517.92" y="551.6379999999999"/>
      <point x="500.2559999999999" y="505.28" type="curve"/>
    </contour>
  </outline>
</glyph>
<glyph name="h" format="2">
  <advance width="707.603"/>
  <unicode hex="0068"/>
  <anchor x="353.559" y="395.0" name="center"/>
  <anchor x="354.189" y="0.0" name="bottom"/>
  <anchor x="355.39799999999997" y="740.0" name="top"/>
  <outline>
    <contour>
      <point x="94.87" y="0.0" type="line"/>
      <point x="136.82999999999998" y="0.0" type="line"/>
      <point x="136.82999999999998" y="428.04" type="line"/>
      <point x="233.63299999999998" y="474.44000000000005"/>
      <point x="305.461" y="506.0470000000001"/>
      <point x="407.7869999999999" y="506.0470000000001" type="curve" smooth="yes"/>
      <point x="519.8459999999999" y="506.0470000000001"/>
      <point x="570.773" y="449.909"/>
      <point x="570.773" y="359.22299999999996" type="curve" smooth="yes"/>
      <point x="570.773" y="0.0" type="line"/>
      <point x="612.733" y="0.0" type="line"/>
      <point x="612.733" y="367.41299999999995" type="line" smooth="yes"/>
      <point x="612.733" y="479.0079999999999"/>
      <point x="546.762" y="541.8"/>
      <point x="419.724" y="541.8" type="curve" smooth="yes"/>
      <point x="310.782" y="541.8"/>
      <point x="233.87599999999998" y="508.301"/>
      <point x="136.82999999999998" y="461.77500000000003" type="curve"/>
      <point x="136.82999999999998" y="740.0" type="line"/>
      <point x="94.87" y="740.0" type="line"/>
    </contour>
  </outline>
</glyph>
<glyph name="i" format="2">
  <advance width="231.655"/>
  <unicode hex="0069"/>
  <anchor x="136.103" y="0.0" name="ogonek"/>
  <anchor x="115.841" y="0.0" name="bottom"/>
  <outline>
    <contour>
      <point x="115.841" y="667.343" type="curve" smooth="yes"/>
      <point x="139.773" y="667.343"/>
      <point x="144.478" y="671.646"/>
      <point x="144.478" y="692.713" type="curve" smooth="yes"/>
      <point x="144.478" y="713.8340000000001"/>
      <point x="139.71900000000002" y="718.11"/>
      <point x="115.841" y="718.11" type="curve" smooth="yes"/>
      <point x="91.93599999999999" y="718.11"/>
      <point x="87.17699999999999" y="713.8340000000001"/>
      <point x="87.17699999999999" y="692.713" type="curve" smooth="yes"/>
      <point x="87.17699999999999" y="671.6189999999999"/>
      <point x="92.846" y="667.343"/>
    </contour>
    <contour>
      <point x="94.915" y="0.0" type="line"/>
      <point x="136.73999999999998" y="0.0" type="line"/>
      <point x="136.73999999999998" y="531.8" type="line"/>
      <point x="94.915" y="531.8" type="line"/>
    </contour>
  </outline>
</glyph>
<glyph name="j" format="2">
  <advance width="234.42"/>
  <unicode hex="006A"/>
  <outline>
    <contour>
      <point x="140.14199999999997" y="531.8" type="line"/>
      <point x="98.31700000000001" y="531.8" type="line"/>
      <point x="98.31700000000001" y="18.662" type="line" smooth="yes"/>
      <point x="98.31700000000001" y="-74.277"/>
      <point x="73.915" y="-131.042"/>
      <point x="25.994" y="-160.162" type="curve" smooth="yes"/>
      <point x="17.619999999999997" y="-165.349"/>
      <point x="9.3" y="-169.54500000000002"/>
      <point x="-0.06500000000000195" y="-172.777" type="curve"/>
      <point x="7.402999999999999" y="-207.27800000000002" type="line"/>
      <point x="20.093" y="-203.815"/>
      <point x="34.103" y="-198.706"/>
      <point x="45.021" y="-193.246" type="curve" smooth="yes"/>
      <point x="108.62400000000001" y="-160.85"/>
      <point x="140.14199999999997" y="-93.024"/>
      <point x="140.14199999999997" y="17.789" type="curve" smooth="yes"/>
    </contour>
    <contour>
      <point x="117.969" y="667.343" type="curve" smooth="yes"/>
      <point x="141.628" y="667.343"/>
      <point x="146.606" y="671.646"/>
      <point x="146.606" y="692.713" type="curve" smooth="yes"/>
      <point x="146.606" y="713.8340000000001"/>
      <point x="141.57399999999998" y="718.11"/>
      <point x="117.969" y="718.11" type="curve" smooth="yes"/>
      <point x="94.06400000000001" y="718.11"/>
      <point x="89.30499999999999" y="713.8340000000001"/>
      <point x="89.30499999999999" y="692.713" type="curve" smooth="yes"/>
      <point x="89.30499999999999" y="671.6189999999999"/>
      <point x="94.974" y="667.343"/>
    </contour>
  </outline>
</glyph>
<glyph name="l" format="2">
  <advance width="300.959"/>
  <unicode hex="006C"/>
  <anchor x="150.88500000000002" y="395.0" name="center"/>
  <anchor x="115.841" y="740.0" name="top"/>
  <anchor x="238.80499999999998" y="740.0" name="topright"/>
  <anchor x="196.39499999999998" y="0.0" name="bottom"/>
  <outline>
    <contour>
      <point x="136.73999999999998" y="740.0" type="line"/>
      <point x="94.915" y="740.0" type="line"/>
      <point x="94.915" y="142.091" type="line" smooth="yes"/>
      <point x="94.915" y="16.509999999999998"/>
      <point x="149.039" y="-10.0"/>
      <point x="217.061" y="-10.0" type="curve" smooth="yes"/>
      <point x="247.987" y="-10.0"/>
      <point x="277.853" y="-3.735"/>
      <point x="301.96599999999995" y="5.01" type="curve"/>
      <point x="295.914" y="39.352999999999994" type="line"/>
      <point x="272.791" y="31.660999999999998"/>
      <point x="247.78599999999997" y="26.587"/>
      <point x="224.333" y="26.587" type="curve" smooth="yes"/>
      <point x="177.864" y="26.587"/>
      <point x="136.73999999999998" y="44.633"/>
      <point x="136.73999999999998" y="143.70199999999997" type="curve" smooth="yes"/>
    </contour>
  </outline>
</glyph>
<glyph name="m" format="2">
  <advance width="1079.597"/>
  <unicode hex="006D"/>
  <outline>
    <contour>
      <point x="94.915" y="0.0" type="line"/>
      <point x="136.767" y="0.0" type="line"/>
      <point x="136.767" y="424.709" type="line"/>
      <point x="217.472" y="471.738"/>
      <point x="282.58099999999996" y="502.6820000000001"/>
      <point x="374.365" y="502.6820000000001" type="curve" smooth="yes"/>
      <point x="503.0489999999999" y="502.6820000000001"/>
      <point x="520.4920000000001" y="409.09400000000005"/>
      <point x="520.4920000000001" y="356.08299999999997" type="curve" smooth="yes"/>
      <point x="520.4920000000001" y="0.0" type="line"/>
      <point x="562.3439999999999" y="0.0" type="line"/>
      <point x="562.3439999999999" y="358.44100000000003" type="line" smooth="yes"/>
      <point x="562.3439999999999" y="378.28600000000006"/>
      <point x="560.251" y="403.499"/>
      <point x="551.816" y="428.43999999999994" type="curve"/>
      <point x="606.0609999999999" y="460.39799999999997"/>
      <point x="687.606" y="505.93000000000006"/>
      <point x="794.461" y="505.93000000000006" type="curve" smooth="yes"/>
      <point x="925.6299999999999" y="505.93000000000006"/>
      <point x="942.884" y="411.768"/>
      <point x="942.884" y="358.631" type="curve" smooth="yes"/>
      <point x="942.884" y="0.0" type="line"/>
      <point x="984.736" y="0.0" type="line"/>
      <point x="984.736" y="366.91999999999996" type="line" smooth="yes"/>
      <point x="984.736" y="435.048"/>
      <point x="957.1" y="541.8"/>
      <point x="807.757" y="541.8" type="curve" smooth="yes"/>
      <point x="687.225" y="541.8"/>
      <point x="600.0289999999999" y="493.03999999999996"/>
      <point x="540.747" y="457.553" type="curve"/>
      <point x="518.273" y="502.33700000000005"/>
      <point x="473.81" y="538.615"/>
      <point x="386.968" y="538.615" type="curve" smooth="yes"/>
      <point x="286.155" y="538.615"/>
      <point x="211.244" y="503.25299999999993"/>
      <point x="134.355" y="459.09200000000004" type="curve"/>
      <point x="134.355" y="531.8" type="line"/>
      <point x="94.915" y="531.8" type="line"/>
    </contour>
  </outline>
</glyph>
<glyph name="n" format="2">
  <advance width="707.5490000000001"/>
  <unicode hex="006E"/>
  <anchor x="362.44" y="531.8" name="top"/>
  <anchor x="364.25999999999993" y="0.0" name="bottom"/>
  <outline>
    <contour>
      <point x="94.915" y="0.0" type="line"/>
      <point x="136.767" y="0.0" type="line"/>
      <point x="136.767" y="428.076" type="line"/>
      <point x="233.57899999999998" y="474.503"/>
      <point x="305.443" y="506.1820000000001"/>
      <point x="407.832" y="506.1820000000001" type="curve" smooth="yes"/>
      <point x="519.891" y="506.1820000000001"/>
      <point x="570.8359999999999" y="449.981"/>
      <point x="570.8359999999999" y="359.268" type="curve" smooth="yes"/>
      <point x="570.8359999999999" y="0.0" type="line"/>
      <point x="612.688" y="0.0" type="line"/>
      <point x="612.688" y="367.557" type="line" smooth="yes"/>
      <point x="612.688" y="478.693"/>
      <point x="546.9509999999999" y="541.8"/>
      <point x="419.679" y="541.8" type="curve" smooth="yes"/>
      <point x="310.053" y="541.8"/>
      <point x="232.132" y="508.013"/>
      <point x="134.355" y="460.821" type="curve"/>
      <point x="134.355" y="531.8" type="line"/>
      <point x="94.915" y="531.8" type="line"/>
    </contour>
  </outline>
</glyph>
<glyph name="o" format="2">
  <advance width="718.6219999999998"/>
  <unicode hex="006F"/>
  <anchor x="427.179" y="0.39599999999999996" name="ogonek"/>
  <anchor x="359.3109999999999" y="531.8" name="top"/>
  <anchor x="481.2919999999999" y="528.17" name="topright"/>
  <anchor x="359.311" y="0.0" name="bottom"/>
  <outline>
    <contour>
      <point x="57.214999999999996" y="267.327" type="curve" smooth="yes"/>
      <point x="57.214999999999996" y="74.277"/>
      <point x="148.253" y="-10.0"/>
      <point x="359.311" y="-10.0" type="curve" smooth="yes"/>
      <point x="570.369" y="-10.0"/>
      <point x="661.4069999999999" y="74.277"/>
      <point x="661.4069999999999" y="267.327" type="curve" smooth="yes"/>
      <point x="661.4069999999999" y="451.277"/>
      <point x="582.269" y="541.8"/>
      <point x="359.311" y="541.8" type="curve" smooth="yes"/>
      <point x="136.22699999999998" y="541.8"/>
      <point x="57.214999999999996" y="451.277"/>
    </contour>
    <contour>
      <point x="99.535" y="267.327" type="curve" smooth="yes"/>
      <point x="99.535" y="427.861"/>
      <point x="164.11499999999995" y="508.27000000000004"/>
      <point x="359.3109999999999" y="508.27000000000004" type="curve" smooth="yes"/>
      <point x="554.48" y="508.27000000000004"/>
      <point x="618.961" y="427.861"/>
      <point x="618.961" y="267.327" type="curve" smooth="yes"/>
      <point x="618.961" y="99.919"/>
      <point x="543.3359999999999" y="23.557"/>
      <point x="359.3109999999999" y="23.557" type="curve" smooth="yes"/>
      <point x="175.259" y="23.557"/>
      <point x="99.535" y="99.919"/>
    </contour>
  </outline>
</glyph>
<glyph name="p" format="2">
  <advance width="688.1039999999999"/>
  <unicode hex="0070"/>
  <outline>
    <contour>
      <point x="94.915" y="-210.0" type="line"/>
      <point x="136.82999999999998" y="-210.0" type="line"/>
      <point x="136.82999999999998" y="9.706999999999999" type="line"/>
      <point x="207.09799999999998" y="-3.6040000000000005"/>
      <point x="264.9789999999999" y="-10.0"/>
      <point x="318.57599999999996" y="-10.0" type="curve" smooth="yes"/>
      <point x="528.5409999999999" y="-10.0"/>
      <point x="630.952" y="83.064"/>
      <point x="630.952" y="282.192" type="curve" smooth="yes"/>
      <point x="630.952" y="445.613"/>
      <point x="543.6579999999999" y="541.8"/>
      <point x="397.469" y="541.8" type="curve" smooth="yes"/>
      <point x="311.597" y="541.8"/>
      <point x="233.15800000000002" y="513.857"/>
      <point x="134.679" y="446.80899999999997" type="curve"/>
      <point x="134.355" y="534.53" type="line"/>
      <point x="94.915" y="534.53" type="line"/>
    </contour>
    <contour>
      <point x="316.671" y="22.196999999999996" type="curve" smooth="yes"/>
      <point x="267.514" y="22.196999999999996"/>
      <point x="208.185" y="28.845"/>
      <point x="136.767" y="43.324" type="curve"/>
      <point x="136.767" y="413.79900000000004" type="line"/>
      <point x="234.37999999999997" y="480.143"/>
      <point x="304.733" y="506.30800000000005"/>
      <point x="386.168" y="506.30800000000005" type="curve" smooth="yes"/>
      <point x="511.82599999999996" y="506.30800000000005"/>
      <point x="588.551" y="422.923"/>
      <point x="588.551" y="280.52700000000004" type="curve" smooth="yes"/>
      <point x="588.551" y="101.65700000000001"/>
      <point x="499.91200000000003" y="22.196999999999996"/>
    </contour>
  </outline>
</glyph>
<glyph name="q" format="2">
  <advance width="688.131"/>
  <unicode hex="0071"/>
  <outline>
    <contour>
      <point x="593.216" y="515.75" type="line"/>
      <point x="504.483" y="533.648"/>
      <point x="434.875" y="541.8"/>
      <point x="370.743" y="541.8" type="curve" smooth="yes"/>
      <point x="159.779" y="541.8"/>
      <point x="57.151999999999994" y="449.222"/>
      <point x="57.151999999999994" y="250.14799999999997" type="curve" smooth="yes"/>
      <point x="57.151999999999994" y="86.32499999999999"/>
      <point x="144.638" y="-10.0"/>
      <point x="290.851" y="-10.0" type="curve" smooth="yes"/>
      <point x="376.417" y="-10.0"/>
      <point x="454.037" y="17.645999999999997"/>
      <point x="551.391" y="84.02799999999999" type="curve"/>
      <point x="551.391" y="-210.0" type="line"/>
      <point x="593.216" y="-210.0" type="line"/>
    </contour>
    <contour>
      <point x="551.364" y="488.338" type="curve"/>
      <point x="551.364" y="118.136" type="line"/>
      <point x="453.751" y="51.765"/>
      <point x="383.39799999999997" y="25.546"/>
      <point x="301.936" y="25.546" type="curve" smooth="yes"/>
      <point x="176.578" y="25.546"/>
      <point x="99.58" y="109.42299999999999"/>
      <point x="99.58" y="250.78699999999998" type="curve" smooth="yes"/>
      <point x="99.58" y="430.14300000000003"/>
      <point x="188.219" y="509.65700000000004"/>
      <point x="371.48699999999997" y="509.65700000000004" type="curve" smooth="yes"/>
      <point x="420.37999999999994" y="509.65700000000004"/>
      <point x="479.94599999999997" y="503.036"/>
    </contour>
  </outline>
</glyph>
<glyph name="r" format="2">
  <advance width="492.20399999999995"/>
  <unicode hex="0072"/>
  <anchor x="279.99899999999997" y="531.8" name="top"/>
  <anchor x="115.81400000000001" y="0.0" name="bottom"/>
  <outline>
    <contour>
      <point x="134.328" y="531.8" type="line"/>
      <point x="94.915" y="531.8" type="line"/>
      <point x="94.915" y="0.0" type="line"/>
      <point x="136.71300000000002" y="0.0" type="line"/>
      <point x="136.71300000000002" y="398.659" type="line"/>
      <point x="221.63500000000002" y="476.0"/>
      <point x="300.024" y="504.733"/>
      <point x="373.866" y="504.733" type="curve" smooth="yes"/>
      <point x="407.08899999999994" y="504.733"/>
      <point x="446.7" y="498.71299999999997"/>
      <point x="478.152" y="490.57599999999996" type="curve"/>
      <point x="485.422" y="527.361" type="line"/>
      <point x="459.00899999999996" y="535.179"/>
      <point x="417.623" y="541.8"/>
      <point x="375.29599999999994" y="541.8" type="curve" smooth="yes"/>
      <point x="295.941" y="541.8"/>
      <point x="222.59699999999998" y="512.884"/>
      <point x="134.328" y="438.507" type="curve"/>
    </contour>
  </outline>
</glyph>
<glyph name="s" format="2">
  <advance width="599.67"/>
  <unicode hex="0073"/>
  <anchor x="297.13" y="531.8" name="top"/>
  <anchor x="301.77" y="0.0" name="bottom"/>
  <outline>
    <contour>
      <point x="40.2" y="30.919999999999995" type="line"/>
      <point x="98.63999999999997" y="6.909999999999999"/>
      <point x="203.47" y="-10.0"/>
      <point x="296.56" y="-10.0" type="curve" smooth="yes"/>
      <point x="460.5799999999999" y="-10.0"/>
      <point x="557.7800000000001" y="35.970000000000006"/>
      <point x="557.7800000000001" y="135.9" type="curve" smooth="yes"/>
      <point x="557.7800000000001" y="237.02"/>
      <point x="452.34999999999997" y="263.28"/>
      <point x="323.02000000000004" y="285.42" type="curve" smooth="yes"/>
      <point x="211.36" y="303.56"/>
      <point x="104.82999999999998" y="321.90999999999997"/>
      <point x="104.82999999999998" y="403.11" type="curve" smooth="yes"/>
      <point x="104.82999999999998" y="469.94"/>
      <point x="174.82999999999996" y="507.94000000000005"/>
      <point x="316.03999999999996" y="507.94000000000005" type="curve" smooth="yes"/>
      <point x="388.56999999999994" y="507.94000000000005"/>
      <point x="465.6" y="491.58"/>
      <point x="509.4299999999999" y="478.84999999999997" type="curve"/>
      <point x="517.73" y="511.8" type="line"/>
      <point x="472.7699999999999" y="525.5300000000001"/>
      <point x="394.63999999999993" y="541.8"/>
      <point x="316.31" y="541.8" type="curve" smooth="yes"/>
      <point x="146.47" y="541.8"/>
      <point x="64.67" y="489.98999999999995"/>
      <point x="64.67" y="400.40999999999997" type="curve" smooth="yes"/>
      <point x="64.67" y="299.84999999999997"/>
      <point x="173.7" y="273.02000000000004"/>
      <point x="298.76" y="252.55999999999997" type="curve" smooth="yes"/>
      <point x="423.34" y="231.05"/>
      <point x="516.99" y="210.03"/>
      <point x="516.99" y="133.65" type="curve" smooth="yes"/>
      <point x="516.99" y="61.309999999999995"/>
      <point x="439.78999999999996" y="23.5"/>
      <point x="297.82000000000005" y="23.5" type="curve" smooth="yes"/>
      <point x="210.34999999999997" y="23.5"/>
      <point x="105.36999999999999" y="41.04"/>
      <point x="48.90999999999999" y="63.77999999999999" type="curve"/>
    </contour>
  </outline>
</glyph>
<glyph name="t" format="2">
  <advance width="505.064"/>
  <unicode hex="0074"/>
  <anchor x="251.93699999999998" y="275.0" name="center"/>
  <anchor x="170.996" y="664.703" name="top"/>
  <anchor x="391.698" y="778.86" name="topright"/>
  <anchor x="299.768" y="0.0" name="bottom"/>
  <outline>
    <contour>
      <point x="313.09200000000004" y="-10.0" type="curve" smooth="yes"/>
      <point x="361.557" y="-10.0"/>
      <point x="423.027" y="-0.27300000000000085"/>
      <point x="489.25399999999996" y="20.718999999999998" type="curve"/>
      <point x="481.496" y="54.62" type="line"/>
      <point x="432.126" y="37.92"/>
      <point x="379.79" y="26.349999999999998"/>
      <point x="323.902" y="26.349999999999998" type="curve" smooth="yes"/>
      <point x="229.17699999999996" y="26.349999999999998"/>
      <point x="188.56" y="69.736"/>
      <point x="188.56" y="163.018" type="curve" smooth="yes"/>
      <point x="188.56" y="498.546" type="line"/>
      <point x="466.95899999999995" y="498.546" type="line"/>
      <point x="466.95899999999995" y="531.8" type="line"/>
      <point x="188.56" y="531.8" type="line"/>
      <point x="188.56" y="664.703" type="line"/>
      <point x="153.159" y="664.703" type="line"/>
      <point x="146.73499999999999" y="531.8" type="line"/>
      <point x="10.215000000000002" y="525.555" type="line"/>
      <point x="10.215000000000002" y="498.57300000000004" type="line"/>
      <point x="146.73499999999999" y="498.57300000000004" type="line"/>
      <point x="146.73499999999999" y="161.542" type="line" smooth="yes"/>
      <point x="146.73499999999999" y="42.338"/>
      <point x="205.17499999999998" y="-10.0"/>
    </contour>
  </outline>
</glyph>
<glyph name="u" format="2">
  <advance width="697.0260000000001"/>
  <unicode hex="0075"/>
  <anchor x="686.689" y="1.826" name="ogonek"/>
  <anchor x="340.721" y="531.8" name="top"/>
  <anchor x="585.216" y="531.8" name="topright"/>
  <anchor x="348.726" y="0.0" name="bottom"/>
  <outline>
    <contour>
      <point x="277.921" y="-10.0" type="curve" smooth="yes"/>
      <point x="381.843" y="-10.0"/>
      <point x="456.007" y="23.976"/>
      <point x="548.454" y="71.82900000000001" type="curve"/>
      <point x="557.7149999999999" y="13.802"/>
      <point x="595.025" y="-10.0"/>
      <point x="633.182" y="-10.0" type="curve" smooth="yes"/>
      <point x="650.804" y="-10.0"/>
      <point x="669.122" y="-5.895999999999999"/>
      <point x="686.689" y="1.826" type="curve"/>
      <point x="679.1469999999999" y="31.086" type="line"/>
      <point x="668.762" y="26.256999999999998"/>
      <point x="657.4209999999999" y="23.710000000000004"/>
      <point x="646.645" y="23.710000000000004" type="curve" smooth="yes"/>
      <point x="613.871" y="23.710000000000004"/>
      <point x="585.216" y="45.105"/>
      <point x="585.216" y="117.247" type="curve" smooth="yes"/>
      <point x="585.216" y="531.8" type="line"/>
      <point x="543.391" y="531.8" type="line"/>
      <point x="543.391" y="102.70899999999999" type="line"/>
      <point x="453.9079999999999" y="57.34"/>
      <point x="385.258" y="25.366"/>
      <point x="289.71400000000006" y="25.366" type="curve" smooth="yes"/>
      <point x="187.721" y="25.366"/>
      <point x="136.71300000000002" y="78.382"/>
      <point x="136.71300000000002" y="158.90999999999997" type="curve" smooth="yes"/>
      <point x="136.71300000000002" y="531.8" type="line"/>
      <point x="94.86099999999999" y="531.8" type="line"/>
      <point x="94.86099999999999" y="152.178" type="line" smooth="yes"/>
      <point x="94.86099999999999" y="51.72999999999999"/>
      <point x="159.231" y="-10.0"/>
    </contour>
  </outline>
</glyph>
<glyph name="v" format="2">
  <advance width="614.174"/>
  <unicode hex="0076"/>
  <outline>
    <contour>
      <point x="288.459" y="0.0" type="line"/>
      <point x="324.943" y="0.0" type="line"/>
      <point x="601.576" y="527.432" type="line"/>
      <point x="560.0039999999999" y="536.168" type="line"/>
      <point x="308.283" y="46.847" type="line"/>
      <point x="54.26" y="536.168" type="line"/>
      <point x="12.553" y="527.432" type="line"/>
    </contour>
  </outline>
</glyph>
<glyph name="w" format="2">
  <advance width="921.031"/>
  <unicode hex="0077"/>
  <anchor x="460.29699999999997" y="531.8" name="top"/>
  <anchor x="460.29699999999997" y="0.0" name="bottom"/>
  <outline>
    <contour>
      <point x="225.33199999999997" y="0.0" type="line"/>
      <point x="265.739" y="0.0" type="line"/>
      <point x="459.65799999999996" y="481.893" type="line"/>
      <point x="655.139" y="0.0" type="line"/>
      <point x="694.511" y="0.0" type="line"/>
      <point x="907.044" y="527.696" type="line"/>
      <point x="867.232" y="535.4580000000001" type="line"/>
      <point x="676.3609999999999" y="51.155" type="line"/>
      <point x="481.85299999999995" y="531.8" type="line"/>
      <point x="438.678" y="531.8" type="line"/>
      <point x="247.48999999999998" y="50.344" type="line"/>
      <point x="54.455999999999996" y="535.4580000000001" type="line"/>
      <point x="13.487" y="527.696" type="line"/>
    </contour>
  </outline>
</glyph>
<glyph name="x" format="2">
  <advance width="645.1500000000001"/>
  <unicode hex="0078"/>
  <outline>
    <contour>
      <point x="17.200000000000003" y="3.6399999999999992" type="line"/>
      <point x="59.37" y="-7.69" type="line"/>
      <point x="322.11999999999995" y="247.26000000000002" type="line"/>
      <point x="586.05" y="-7.69" type="line"/>
      <point x="628.3599999999999" y="3.6399999999999992" type="line"/>
      <point x="349.7200000000001" y="275.13" type="line"/>
      <point x="611.08" y="526.34" type="line"/>
      <point x="571.02" y="537.76" type="line"/>
      <point x="324.06" y="300.3299999999999" type="line"/>
      <point x="77.69" y="537.7599999999999" type="line"/>
      <point x="35.199999999999996" y="525.9300000000001" type="line"/>
      <point x="296.78" y="273.23" type="line"/>
    </contour>
  </outline>
</glyph>
<glyph name="y" format="2">
  <advance width="615.279"/>
  <unicode hex="0079"/>
  <anchor x="305.933" y="531.8" name="top"/>
  <anchor x="473.48499999999996" y="0.0" name="bottom"/>
  <outline>
    <contour>
      <point x="220.466" y="-206.33200000000002" type="line"/>
      <point x="260.82199999999995" y="-214.094" type="line"/>
      <point x="602.2069999999999" y="530.6800000000001" type="line"/>
      <point x="561.179" y="538.1419999999999" type="line"/>
      <point x="332.864" y="38.937999999999995" type="line"/>
      <point x="55.424" y="538.716" type="line"/>
      <point x="12.825999999999999" y="529.98" type="line"/>
      <point x="307.56700000000006" y="0.0" type="line"/>
      <point x="314.206" y="0.0" type="line"/>
    </contour>
  </outline>
</glyph>
<glyph name="z" format="2">
  <advance width="616.084"/>
  <unicode hex="007A"/>
  <anchor x="316.65799999999996" y="531.8" name="top"/>
  <outline>
    <contour>
      <point x="35.476000000000006" y="0.0" type="line"/>
      <point x="586.978" y="0.0" type="line"/>
      <point x="586.978" y="34.154" type="line"/>
      <point x="94.42399999999999" y="34.154" type="line"/>
      <point x="556.616" y="501.38" type="line"/>
      <point x="556.616" y="531.8" type="line"/>
      <point x="68.35199999999999" y="531.8" type="line"/>
      <point x="68.35199999999999" y="497.736" type="line"/>
      <point x="498.72400000000005" y="497.736" type="line"/>
      <point x="35.476000000000006" y="30.509999999999998" type="line"/>
    </contour>
  </outline>
</glyph>
<glyph name="braceleft" format="2">
  <advance width="387.757"/>
  <unicode hex="007B"/>
  <outline>
    <contour>
      <point x="150.908" y="-66.87899999999999" type="curve" smooth="yes"/>
      <point x="150.908" y="-143.09799999999998"/>
      <point x="186.082" y="-210.02700000000002"/>
      <point x="297.365" y="-210.02700000000002" type="curve" smooth="yes"/>
      <point x="341.558" y="-210.02700000000002" type="line"/>
      <point x="341.558" y="-177.87699999999998" type="line"/>
      <point x="303.84499999999997" y="-177.87699999999998" type="line" smooth="yes"/>
      <point x="213.24499999999998" y="-177.87699999999998"/>
      <point x="189.574" y="-122.568"/>
      <point x="189.574" y="-64.179" type="curve" smooth="yes"/>
      <point x="189.574" y="8.669"/>
      <point x="222.90699999999998" y="76.602"/>
      <point x="222.90699999999998" y="150.988" type="curve" smooth="yes"/>
      <point x="222.90699999999998" y="191.071"/>
      <point x="213.82100000000003" y="250.941"/>
      <point x="162.71099999999998" y="265.0" type="curve"/>
      <point x="213.184" y="283.01700000000005"/>
      <point x="222.90699999999998" y="337.628"/>
      <point x="222.90699999999998" y="377.711" type="curve" smooth="yes"/>
      <point x="222.90699999999998" y="452.734"/>
      <point x="189.574" y="517.482"/>
      <point x="189.574" y="592.878" type="curve" smooth="yes"/>
      <point x="189.574" y="651.267"/>
      <point x="213.24499999999998" y="707.85"/>
      <point x="303.84499999999997" y="707.85" type="curve" smooth="yes"/>
      <point x="341.558" y="707.85" type="line"/>
      <point x="341.558" y="740.0" type="line"/>
      <point x="297.365" y="740.0" type="line" smooth="yes"/>
      <point x="186.082" y="740.0"/>
      <point x="150.908" y="671.797"/>
      <point x="150.908" y="595.578" type="curve" smooth="yes"/>
      <point x="150.908" y="513.31"/>
      <point x="184.736" y="449.927"/>
      <point x="184.736" y="377.351" type="curve" smooth="yes"/>
      <point x="184.736" y="335.705"/>
      <point x="172.197" y="281.12"/>
      <point x="126.278" y="281.12" type="curve" smooth="yes"/>
      <point x="105.60199999999999" y="281.12" type="line"/>
      <point x="105.60199999999999" y="248.85299999999998" type="line"/>
      <point x="126.278" y="248.85299999999998" type="line" smooth="yes"/>
      <point x="172.197" y="248.85299999999998"/>
      <point x="184.736" y="193.267"/>
      <point x="184.736" y="151.348" type="curve" smooth="yes"/>
      <point x="184.736" y="79.227"/>
      <point x="150.908" y="12.204"/>
    </contour>
  </outline>
</glyph>
<glyph name="bar" format="2">
  <advance width="250.402"/>
  <unicode hex="007C"/>
  <outline>
    <contour>
      <point x="143.571" y="790.027" type="line"/>
      <point x="106.83099999999999" y="790.027" type="line"/>
      <point x="106.83099999999999" y="-210.0" type="line"/>
      <point x="143.571" y="-210.0" type="line"/>
    </contour>
  </outline>
</glyph>
<glyph name="braceright" format="2">
  <advance width="387.757"/>
  <unicode hex="007D"/>
  <outline>
    <contour>
      <point x="46.199" y="-177.87699999999998" type="line"/>
      <point x="46.199" y="-210.02700000000002" type="line"/>
      <point x="90.66499999999999" y="-210.02700000000002" type="line" smooth="yes"/>
      <point x="201.948" y="-210.02700000000002"/>
      <point x="237.122" y="-143.09799999999998"/>
      <point x="237.122" y="-66.87899999999999" type="curve" smooth="yes"/>
      <point x="237.122" y="12.204"/>
      <point x="203.29399999999998" y="79.227"/>
      <point x="203.29399999999998" y="151.348" type="curve" smooth="yes"/>
      <point x="203.29399999999998" y="193.267"/>
      <point x="215.83300000000003" y="248.85299999999998"/>
      <point x="261.752" y="248.85299999999998" type="curve" smooth="yes"/>
      <point x="282.155" y="248.85299999999998" type="line"/>
      <point x="282.155" y="281.12" type="line"/>
      <point x="261.752" y="281.12" type="line" smooth="yes"/>
      <point x="215.56" y="281.12"/>
      <point x="203.29399999999998" y="335.705"/>
      <point x="203.29399999999998" y="377.351" type="curve" smooth="yes"/>
      <point x="203.29399999999998" y="449.927"/>
      <point x="237.122" y="513.31"/>
      <point x="237.122" y="595.578" type="curve" smooth="yes"/>
      <point x="237.122" y="671.797"/>
      <point x="201.948" y="740.0"/>
      <point x="90.66499999999999" y="740.0" type="curve" smooth="yes"/>
      <point x="46.199" y="740.0" type="line"/>
      <point x="46.199" y="707.85" type="line"/>
      <point x="83.72599999999998" y="707.85" type="line" smooth="yes"/>
      <point x="174.053" y="707.85"/>
      <point x="197.99699999999999" y="651.267"/>
      <point x="197.99699999999999" y="592.878" type="curve" smooth="yes"/>
      <point x="197.99699999999999" y="517.482"/>
      <point x="164.66400000000002" y="452.734"/>
      <point x="164.66400000000002" y="377.711" type="curve" smooth="yes"/>
      <point x="164.66400000000002" y="337.628"/>
      <point x="174.114" y="283.01700000000005"/>
      <point x="224.86" y="265.0" type="curve"/>
      <point x="173.477" y="250.941"/>
      <point x="164.66400000000002" y="191.071"/>
      <point x="164.66400000000002" y="150.988" type="curve" smooth="yes"/>
      <point x="164.66400000000002" y="76.602"/>
      <point x="197.99699999999999" y="8.669"/>
      <point x="197.99699999999999" y="-64.179" type="curve" smooth="yes"/>
      <point x="197.99699999999999" y="-122.568"/>
      <point x="174.053" y="-177.87699999999998"/>
      <point x="83.72599999999998" y="-177.87699999999998" type="curve" smooth="yes"/>
    </contour>
  </outline>
</glyph>
<glyph name="asciitilde" format="2">
  <advance width="518.336"/>
  <unicode hex="007E"/>
  <outline>
    <contour>
      <point x="450.635" y="261.157" type="curve"/>
      <point x="450.635" y="300.46" type="line"/>
      <point x="426.714" y="278.147"/>
      <point x="401.792" y="256.90999999999997"/>
      <point x="364.85900000000004" y="256.90999999999997" type="curve" smooth="yes"/>
      <point x="283.452" y="256.90999999999997"/>
      <point x="236.72400000000002" y="361.937"/>
      <point x="152.04200000000003" y="361.937" type="curve" smooth="yes"/>
      <point x="116.902" y="361.937"/>
      <point x="89.011" y="342.586"/>
      <point x="68.03699999999999" y="323.574" type="curve"/>
      <point x="68.03699999999999" y="283.634" type="line"/>
      <point x="89.34700000000001" y="303.83600000000007"/>
      <point x="114.69699999999999" y="326.295"/>
      <point x="152.35" y="326.295" type="curve" smooth="yes"/>
      <point x="229.62599999999998" y="326.295"/>
      <point x="277.383" y="221.205"/>
      <point x="365.923" y="221.205" type="curve" smooth="yes"/>
      <point x="404.05999999999995" y="221.205"/>
      <point x="428.849" y="240.552"/>
    </contour>
  </outline>
</glyph>
<glyph name="exclamdown" format="2">
  <advance width="275.12399999999997"/>
  <unicode hex="00A1"/>
  <outline>
    <contour>
      <point x="156.868" y="268.187" type="line"/>
      <point x="118.751" y="268.187" type="line"/>
      <point x="117.05899999999998" y="-208.26299999999998" type="line"/>
      <point x="158.47899999999998" y="-208.26299999999998" type="line"/>
    </contour>
    <contour>
      <point x="164.993" y="506.889" type="curve" smooth="yes"/>
      <point x="164.993" y="528.28"/>
      <point x="160.76500000000001" y="532.7"/>
      <point x="137.56199999999998" y="532.7" type="curve" smooth="yes"/>
      <point x="115.26899999999999" y="532.7"/>
      <point x="110.13099999999999" y="528.28"/>
      <point x="110.13099999999999" y="506.889" type="curve" smooth="yes"/>
      <point x="110.13099999999999" y="485.40799999999996"/>
      <point x="114.359" y="480.988"/>
      <point x="137.56199999999998" y="480.988" type="curve" smooth="yes"/>
      <point x="160.76500000000001" y="480.988"/>
      <point x="164.993" y="485.40799999999996"/>
    </contour>
  </outline>
</glyph>
<glyph name="cent" format="2">
  <advance width="804.3979999999999"/>
  <unicode hex="00A2"/>
  <outline>
    <contour>
      <point x="417.061" y="-10.027" type="curve" smooth="yes"/>
      <point x="500.991" y="-10.027"/>
      <point x="603.637" y="1.0999999999999996"/>
      <point x="670.581" y="17.749999999999996" type="curve"/>
      <point x="664.115" y="51.160000000000004" type="line"/>
      <point x="599.51" y="36.131"/>
      <point x="500.756" y="25.207"/>
      <point x="424.813" y="25.207" type="curve" smooth="yes"/>
      <point x="264.859" y="25.207"/>
      <point x="174.619" y="104.75999999999999"/>
      <point x="174.619" y="253.709" type="curve" smooth="yes"/>
      <point x="174.619" y="416.66200000000003"/>
      <point x="276.544" y="506.251"/>
      <point x="446.95500000000004" y="506.251" type="curve" smooth="yes"/>
      <point x="520.7729999999999" y="506.251"/>
      <point x="572.8399999999999" y="499.35999999999996"/>
      <point x="652.425" y="479.55299999999994" type="curve"/>
      <point x="659.0020000000001" y="513.971" type="line"/>
      <point x="586.971" y="533.383"/>
      <point x="522.856" y="541.854"/>
      <point x="444.894" y="541.854" type="curve" smooth="yes"/>
      <point x="245.482" y="541.854"/>
      <point x="133.12699999999998" y="434.18499999999995"/>
      <point x="133.12699999999998" y="253.169" type="curve" smooth="yes"/>
      <point x="133.12699999999998" y="81.294"/>
      <point x="232.69099999999997" y="-10.027"/>
    </contour>
    <contour>
      <point x="400.07599999999996" y="-105.027" type="line"/>
      <point x="435.28599999999994" y="-105.027" type="line"/>
      <point x="435.28599999999994" y="-3.0309999999999997" type="line"/>
      <point x="400.07599999999996" y="-2.2279999999999998" type="line"/>
    </contour>
    <contour>
      <point x="400.07599999999996" y="532.749" type="line"/>
      <point x="435.28599999999994" y="535.612" type="line"/>
      <point x="435.28599999999994" y="636.773" type="line"/>
      <point x="400.07599999999996" y="636.773" type="line"/>
    </contour>
  </outline>
</glyph>
<glyph name="sterling" format="2">
  <advance width="804.5059999999999"/>
  <unicode hex="00A3"/>
  <outline>
    <contour>
      <point x="90.52199999999999" y="0.0" type="line"/>
      <point x="746.5539999999999" y="0.0" type="line"/>
      <point x="746.5539999999999" y="35.66" type="line"/>
      <point x="144.14000000000001" y="35.66" type="line"/>
      <point x="238.356" y="113.31"/>
      <point x="278.056" y="164.108"/>
      <point x="278.056" y="236.664" type="curve" smooth="yes"/>
      <point x="278.056" y="341.452"/>
      <point x="188.78799999999998" y="388.76"/>
      <point x="188.78799999999998" y="496.02399999999994" type="curve" smooth="yes"/>
      <point x="188.78799999999998" y="612.71"/>
      <point x="287.422" y="673.3499999999999"/>
      <point x="445.176" y="673.3499999999999" type="curve" smooth="yes"/>
      <point x="515.862" y="673.3499999999999"/>
      <point x="633.42" y="659.636"/>
      <point x="708.3979999999999" y="641.964" type="curve"/>
      <point x="715.5899999999999" y="676.1000000000001" type="line"/>
      <point x="653.816" y="694.2620000000001"/>
      <point x="522.5919999999999" y="710.0"/>
      <point x="442.65599999999995" y="710.0" type="curve" smooth="yes"/>
      <point x="253.278" y="710.0"/>
      <point x="146.28799999999998" y="630.712"/>
      <point x="146.28799999999998" y="501.03000000000003" type="curve" smooth="yes"/>
      <point x="146.28799999999998" y="381.72200000000004"/>
      <point x="237.176" y="335.40000000000003"/>
      <point x="237.176" y="235.156" type="curve" smooth="yes"/>
      <point x="237.176" y="168.49800000000002"/>
      <point x="199.24" y="123.75599999999999"/>
      <point x="90.52199999999999" y="32.51" type="curve"/>
    </contour>
    <contour>
      <point x="83.94" y="355.83000000000004" type="line"/>
      <point x="597.1" y="355.83000000000004" type="line"/>
      <point x="597.1" y="388.97" type="line"/>
      <point x="83.94" y="388.97" type="line"/>
    </contour>
  </outline>
</glyph>
<glyph name="currency" format="2">
  <advance width="453.53"/>
  <unicode hex="00A4"/>
  <outline>
    <contour>
      <point x="46.729" y="448.336" type="line"/>
      <point x="118.911" y="375.154" type="line"/>
      <point x="101.126" y="352.667"/>
      <point x="89.92699999999999" y="323.747"/>
      <point x="89.92699999999999" y="291.06100000000004" type="curve" smooth="yes"/>
      <point x="89.92699999999999" y="258.28499999999997"/>
      <point x="101.126" y="229.248"/>
      <point x="119.911" y="206.734" type="curve"/>
      <point x="46.729" y="133.552" type="line"/>
      <point x="69.828" y="110.453" type="line"/>
      <point x="144.459" y="185.02100000000002" type="line"/>
      <point x="166.451" y="166.641"/>
      <point x="194.93" y="156.631"/>
      <point x="226.202" y="156.631" type="curve" smooth="yes"/>
      <point x="257.546" y="156.631"/>
      <point x="286.91700000000003" y="166.70399999999998"/>
      <point x="309.008" y="185.05700000000002" type="curve"/>
      <point x="383.702" y="110.453" type="line"/>
      <point x="406.801" y="133.552" type="line"/>
      <point x="333.41200000000003" y="206.914" type="line"/>
      <point x="352.098" y="229.41899999999998"/>
      <point x="363.32399999999996" y="258.357"/>
      <point x="363.32399999999996" y="291.06100000000004" type="curve" smooth="yes"/>
      <point x="363.32399999999996" y="323.64799999999997"/>
      <point x="352.161" y="352.49600000000004"/>
      <point x="333.43899999999996" y="374.974" type="curve"/>
      <point x="406.801" y="448.336" type="line"/>
      <point x="383.702" y="471.435" type="line"/>
      <point x="309.116" y="396.849" type="line"/>
      <point x="286.998" y="415.265"/>
      <point x="258.483" y="426.275"/>
      <point x="226.202" y="426.275" type="curve" smooth="yes"/>
      <point x="193.966" y="426.275"/>
      <point x="165.487" y="415.238"/>
      <point x="143.441" y="396.885" type="curve"/>
      <point x="69.828" y="471.435" type="line"/>
    </contour>
    <contour>
      <point x="226.13899999999998" y="186.126" type="curve" smooth="yes"/>
      <point x="167.946" y="186.126"/>
      <point x="121.23100000000001" y="232.778"/>
      <point x="121.23100000000001" y="291.034" type="curve" smooth="yes"/>
      <point x="121.23100000000001" y="349.957"/>
      <point x="167.883" y="396.753"/>
      <point x="226.13899999999998" y="396.753" type="curve" smooth="yes"/>
      <point x="285.305" y="396.753"/>
      <point x="332.02000000000004" y="349.957"/>
      <point x="332.02000000000004" y="291.034" type="curve" smooth="yes"/>
      <point x="332.02000000000004" y="232.778"/>
      <point x="285.24199999999996" y="186.126"/>
    </contour>
  </outline>
</glyph>
<glyph name="yen" format="2">
  <advance width="804.67"/>
  <unicode hex="00A5"/>
  <outline>
    <contour>
      <point x="114.45" y="357.72" type="line"/>
      <point x="386.04999999999995" y="357.72" type="line"/>
      <point x="386.04999999999995" y="215.31" type="line"/>
      <point x="114.45" y="215.31" type="line"/>
      <point x="114.45" y="185.85999999999999" type="line"/>
      <point x="386.04999999999995" y="185.85999999999999" type="line"/>
      <point x="386.04999999999995" y="0.0" type="line"/>
      <point x="429.71999999999997" y="0.0" type="line"/>
      <point x="429.71999999999997" y="185.85999999999999" type="line"/>
      <point x="702.5400000000001" y="185.85999999999999" type="line"/>
      <point x="702.5400000000001" y="215.31" type="line"/>
      <point x="429.71999999999997" y="215.31" type="line"/>
      <point x="429.71999999999997" y="357.72" type="line"/>
      <point x="702.5400000000001" y="357.72" type="line"/>
      <point x="702.5400000000001" y="387.26" type="line"/>
      <point x="429.71999999999997" y="387.26" type="line"/>
      <point x="730.21" y="694.1299999999999" type="line"/>
      <point x="691.1899999999999" y="705.96" type="line"/>
      <point x="407.8399999999999" y="417.24" type="line"/>
      <point x="113.57" y="705.96" type="line"/>
      <point x="74.64" y="694.1299999999999" type="line"/>
      <point x="386.04999999999995" y="387.26" type="line"/>
      <point x="114.45" y="387.26" type="line"/>
    </contour>
  </outline>
</glyph>
<glyph name="brokenbar" format="2">
  <advance width="250.375"/>
  <unicode hex="00A6"/>
  <outline>
    <contour>
      <point x="143.54399999999998" y="391.0" type="line"/>
      <point x="143.54399999999998" y="790.027" type="line"/>
      <point x="106.83099999999999" y="790.027" type="line"/>
      <point x="106.83099999999999" y="391.0" type="line"/>
    </contour>
    <contour>
      <point x="106.83099999999999" y="190.02700000000002" type="line"/>
      <point x="106.83099999999999" y="-210.0" type="line"/>
      <point x="143.54399999999998" y="-210.0" type="line"/>
      <point x="143.54399999999998" y="190.02700000000002" type="line"/>
    </contour>
  </outline>
</glyph>
<glyph name="section" format="2">
  <advance width="591.8919999999999"/>
  <unicode hex="00A7"/>
  <outline>
    <contour>
      <point x="270.56500000000005" y="-220.09" type="curve" smooth="yes"/>
      <point x="437.78999999999996" y="-220.09"/>
      <point x="547.105" y="-113.457"/>
      <point x="547.105" y="44.434000000000005" type="curve" smooth="yes"/>
      <point x="547.105" y="134.987"/>
      <point x="514.481" y="219.98899999999998"/>
      <point x="415.924" y="392.104" type="curve" smooth="yes"/>
      <point x="340.259" y="526.0790000000001"/>
      <point x="319.51300000000003" y="568.343"/>
      <point x="319.51300000000003" y="615.704" type="curve" smooth="yes"/>
      <point x="319.51300000000003" y="672.578"/>
      <point x="358.21299999999997" y="707.8679999999999"/>
      <point x="421.70599999999996" y="707.8679999999999" type="curve" smooth="yes"/>
      <point x="448.02" y="707.8679999999999"/>
      <point x="477.736" y="702.6829999999999"/>
      <point x="520.626" y="688.739" type="curve"/>
      <point x="529.5930000000001" y="722.6059999999999" type="line"/>
      <point x="474.984" y="741.307"/>
      <point x="419.4069999999999" y="749.7540000000001"/>
      <point x="362.952" y="749.7540000000001" type="curve" smooth="yes"/>
      <point x="185.754" y="749.7540000000001"/>
      <point x="73.88" y="643.6610000000001"/>
      <point x="73.195" y="475.242" type="curve" smooth="yes"/>
      <point x="73.285" y="368.64"/>
      <point x="107.01999999999998" y="277.702"/>
      <point x="200.80200000000002" y="127.405" type="curve" smooth="yes"/>
      <point x="260.14" y="25.281999999999993"/>
      <point x="290.01" y="-19.084999999999997"/>
      <point x="290.62899999999996" y="-82.009" type="curve" smooth="yes"/>
      <point x="291.248" y="-133.817"/>
      <point x="249.51899999999998" y="-172.858"/>
      <point x="194.41400000000002" y="-172.858" type="curve" smooth="yes"/>
      <point x="150.751" y="-172.858"/>
      <point x="117.101" y="-158.422"/>
      <point x="57.034000000000006" y="-114.05099999999999" type="curve"/>
      <point x="43.752" y="-145.534" type="line"/>
      <point x="123.13299999999998" y="-201.794"/>
      <point x="179.56799999999998" y="-220.09"/>
    </contour>
    <contour>
      <point x="272.452" y="-192.891" type="curve" smooth="yes"/>
      <point x="235.59799999999998" y="-192.891"/>
      <point x="208.738" y="-190.002"/>
      <point x="184.812" y="-182.827" type="curve"/>
      <point x="201.37399999999997" y="-194.746" type="line"/>
      <point x="271.60599999999994" y="-198.315"/>
      <point x="326.123" y="-147.325"/>
      <point x="326.123" y="-82.345" type="curve" smooth="yes"/>
      <point x="326.123" y="-24.184"/>
      <point x="309.252" y="18.073999999999998"/>
      <point x="231.88500000000002" y="143.43" type="curve" smooth="yes"/>
      <point x="139.728" y="295.63599999999997"/>
      <point x="109.10399999999998" y="376.606"/>
      <point x="109.10399999999998" y="478.437" type="curve" smooth="yes"/>
      <point x="109.10399999999998" y="625.044"/>
      <point x="206.032" y="719.3420000000001"/>
      <point x="352.101" y="719.3420000000001" type="curve" smooth="yes"/>
      <point x="367.16299999999995" y="719.3420000000001"/>
      <point x="381.15799999999996" y="718.273"/>
      <point x="398.164" y="715.529" type="curve"/>
      <point x="391.47700000000003" y="725.6519999999999" type="line"/>
      <point x="324.25" y="724.0279999999999"/>
      <point x="284.247" y="676.347"/>
      <point x="283.53799999999995" y="615.0059999999999" type="curve" smooth="yes"/>
      <point x="283.53799999999995" y="561.1669999999999"/>
      <point x="306.50600000000003" y="511.9689999999999"/>
      <point x="384.415" y="377.09000000000003" type="curve" smooth="yes"/>
      <point x="480.337" y="206.442"/>
      <point x="512.117" y="126.13699999999999"/>
      <point x="512.117" y="41.194" type="curve" smooth="yes"/>
      <point x="512.736" y="-95.61099999999999"/>
      <point x="422.636" y="-192.272"/>
    </contour>
  </outline>
</glyph>
<glyph name="copyright" format="2">
  <advance width="861.334"/>
  <unicode hex="00A9"/>
  <outline>
    <contour>
      <point x="430.72999999999996" y="15.921999999999999" type="curve" smooth="yes"/>
      <point x="240.78899999999996" y="15.921999999999999"/>
      <point x="86.89499999999998" y="96.31599999999999"/>
      <point x="86.89499999999998" y="349.90099999999995" type="curve" smooth="yes"/>
      <point x="86.89499999999998" y="603.885"/>
      <point x="240.91499999999996" y="683.628"/>
      <point x="430.72999999999996" y="683.628" type="curve" smooth="yes"/>
      <point x="620.5" y="683.628"/>
      <point x="774.412" y="603.885"/>
      <point x="774.412" y="349.90099999999995" type="curve" smooth="yes"/>
      <point x="774.412" y="96.31599999999999"/>
      <point x="620.626" y="15.921999999999999"/>
    </contour>
    <contour>
      <point x="430.72999999999996" y="710.0" type="curve" smooth="yes"/>
      <point x="225.422" y="710.0"/>
      <point x="59.56" y="622.792"/>
      <point x="59.56" y="349.90099999999995" type="curve" smooth="yes"/>
      <point x="59.56" y="77.30999999999999"/>
      <point x="225.29599999999996" y="-10.0"/>
      <point x="430.72999999999996" y="-10.0" type="curve" smooth="yes"/>
      <point x="636.038" y="-10.0"/>
      <point x="801.774" y="77.30999999999999"/>
      <point x="801.774" y="349.90099999999995" type="curve" smooth="yes"/>
      <point x="801.774" y="622.792"/>
      <point x="636.0379999999999" y="710.0"/>
    </contour>
    <contour>
      <point x="256.93999999999994" y="335.77000000000004" type="curve" smooth="yes"/>
      <point x="256.93999999999994" y="221.601"/>
      <point x="324.39" y="171.914"/>
      <point x="428.657" y="171.914" type="curve" smooth="yes"/>
      <point x="502.98199999999997" y="171.914"/>
      <point x="560.3129999999999" y="184.06500000000003"/>
      <point x="591.947" y="192.855" type="curve"/>
      <point x="584.8819999999998" y="221.60599999999997" type="line"/>
      <point x="555.194" y="213.718"/>
      <point x="502.05499999999995" y="202.765"/>
      <point x="432.212" y="202.765" type="curve" smooth="yes"/>
      <point x="339.94399999999996" y="202.765"/>
      <point x="291.78099999999995" y="245.1"/>
      <point x="291.78099999999995" y="336.08500000000004" type="curve" smooth="yes"/>
      <point x="291.78099999999995" y="448.348"/>
      <point x="356.628" y="486.078"/>
      <point x="452.89899999999994" y="486.078" type="curve" smooth="yes"/>
      <point x="496.87399999999997" y="486.078"/>
      <point x="529.4519999999999" y="481.78599999999994"/>
      <point x="567.58" y="471.31100000000004" type="curve"/>
      <point x="574.9780000000001" y="500.45799999999997" type="line"/>
      <point x="535.0469999999999" y="512.49"/>
      <point x="497.869" y="517.055"/>
      <point x="450.4869999999999" y="517.055" type="curve" smooth="yes"/>
      <point x="340.806" y="517.055"/>
      <point x="256.93999999999994" y="469.898"/>
    </contour>
  </outline>
</glyph>
<glyph name="ordfeminine" format="2">
  <advance width="433.902"/>
  <unicode hex="00AA"/>
  <outline>
    <contour>
      <point x="60.197" y="273.011" type="line"/>
      <point x="388.546" y="273.011" type="line"/>
      <point x="388.546" y="300.14099999999996" type="line"/>
      <point x="60.197" y="300.14099999999996" type="line"/>
    </contour>
    <component base="a.superior" xOffset="13.551"/>
  </outline>
</glyph>
<glyph name="logicalnot" format="2">
  <advance width="518.336"/>
  <unicode hex="00AC"/>
  <outline>
    <contour>
      <point x="56.784" y="374.892" type="line"/>
      <point x="426.39" y="374.892" type="line"/>
      <point x="426.39" y="175.479" type="line"/>
      <point x="461.825" y="175.479" type="line"/>
      <point x="461.825" y="410.327" type="line"/>
      <point x="56.784" y="410.327" type="line"/>
    </contour>
  </outline>
</glyph>
<glyph name="registered" format="2">
  <advance width="824.9379999999999"/>
  <unicode hex="00AE"/>
  <outline>
    <contour>
      <point x="411.584" y="208.43900000000002" type="curve" smooth="yes"/>
      <point x="607.6809999999999" y="208.43900000000002"/>
      <point x="765.3779999999999" y="290.912"/>
      <point x="765.3779999999999" y="550.5920000000001" type="curve" smooth="yes"/>
      <point x="765.3779999999999" y="809.969"/>
      <point x="607.7889999999999" y="892.835"/>
      <point x="411.584" y="892.835" type="curve" smooth="yes"/>
      <point x="216.774" y="892.835"/>
      <point x="59.56" y="809.969"/>
      <point x="59.56" y="550.5920000000001" type="curve" smooth="yes"/>
      <point x="59.56" y="291.641"/>
      <point x="216.531" y="208.43900000000002"/>
    </contour>
    <contour>
      <point x="411.584" y="233.04600000000002" type="curve" smooth="yes"/>
      <point x="231.015" y="233.04600000000002"/>
      <point x="85.72700000000002" y="309.53900000000004"/>
      <point x="85.72700000000002" y="550.5920000000001" type="curve" smooth="yes"/>
      <point x="85.72700000000002" y="792.0530000000001"/>
      <point x="230.99699999999999" y="867.7420000000001"/>
      <point x="411.584" y="867.7420000000001" type="curve" smooth="yes"/>
      <point x="593.4219999999999" y="867.7420000000001"/>
      <point x="739.439" y="792.0710000000001"/>
      <point x="739.439" y="550.5920000000001" type="curve" smooth="yes"/>
      <point x="739.439" y="309.386"/>
      <point x="593.2869999999999" y="233.04600000000002"/>
    </contour>
    <contour>
      <point x="605.439" y="396.049" type="curve" smooth="yes"/>
      <point x="608.4209999999999" y="396.049"/>
      <point x="610.364" y="396.049"/>
      <point x="613.847" y="396.322" type="curve"/>
      <point x="613.0279999999998" y="425.61499999999995" type="line"/>
      <point x="611.1809999999999" y="425.342"/>
      <point x="609.4359999999999" y="425.342"/>
      <point x="607.5259999999998" y="425.342" type="curve" smooth="yes"/>
      <point x="573.2289999999999" y="425.36899999999997"/>
      <point x="517.5589999999999" y="466.34"/>
      <point x="462.584" y="535.4900000000001" type="curve"/>
      <point x="527.1049999999999" y="543.7180000000001"/>
      <point x="559.901" y="569.278"/>
      <point x="559.901" y="627.0619999999998" type="curve" smooth="yes"/>
      <point x="559.901" y="693.733"/>
      <point x="515.9209999999999" y="714.615"/>
      <point x="393.70700000000005" y="714.615" type="curve" smooth="yes"/>
      <point x="350.799" y="714.615"/>
      <point x="320.354" y="713.8709999999999"/>
      <point x="270.479" y="710.5710000000001" type="curve"/>
      <point x="270.479" y="397.682" type="line"/>
      <point x="302.18699999999995" y="397.682" type="line"/>
      <point x="302.18699999999995" y="530.9580000000001" type="line"/>
      <point x="340.37800000000004" y="530.111"/>
      <point x="368.07300000000004" y="529.138"/>
      <point x="401.039" y="529.138" type="curve" smooth="yes"/>
      <point x="408.296" y="529.138"/>
      <point x="415.48100000000005" y="529.138"/>
      <point x="422.6929999999999" y="529.411" type="curve"/>
      <point x="485.391" y="447.251"/>
      <point x="558.515" y="396.094"/>
    </contour>
    <contour>
      <point x="403.034" y="554.345" type="curve" smooth="yes"/>
      <point x="369.702" y="554.345"/>
      <point x="341.79400000000004" y="555.027"/>
      <point x="302.18699999999995" y="555.9190000000001" type="curve"/>
      <point x="302.18699999999995" y="684.214" type="line"/>
      <point x="343.725" y="686.806"/>
      <point x="353.985" y="687.6529999999999"/>
      <point x="394.745" y="687.6529999999999" type="curve" smooth="yes"/>
      <point x="500.728" y="687.6529999999999"/>
      <point x="527.725" y="671.238"/>
      <point x="527.725" y="624.59" type="curve" smooth="yes"/>
      <point x="527.725" y="565.4899999999999"/>
      <point x="479.216" y="554.345"/>
    </contour>
  </outline>
</glyph>
<glyph name="degree" format="2">
  <advance width="270.37"/>
  <unicode hex="00B0"/>
  <outline>
    <contour>
      <point x="134.338" y="502.90000000000003" type="curve" smooth="yes"/>
      <point x="196.72299999999998" y="502.90000000000003"/>
      <point x="240.13600000000002" y="553.283"/>
      <point x="240.13600000000002" y="613.73" type="curve" smooth="yes"/>
      <point x="240.13600000000002" y="673.61"/>
      <point x="197.389" y="726.38"/>
      <point x="134.338" y="726.38" type="curve" smooth="yes"/>
      <point x="71.161" y="726.38"/>
      <point x="30.234" y="673.61"/>
      <point x="30.234" y="613.73" type="curve" smooth="yes"/>
      <point x="30.234" y="553.283"/>
      <point x="71.953" y="502.90000000000003"/>
    </contour>
    <contour>
      <point x="134.338" y="534.582" type="curve" smooth="yes"/>
      <point x="92.025" y="534.582"/>
      <point x="62.726000000000006" y="569.629"/>
      <point x="62.726000000000006" y="613.703" type="curve" smooth="yes"/>
      <point x="62.726000000000006" y="657.4709999999999"/>
      <point x="91.87200000000001" y="694.464"/>
      <point x="134.338" y="694.464" type="curve" smooth="yes"/>
      <point x="176.67800000000003" y="694.464"/>
      <point x="207.76999999999998" y="657.4709999999999"/>
      <point x="207.76999999999998" y="613.703" type="curve" smooth="yes"/>
      <point x="207.76999999999998" y="569.629"/>
      <point x="176.651" y="534.582"/>
    </contour>
  </outline>
</glyph>
<glyph name="plusminus" format="2">
  <advance width="527.072"/>
  <unicode hex="00B1"/>
  <outline>
    <contour>
      <point x="55.692" y="65.457" type="line"/>
      <point x="471.38000000000005" y="65.457" type="line"/>
      <point x="471.38000000000005" y="100.89200000000001" type="line"/>
      <point x="282.482" y="100.89200000000001" type="line"/>
      <point x="282.482" y="297.154" type="line"/>
      <point x="471.38000000000005" y="297.154" type="line"/>
      <point x="471.38000000000005" y="332.58900000000006" type="line"/>
      <point x="282.482" y="332.58900000000006" type="line"/>
      <point x="282.482" y="525.12" type="line"/>
      <point x="244.52700000000002" y="525.12" type="line"/>
      <point x="244.52700000000002" y="332.58900000000006" type="line"/>
      <point x="55.692" y="332.58900000000006" type="line"/>
      <point x="55.692" y="297.154" type="line"/>
      <point x="244.52700000000002" y="297.154" type="line"/>
      <point x="244.52700000000002" y="100.89200000000001" type="line"/>
      <point x="55.692" y="100.89200000000001" type="line"/>
    </contour>
  </outline>
</glyph>
<glyph name="uni00B2" format="2">
  <advance width="524.2170000000001"/>
  <unicode hex="00B2"/>
  <outline>
    <contour>
      <point x="74.078" y="370.0" type="line"/>
      <point x="453.876" y="370.0" type="line"/>
      <point x="453.876" y="394.892" type="line"/>
      <point x="131.174" y="394.892" type="line"/>
      <point x="342.21299999999997" y="525.817"/>
      <point x="383.411" y="579.477"/>
      <point x="383.411" y="653.639" type="curve" smooth="yes"/>
      <point x="383.411" y="728.291"/>
      <point x="332.15" y="771.9619999999999"/>
      <point x="239.02499999999998" y="771.9619999999999" type="curve" smooth="yes"/>
      <point x="189.13499999999996" y="771.9619999999999"/>
      <point x="131.26299999999998" y="758.996"/>
      <point x="89.208" y="735.345" type="curve"/>
      <point x="99.381" y="711.6419999999999" type="line"/>
      <point x="139.657" y="733.305"/>
      <point x="188.162" y="743.08"/>
      <point x="233.311" y="743.08" type="curve" smooth="yes"/>
      <point x="307.864" y="743.08"/>
      <point x="347.54099999999994" y="707.515"/>
      <point x="347.54099999999994" y="648.4680000000001" type="curve" smooth="yes"/>
      <point x="347.54099999999994" y="579.244"/>
      <point x="291.80899999999997" y="521.649"/>
      <point x="71.348" y="391.911" type="curve"/>
    </contour>
  </outline>
</glyph>
<glyph name="uni00B3" format="2">
  <advance width="492.326"/>
  <unicode hex="00B3"/>
  <outline>
    <contour>
      <point x="29.834999999999997" y="403.18399999999997" type="line"/>
      <point x="87.07699999999998" y="373.168"/>
      <point x="148.21099999999998" y="360.351"/>
      <point x="229.64499999999998" y="360.351" type="curve" smooth="yes"/>
      <point x="364.48299999999995" y="360.351"/>
      <point x="446.251" y="405.83299999999997"/>
      <point x="446.251" y="483.995" type="curve" smooth="yes"/>
      <point x="446.251" y="537.8949999999999"/>
      <point x="402.977" y="571.964"/>
      <point x="324.64699999999993" y="577.768" type="curve"/>
      <point x="381.61" y="585.9910000000001"/>
      <point x="415.42199999999997" y="619.976"/>
      <point x="415.42199999999997" y="668.4169999999999" type="curve" smooth="yes"/>
      <point x="415.42199999999997" y="733.036"/>
      <point x="346.98600000000005" y="772.744"/>
      <point x="227.814" y="772.744" type="curve" smooth="yes"/>
      <point x="148.05700000000002" y="772.744"/>
      <point x="90.638" y="759.7139999999999"/>
      <point x="59.833000000000006" y="749.6289999999999" type="curve"/>
      <point x="66.72699999999999" y="724.972" type="line"/>
      <point x="100.30299999999998" y="733.5970000000001"/>
      <point x="144.027" y="745.612"/>
      <point x="222.032" y="745.612" type="curve" smooth="yes"/>
      <point x="321.422" y="745.612"/>
      <point x="381.80499999999995" y="714.8349999999999"/>
      <point x="381.80499999999995" y="663.185" type="curve" smooth="yes"/>
      <point x="381.80499999999995" y="615.9209999999999"/>
      <point x="338.505" y="586.7410000000001"/>
      <point x="255.95399999999998" y="586.7410000000001" type="curve" smooth="yes"/>
      <point x="143.179" y="586.7410000000001" type="line"/>
      <point x="143.179" y="563.6289999999999" type="line"/>
      <point x="253.09400000000002" y="563.6289999999999" type="line" smooth="yes"/>
      <point x="362.418" y="563.6289999999999"/>
      <point x="411.368" y="538.874"/>
      <point x="411.368" y="485.075" type="curve" smooth="yes"/>
      <point x="411.368" y="422.80799999999994"/>
      <point x="343.25100000000003" y="385.51599999999996"/>
      <point x="227.563" y="385.51599999999996" type="curve" smooth="yes"/>
      <point x="146.44899999999998" y="385.51599999999996"/>
      <point x="90.45400000000001" y="397.931"/>
      <point x="39.58200000000001" y="426.07500000000005" type="curve"/>
    </contour>
  </outline>
</glyph>
<glyph name="uni00B5" format="2">
  <advance width="697.08"/>
  <unicode hex="00B5"/>
  <outline>
    <contour>
      <point x="94.915" y="-210.0" type="line"/>
      <point x="136.49699999999999" y="-210.0" type="line"/>
      <point x="136.49699999999999" y="60.45700000000001" type="line"/>
      <point x="161.182" y="15.378"/>
      <point x="211.12800000000001" y="-9.946"/>
      <point x="285.697" y="-9.946" type="curve" smooth="yes"/>
      <point x="387.144" y="-9.946"/>
      <point x="459.103" y="23.976"/>
      <point x="548.8050000000001" y="71.50500000000001" type="curve"/>
      <point x="558.039" y="13.667"/>
      <point x="594.8629999999999" y="-10.0"/>
      <point x="633.236" y="-10.0" type="curve" smooth="yes"/>
      <point x="650.858" y="-10.0"/>
      <point x="669.176" y="-5.895999999999999"/>
      <point x="686.743" y="1.826" type="curve"/>
      <point x="679.2009999999999" y="30.789" type="line"/>
      <point x="668.816" y="25.96"/>
      <point x="657.475" y="23.413"/>
      <point x="646.699" y="23.413" type="curve" smooth="yes"/>
      <point x="613.925" y="23.413"/>
      <point x="585.27" y="44.808"/>
      <point x="585.27" y="116.95" type="curve" smooth="yes"/>
      <point x="585.27" y="531.8" type="line"/>
      <point x="543.445" y="531.8" type="line"/>
      <point x="543.445" y="102.574" type="line"/>
      <point x="453.962" y="57.205"/>
      <point x="385.312" y="25.230999999999998"/>
      <point x="289.768" y="25.230999999999998" type="curve" smooth="yes"/>
      <point x="187.775" y="25.230999999999998"/>
      <point x="136.767" y="78.247"/>
      <point x="136.767" y="158.77499999999998" type="curve" smooth="yes"/>
      <point x="136.767" y="531.8" type="line"/>
      <point x="94.915" y="531.8" type="line"/>
    </contour>
  </outline>
</glyph>
<glyph name="paragraph" format="2">
  <advance width="679.5929999999998"/>
  <unicode hex="00B6"/>
  <outline>
    <contour>
      <point x="541.8009999999999" y="-210.0" type="line"/>
      <point x="578.163" y="-210.0" type="line"/>
      <point x="578.163" y="740.0" type="line"/>
      <point x="541.8009999999999" y="740.0" type="line"/>
    </contour>
    <contour>
      <point x="289.401" y="215.867" type="line"/>
      <point x="152.13400000000001" y="229.736"/>
      <point x="89.32600000000001" y="315.996"/>
      <point x="89.32600000000001" y="463.63" type="curve" smooth="yes"/>
      <point x="89.32600000000001" y="619.5409999999999"/>
      <point x="171.415" y="701.7810000000001"/>
      <point x="364.657" y="705.057" type="curve"/>
      <point x="364.657" y="-210.0" type="line"/>
      <point x="401.019" y="-210.0" type="line"/>
      <point x="401.019" y="740.0" type="line"/>
      <point x="375.66499999999996" y="740.0" type="line" smooth="yes"/>
      <point x="146.464" y="740.0"/>
      <point x="51.22699999999999" y="641.4209999999999"/>
      <point x="51.22699999999999" y="465.907" type="curve" smooth="yes"/>
      <point x="51.22699999999999" y="299.97600000000006"/>
      <point x="124.69700000000002" y="202.37"/>
      <point x="285.77500000000003" y="185.571" type="curve"/>
    </contour>
  </outline>
</glyph>
<glyph name="periodcentered" format="2">
  <advance width="195.434"/>
  <unicode hex="00B7"/>
  <outline>
    <contour>
      <point x="70.49199999999999" y="289.97" type="curve" smooth="yes"/>
      <point x="70.49199999999999" y="268.48"/>
      <point x="75.756" y="264.06"/>
      <point x="98.00399999999999" y="264.06" type="curve" smooth="yes"/>
      <point x="121.252" y="264.06"/>
      <point x="125.516" y="268.48"/>
      <point x="125.516" y="289.97" type="curve" smooth="yes"/>
      <point x="125.516" y="311.55"/>
      <point x="121.252" y="315.96999999999997"/>
      <point x="98.00399999999999" y="315.96999999999997" type="curve" smooth="yes"/>
      <point x="74.756" y="315.96999999999997"/>
      <point x="70.49199999999999" y="311.55"/>
    </contour>
  </outline>
</glyph>
<glyph name="uni00B9" format="2">
  <advance width="466.904"/>
  <unicode hex="00B9"/>
  <outline>
    <contour>
      <point x="36.165" y="370.0" type="line"/>
      <point x="436.556" y="370.0" type="line"/>
      <point x="436.556" y="395.48" type="line"/>
      <point x="270.917" y="395.48" type="line"/>
      <point x="270.917" y="768.321" type="line"/>
      <point x="252.261" y="768.321" type="line"/>
      <point x="30.296" y="667.928" type="line"/>
      <point x="40.41499999999999" y="641.923" type="line"/>
      <point x="235.53699999999998" y="730.177" type="line"/>
      <point x="235.53699999999998" y="395.48" type="line"/>
      <point x="36.165" y="395.48" type="line"/>
    </contour>
  </outline>
</glyph>
<glyph name="ordmasculine" format="2">
  <advance width="460.716"/>
  <unicode hex="00BA"/>
  <outline>
    <contour>
      <point x="70.099" y="273.648" type="line"/>
      <point x="403.544" y="273.648" type="line"/>
      <point x="403.544" y="300.77799999999996" type="line"/>
      <point x="70.099" y="300.77799999999996" type="line"/>
    </contour>
    <component base="o.superior" xOffset="11.276000000000003"/>
  </outline>
</glyph>
<glyph name="questiondown" format="2">
  <advance width="559.653"/>
  <unicode hex="00BF"/>
  <outline>
    <contour>
      <point x="318.41499999999996" y="269.801" type="line"/>
      <point x="280.271" y="269.801" type="line"/>
      <point x="280.14500000000004" y="201.722" type="line"/>
      <point x="117.20599999999999" y="149.183"/>
      <point x="37.423" y="93.34499999999998"/>
      <point x="37.423" y="-20.85" type="curve" smooth="yes"/>
      <point x="37.423" y="-169.85"/>
      <point x="163.55100000000002" y="-218.533"/>
      <point x="275.909" y="-218.533" type="curve" smooth="yes"/>
      <point x="365.64" y="-218.533"/>
      <point x="465.484" y="-194.641"/>
      <point x="539.228" y="-146.138" type="curve"/>
      <point x="523.66" y="-114.356" type="line"/>
      <point x="450.803" y="-160.69700000000003"/>
      <point x="360.704" y="-181.63400000000001"/>
      <point x="279.90500000000003" y="-181.63400000000001" type="curve" smooth="yes"/>
      <point x="185.71" y="-181.63400000000001"/>
      <point x="80.46600000000001" y="-139.066"/>
      <point x="80.46600000000001" y="-19.551000000000005" type="curve" smooth="yes"/>
      <point x="80.46600000000001" y="65.674"/>
      <point x="140.08" y="129.69899999999998"/>
      <point x="318.964" y="178.65099999999998" type="curve"/>
    </contour>
    <contour>
      <point x="322.669" y="506.592" type="curve" smooth="yes"/>
      <point x="322.669" y="527.983"/>
      <point x="317.012" y="532.403"/>
      <point x="294.965" y="532.403" type="curve" smooth="yes"/>
      <point x="272.06199999999995" y="532.403"/>
      <point x="267.534" y="527.983"/>
      <point x="267.534" y="506.592" type="curve" smooth="yes"/>
      <point x="267.534" y="485.11100000000005"/>
      <point x="272.06199999999995" y="480.69100000000003"/>
      <point x="294.965" y="480.69100000000003" type="curve" smooth="yes"/>
      <point x="318.195" y="480.69100000000003"/>
      <point x="322.669" y="485.11100000000005"/>
    </contour>
  </outline>
</glyph>
<glyph name="AE" format="2">
  <advance width="1229.854"/>
  <unicode hex="00C6"/>
  <anchor x="616.2239999999999" y="700.0" name="top"/>
  <outline>
    <contour>
      <point x="6.124" y="0.0" type="line"/>
      <point x="58.076" y="-0.3360000000000001" type="line"/>
      <point x="303.412" y="302.27200000000005" type="line"/>
      <point x="591.3499999999999" y="302.27200000000005" type="line"/>
      <point x="591.3499999999999" y="0.0" type="line"/>
      <point x="1190.066" y="0.0" type="line"/>
      <point x="1190.066" y="38.18" type="line"/>
      <point x="634.5699999999999" y="38.18" type="line"/>
      <point x="634.5699999999999" y="316.156" type="line"/>
      <point x="1139.722" y="316.156" type="line"/>
      <point x="1139.722" y="353.796" type="line"/>
      <point x="634.5699999999999" y="353.796" type="line"/>
      <point x="634.5699999999999" y="661.82" type="line"/>
      <point x="1166.8200000000002" y="661.82" type="line"/>
      <point x="1166.8200000000002" y="700.0" type="line"/>
      <point x="573.55" y="700.0" type="line"/>
    </contour>
    <contour>
      <point x="330.19599999999997" y="339.03600000000006" type="line"/>
      <point x="591.2600000000001" y="663.1679999999999" type="line"/>
      <point x="591.2600000000001" y="339.03600000000006" type="line"/>
    </contour>
  </outline>
</glyph>
<glyph name="multiply" format="2">
  <advance width="506.576"/>
  <unicode hex="00D7"/>
  <outline>
    <contour>
      <point x="89.162" y="78.59499999999998" type="line"/>
      <point x="253.652" y="265.303" type="line"/>
      <point x="416.777" y="80.77900000000001" type="line"/>
      <point x="441.787" y="105.285" type="line"/>
      <point x="279.166" y="291.32099999999997" type="line"/>
      <point x="442.788" y="479.24" type="line"/>
      <point x="417.77799999999996" y="503.746" type="line"/>
      <point x="253.652" y="317.61199999999997" type="line"/>
      <point x="88.52499999999999" y="505.02" type="line"/>
      <point x="63.515" y="480.514" type="line"/>
      <point x="228.348" y="291.32099999999997" type="line"/>
      <point x="64.152" y="103.10099999999998" type="line"/>
    </contour>
  </outline>
</glyph>
<glyph name="Oslash" format="2">
  <advance width="966.2199999999999"/>
  <unicode hex="00D8"/>
  <anchor x="480.8349999999999" y="700.0" name="top"/>
  <outline>
    <contour>
      <point x="116.63" y="-10.629999999999999" type="line"/>
      <point x="213.68999999999997" y="76.66" type="line"/>
      <point x="214.27499999999998" y="76.25500000000001" type="line"/>
      <point x="780.1899999999999" y="602.345" type="line"/>
      <point x="780.775" y="601.985" type="line"/>
      <point x="896.27" y="710.9" type="line"/>
      <point x="847.135" y="710.9" type="line"/>
      <point x="753.67" y="625.265" type="line"/>
      <point x="752.6749999999998" y="625.2600000000001" type="line"/>
      <point x="186.98499999999999" y="100.56" type="line"/>
      <point x="186.48999999999998" y="100.74000000000001" type="line"/>
      <point x="68.13" y="-10.629999999999999" type="line"/>
    </contour>
    <contour>
      <point x="480.87999999999994" y="24.125" type="curve" smooth="yes"/>
      <point x="307.63499999999993" y="24.125"/>
      <point x="110.9" y="89.55000000000001"/>
      <point x="110.9" y="349.67999999999995" type="curve" smooth="yes"/>
      <point x="110.9" y="618.275"/>
      <point x="307.5899999999999" y="675.875"/>
      <point x="480.87999999999994" y="675.875" type="curve" smooth="yes"/>
      <point x="654.855" y="675.875"/>
      <point x="852.5899999999999" y="619.095"/>
      <point x="852.5899999999999" y="349.68" type="curve" smooth="yes"/>
      <point x="852.5899999999999" y="80.63"/>
      <point x="654.855" y="24.125"/>
    </contour>
    <contour>
      <point x="480.92499999999995" y="-10.0" type="curve" smooth="yes"/>
      <point x="687.8299999999998" y="-10.0"/>
      <point x="896.3149999999999" y="56.635"/>
      <point x="896.3149999999999" y="353.09000000000003" type="curve" smooth="yes"/>
      <point x="896.3149999999999" y="642.9599999999999"/>
      <point x="681.58" y="710.0"/>
      <point x="480.87999999999994" y="710.0" type="curve" smooth="yes"/>
      <point x="277.77000000000004" y="710.0"/>
      <point x="68.08500000000001" y="640.64"/>
      <point x="68.08500000000001" y="349.815" type="curve" smooth="yes"/>
      <point x="68.08500000000001" y="67.50999999999999"/>
      <point x="279.21" y="-10.0"/>
    </contour>
  </outline>
</glyph>
<glyph name="Thorn" format="2">
  <advance width="819.277"/>
  <unicode hex="00DE"/>
  <outline>
    <contour>
      <point x="107.512" y="0.0" type="line"/>
      <point x="150.624" y="0.0" type="line"/>
      <point x="150.624" y="167.344" type="line"/>
      <point x="267.44699999999995" y="164.163"/>
      <point x="321.637" y="163.52599999999998"/>
      <point x="417.445" y="163.52599999999998" type="curve" smooth="yes"/>
      <point x="667.461" y="163.52599999999998"/>
      <point x="762.3070000000001" y="220.292"/>
      <point x="762.3070000000001" y="399.666" type="curve" smooth="yes"/>
      <point x="762.3070000000001" y="560.19"/>
      <point x="692.914" y="622.799"/>
      <point x="395.65199999999993" y="622.799" type="curve" smooth="yes"/>
      <point x="350.02299999999997" y="622.799"/>
      <point x="289.42199999999997" y="621.1890000000001"/>
      <point x="150.65099999999998" y="615.484" type="curve"/>
      <point x="150.65099999999998" y="700.0" type="line"/>
      <point x="107.512" y="700.0" type="line"/>
    </contour>
    <contour>
      <point x="407.944" y="199.555" type="curve" smooth="yes"/>
      <point x="308.432" y="199.555"/>
      <point x="256.251" y="201.529"/>
      <point x="150.65099999999998" y="204.019" type="curve"/>
      <point x="150.65099999999998" y="579.899" type="line"/>
      <point x="293.594" y="586.147"/>
      <point x="347.12699999999995" y="587.6940000000001"/>
      <point x="397.95" y="587.6940000000001" type="curve" smooth="yes"/>
      <point x="656.328" y="587.6940000000001"/>
      <point x="718.754" y="533.893"/>
      <point x="718.754" y="399.108" type="curve" smooth="yes"/>
      <point x="718.754" y="253.43200000000002"/>
      <point x="649.4490000000001" y="199.555"/>
    </contour>
  </outline>
</glyph>
<glyph name="germandbls" format="2">
  <advance width="761.3140000000001"/>
  <unicode hex="00DF"/>
  <outline>
    <contour>
      <point x="145.194" y="0.0" type="line"/>
      <point x="186.992" y="0.0" type="line"/>
      <point x="186.992" y="500.32200000000006" type="line" smooth="yes"/>
      <point x="186.992" y="642.8919999999999"/>
      <point x="266.89" y="716.244"/>
      <point x="430.77" y="716.244" type="curve" smooth="yes"/>
      <point x="564.3319999999999" y="716.244"/>
      <point x="608.74" y="694.1080000000001"/>
      <point x="608.74" y="629.396" type="curve" smooth="yes"/>
      <point x="608.74" y="578.4459999999999"/>
      <point x="571.728" y="557.5840000000001"/>
      <point x="470.232" y="531.0780000000001" type="curve" smooth="yes"/>
      <point x="362.20199999999994" y="504.938"/>
      <point x="317.18399999999997" y="468.864"/>
      <point x="317.18399999999997" y="400.248" type="curve" smooth="yes"/>
      <point x="317.18399999999997" y="322.07599999999996"/>
      <point x="369.338" y="284.482"/>
      <point x="532.37" y="252.99" type="curve" smooth="yes"/>
      <point x="675.012" y="223.87"/>
      <point x="715.838" y="197.376"/>
      <point x="715.838" y="132.55999999999997" type="curve" smooth="yes"/>
      <point x="715.838" y="62.693999999999996"/>
      <point x="630.9860000000001" y="22.982000000000003"/>
      <point x="522.6039999999999" y="22.982000000000003" type="curve" smooth="yes"/>
      <point x="447.018" y="22.982000000000003"/>
      <point x="350.644" y="39.338"/>
      <point x="275.06199999999995" y="63.581999999999994" type="curve"/>
      <point x="266.24399999999997" y="30.758" type="line"/>
      <point x="344.036" y="5.171999999999999"/>
      <point x="441.78999999999996" y="-10.5"/>
      <point x="521.506" y="-10.5" type="curve" smooth="yes"/>
      <point x="652.1939999999998" y="-10.5"/>
      <point x="755.8719999999998" y="39.199999999999996"/>
      <point x="755.8719999999998" y="134.396" type="curve" smooth="yes"/>
      <point x="755.8719999999998" y="216.88400000000001"/>
      <point x="703.4499999999999" y="256.248"/>
      <point x="546.066" y="286.758" type="curve" smooth="yes"/>
      <point x="403.5919999999999" y="314.522"/>
      <point x="356.11999999999995" y="342.012"/>
      <point x="356.11999999999995" y="401.76" type="curve" smooth="yes"/>
      <point x="356.11999999999995" y="455.904"/>
      <point x="397.08599999999996" y="480.16"/>
      <point x="483.766" y="501.91799999999995" type="curve" smooth="yes"/>
      <point x="599.3159999999999" y="531.828"/>
      <point x="648.6659999999999" y="560.634"/>
      <point x="648.6659999999999" y="629.23" type="curve" smooth="yes"/>
      <point x="648.6659999999999" y="714.3100000000001"/>
      <point x="580.78" y="750.0"/>
      <point x="431.29799999999994" y="750.0" type="curve" smooth="yes"/>
      <point x="240.10399999999998" y="750.0"/>
      <point x="146.81599999999997" y="669.702"/>
      <point x="145.194" y="512.464" type="curve" smooth="yes"/>
      <point x="145.194" y="485.188" type="line"/>
      <point x="32.94799999999999" y="478.75199999999995" type="line"/>
      <point x="32.94799999999999" y="451.724" type="line"/>
      <point x="145.194" y="451.724" type="line"/>
    </contour>
  </outline>
</glyph>
<glyph name="ae" format="2">
  <advance width="1085.67"/>
  <unicode hex="00E6"/>
  <anchor x="557.41" y="531.8" name="top"/>
  <outline>
    <contour>
      <point x="209.34999999999997" y="-10.0" type="curve" smooth="yes"/>
      <point x="327.55999999999995" y="-10.0"/>
      <point x="428.03999999999996" y="41.54"/>
      <point x="520.0499999999998" y="119.9" type="curve"/>
      <point x="521.1399999999999" y="119.9" type="line"/>
      <point x="559.61" y="34.07999999999999"/>
      <point x="645.1099999999999" y="-10.0"/>
      <point x="774.6899999999999" y="-10.0" type="curve" smooth="yes"/>
      <point x="893.9699999999998" y="-10.0"/>
      <point x="966.9999999999999" y="5.049999999999999"/>
      <point x="1027.96" y="21.36" type="curve"/>
      <point x="1021.62" y="54.99" type="line"/>
      <point x="963.7399999999999" y="40.72"/>
      <point x="887.67" y="24.849999999999998"/>
      <point x="777.26" y="24.849999999999998" type="curve" smooth="yes"/>
      <point x="627.8399999999999" y="24.849999999999998"/>
      <point x="541.7299999999999" y="90.32000000000001"/>
      <point x="539.78" y="245.90999999999997" type="curve" smooth="yes"/>
      <point x="539.5999999999999" y="255.19"/>
      <point x="539.5999999999999" y="262.56"/>
      <point x="541.01" y="274.47999999999996" type="curve"/>
      <point x="799.9600000000002" y="275.02"/>
      <point x="976.4599999999998" y="291.39000000000004"/>
      <point x="1034.7899999999997" y="295.48" type="curve"/>
      <point x="1035.29" y="300.83000000000004"/>
      <point x="1035.88" y="307.13"/>
      <point x="1035.88" y="318.62" type="curve" smooth="yes"/>
      <point x="1035.88" y="466.26000000000005"/>
      <point x="942.02" y="541.8"/>
      <point x="780.4399999999999" y="541.8" type="curve" smooth="yes"/>
      <point x="660.69" y="541.8"/>
      <point x="564.4099999999999" y="493.68000000000006"/>
      <point x="529.2900000000001" y="390.91999999999996" type="curve"/>
      <point x="528.29" y="390.91999999999996" type="line"/>
      <point x="523.8599999999999" y="488.21"/>
      <point x="448.65" y="541.8"/>
      <point x="312.81" y="541.8" type="curve" smooth="yes"/>
      <point x="250.32999999999996" y="541.8"/>
      <point x="175.9" y="531.1199999999999"/>
      <point x="99.90999999999998" y="510.93999999999994" type="curve"/>
      <point x="107.02" y="477.04" type="line"/>
      <point x="183.02999999999997" y="497.18"/>
      <point x="254.46" y="506.77"/>
      <point x="312.41999999999996" y="506.77" type="curve" smooth="yes"/>
      <point x="435.38" y="506.77"/>
      <point x="499.19" y="458.23"/>
      <point x="499.19" y="370.98" type="curve" smooth="yes"/>
      <point x="499.19" y="302.64000000000004" type="line"/>
      <point x="164.54999999999995" y="284.49"/>
      <point x="55.08" y="251.0"/>
      <point x="55.08" y="120.82" type="curve" smooth="yes"/>
      <point x="55.08" y="35.3"/>
      <point x="112.11" y="-10.0"/>
    </contour>
    <contour>
      <point x="218.71" y="21.74" type="curve" smooth="yes"/>
      <point x="142.51999999999998" y="21.74"/>
      <point x="97.57999999999998" y="57.68000000000001"/>
      <point x="97.57999999999998" y="126.09" type="curve" smooth="yes"/>
      <point x="97.57999999999998" y="231.16000000000003"/>
      <point x="207.31" y="259.27"/>
      <point x="497.86999999999995" y="273.69" type="curve"/>
      <point x="497.46" y="265.78000000000003"/>
      <point x="497.46" y="258.18999999999994"/>
      <point x="497.46" y="244.73" type="curve" smooth="yes"/>
      <point x="497.46" y="205.60999999999999"/>
      <point x="500.59999999999997" y="174.68"/>
      <point x="507.96999999999997" y="149.61999999999998" type="curve"/>
      <point x="433.0" y="76.06"/>
      <point x="319.65" y="21.74"/>
    </contour>
    <contour>
      <point x="542.8299999999999" y="304.24000000000007" type="curve"/>
      <point x="555.06" y="451.07"/>
      <point x="653.4099999999999" y="509.16"/>
      <point x="778.0899999999998" y="509.16" type="curve" smooth="yes"/>
      <point x="912.5099999999999" y="509.16"/>
      <point x="991.7999999999998" y="442.46999999999997"/>
      <point x="992.8799999999999" y="321.89" type="curve"/>
      <point x="951.26" y="318.48"/>
      <point x="781.7199999999999" y="304.24"/>
    </contour>
  </outline>
</glyph>
<glyph name="eth" format="2">
  <advance width="709.88"/>
  <unicode hex="00F0"/>
  <outline>
    <contour>
      <point x="618.1600000000001" y="425.53" type="curve"/>
      <point x="619.02" y="457.09" type="line"/>
      <point x="552.24" y="507.12"/>
      <point x="467.84" y="525.5799999999999"/>
      <point x="367.72999999999996" y="525.5799999999999" type="curve" smooth="yes"/>
      <point x="157.95999999999998" y="525.5799999999999"/>
      <point x="56.89999999999999" y="434.64"/>
      <point x="56.89999999999999" y="258.56" type="curve" smooth="yes"/>
      <point x="56.89999999999999" y="74.22"/>
      <point x="153.89000000000001" y="-10.0"/>
      <point x="338.71999999999997" y="-10.0" type="curve" smooth="yes"/>
      <point x="558.04" y="-10.0"/>
      <point x="653.98" y="90.22000000000001"/>
      <point x="653.98" y="343.74" type="curve" smooth="yes"/>
      <point x="653.98" y="592.6999999999999"/>
      <point x="531.2499999999999" y="714.77"/>
      <point x="294.23999999999995" y="714.77" type="curve" smooth="yes"/>
      <point x="219.14999999999998" y="714.77"/>
      <point x="158.45" y="707.59"/>
      <point x="75.05" y="688.68" type="curve"/>
      <point x="79.99" y="658.3900000000001" type="line"/>
      <point x="156.16" y="675.03"/>
      <point x="215.26999999999995" y="683.94"/>
      <point x="287.29" y="683.94" type="curve" smooth="yes"/>
      <point x="503.35" y="683.94"/>
      <point x="612.8299999999999" y="580.46"/>
      <point x="612.8299999999999" y="341.79" type="curve" smooth="yes"/>
      <point x="612.8299999999999" y="112.87"/>
      <point x="529.9499999999999" y="23.54"/>
      <point x="341.6899999999999" y="23.54" type="curve" smooth="yes"/>
      <point x="183.13999999999996" y="23.54"/>
      <point x="99.4" y="96.68"/>
      <point x="99.4" y="260.19000000000005" type="curve" smooth="yes"/>
      <point x="99.4" y="418.65999999999997"/>
      <point x="195.48" y="494.39"/>
      <point x="369.67999999999995" y="494.39" type="curve" smooth="yes"/>
      <point x="469.46" y="494.39"/>
      <point x="544.7099999999998" y="475.97999999999996"/>
    </contour>
    <contour>
      <point x="197.64999999999995" y="561.03" type="line"/>
      <point x="475.74999999999994" y="658.7" type="line"/>
      <point x="478.34999999999997" y="661.7399999999999" type="line"/>
      <point x="647.91" y="723.8599999999999" type="line"/>
      <point x="578.7199999999999" y="723.8599999999999" type="line"/>
      <point x="445.34999999999997" y="675.38" type="line"/>
      <point x="447.15999999999997" y="673.9300000000001" type="line"/>
      <point x="128.37000000000003" y="561.03" type="line"/>
    </contour>
  </outline>
</glyph>
<glyph name="divide" format="2">
  <advance width="518.39"/>
  <unicode hex="00F7"/>
  <outline>
    <contour>
      <point x="234.24799999999996" y="94.18599999999999" type="curve" smooth="yes"/>
      <point x="234.24799999999996" y="74.31599999999999"/>
      <point x="238.636" y="70.79599999999999"/>
      <point x="259.24" y="70.79599999999999" type="curve" smooth="yes"/>
      <point x="280.598" y="70.79599999999999"/>
      <point x="284.23199999999997" y="74.31599999999999"/>
      <point x="284.23199999999997" y="94.18599999999999" type="curve" smooth="yes"/>
      <point x="284.23199999999997" y="113.966"/>
      <point x="280.352" y="117.666"/>
      <point x="259.24" y="117.666" type="curve" smooth="yes"/>
      <point x="237.882" y="117.666"/>
      <point x="234.24799999999996" y="113.966"/>
    </contour>
    <contour>
      <point x="234.24799999999996" y="489.844" type="curve" smooth="yes"/>
      <point x="234.24799999999996" y="470.154"/>
      <point x="238.882" y="466.454"/>
      <point x="259.24" y="466.454" type="curve" smooth="yes"/>
      <point x="280.598" y="466.454"/>
      <point x="284.23199999999997" y="470.154"/>
      <point x="284.23199999999997" y="489.844" type="curve" smooth="yes"/>
      <point x="284.23199999999997" y="509.804"/>
      <point x="280.598" y="513.414"/>
      <point x="259.24" y="513.414" type="curve" smooth="yes"/>
      <point x="237.882" y="513.414"/>
      <point x="234.24799999999996" y="509.804"/>
    </contour>
    <contour>
      <point x="55.745999999999995" y="274.32000000000005" type="line"/>
      <point x="462.734" y="274.32000000000005" type="line"/>
      <point x="462.734" y="309.79999999999995" type="line"/>
      <point x="55.745999999999995" y="309.79999999999995" type="line"/>
    </contour>
  </outline>
</glyph>
<glyph name="oslash" format="2">
  <advance width="718.6499999999999"/>
  <unicode hex="00F8"/>
  <anchor x="359.0299999999999" y="531.8" name="top"/>
  <outline>
    <contour>
      <point x="359.0299999999999" y="-10.0" type="curve" smooth="yes"/>
      <point x="148.29999999999998" y="-10.0"/>
      <point x="57.080000000000005" y="74.34"/>
      <point x="57.080000000000005" y="267.40000000000003" type="curve" smooth="yes"/>
      <point x="57.080000000000005" y="451.05"/>
      <point x="136.12" y="541.8"/>
      <point x="359.0299999999999" y="541.8" type="curve" smooth="yes"/>
      <point x="582.17" y="541.8"/>
      <point x="661.3899999999999" y="451.05"/>
      <point x="661.3899999999999" y="267.40000000000003" type="curve" smooth="yes"/>
      <point x="661.3899999999999" y="74.34"/>
      <point x="570.17" y="-10.0"/>
    </contour>
    <contour>
      <point x="359.03000000000003" y="22.28" type="curve" smooth="yes"/>
      <point x="543.7399999999999" y="22.28"/>
      <point x="619.7" y="98.73"/>
      <point x="619.7" y="267.40000000000003" type="curve" smooth="yes"/>
      <point x="619.7" y="428.84"/>
      <point x="555.02" y="509.52000000000004"/>
      <point x="359.03000000000003" y="509.52000000000004" type="curve" smooth="yes"/>
      <point x="163.36" y="509.52000000000004"/>
      <point x="98.67999999999999" y="428.84"/>
      <point x="98.67999999999999" y="267.40000000000003" type="curve" smooth="yes"/>
      <point x="98.67999999999999" y="98.73"/>
      <point x="174.64" y="22.28"/>
    </contour>
    <contour>
      <point x="56.67" y="-9.729999999999999" type="line"/>
      <point x="142.11" y="74.28999999999999" type="line"/>
      <point x="142.60999999999996" y="74.2" type="line"/>
      <point x="555.09" y="481.72" type="line"/>
      <point x="555.5899999999998" y="481.63" type="line"/>
      <point x="617.7700000000001" y="541.8" type="line"/>
      <point x="661.7999999999998" y="541.8" type="line"/>
      <point x="578.09" y="459.33000000000004" type="line"/>
      <point x="577.5899999999999" y="459.42" type="line"/>
      <point x="164.06" y="51.62" type="line"/>
      <point x="163.55999999999997" y="51.71" type="line"/>
      <point x="100.34" y="-9.729999999999999" type="line"/>
    </contour>
  </outline>
</glyph>
<glyph name="thorn" format="2">
  <advance width="688.077"/>
  <unicode hex="00FE"/>
  <outline>
    <contour>
      <point x="94.915" y="-210.0" type="line"/>
      <point x="136.749" y="-210.0" type="line"/>
      <point x="136.749" y="8.934999999999999" type="line"/>
      <point x="197.856" y="-3.6580000000000004"/>
      <point x="262.366" y="-10.0"/>
      <point x="317.712" y="-10.0" type="curve" smooth="yes"/>
      <point x="535.073" y="-10.0"/>
      <point x="630.925" y="73.498"/>
      <point x="630.925" y="269.668" type="curve" smooth="yes"/>
      <point x="630.925" y="445.246"/>
      <point x="527.76" y="541.8"/>
      <point x="339.313" y="541.8" type="curve" smooth="yes"/>
      <point x="274.75199999999995" y="541.8"/>
      <point x="205.672" y="531.927"/>
      <point x="136.803" y="514.756" type="curve"/>
      <point x="136.803" y="740.0" type="line"/>
      <point x="94.915" y="740.0" type="line"/>
    </contour>
    <contour>
      <point x="316.64399999999995" y="22.089" type="curve" smooth="yes"/>
      <point x="267.541" y="22.089"/>
      <point x="208.212" y="28.71"/>
      <point x="136.767" y="43.135000000000005" type="curve"/>
      <point x="136.767" y="481.132" type="line"/>
      <point x="203.221" y="498.481"/>
      <point x="269.034" y="506.837"/>
      <point x="323.769" y="506.837" type="curve" smooth="yes"/>
      <point x="498.44899999999996" y="506.837"/>
      <point x="588.551" y="425.417"/>
      <point x="588.551" y="268.21900000000005" type="curve" smooth="yes"/>
      <point x="588.551" y="92.68499999999999"/>
      <point x="506.28200000000004" y="22.089"/>
    </contour>
  </outline>
</glyph>
<glyph name="Dcroat" format="2">
  <advance width="898.182"/>
  <unicode hex="0110"/>
  <outline>
    <contour>
      <point x="-1.7000000000000004" y="342.17" type="line"/>
      <point x="336.076" y="342.17" type="line"/>
      <point x="336.076" y="376.48" type="line"/>
      <point x="-1.7000000000000004" y="376.48" type="line"/>
    </contour>
    <component base="D" xOffset="2.3520000000000008"/>
  </outline>
</glyph>
<glyph name="dcroat" format="2">
  <advance width="689.13"/>
  <unicode hex="0111"/>
  <outline>
    <contour>
      <point x="337.214" y="615.57" type="line"/>
      <point x="699.352" y="615.57" type="line"/>
      <point x="699.352" y="643.3800000000001" type="line"/>
      <point x="337.214" y="643.3800000000001" type="line"/>
    </contour>
    <component base="d"/>
  </outline>
</glyph>
<glyph name="Hbar" format="2">
  <advance width="925.429"/>
  <unicode hex="0126"/>
  <outline>
    <contour>
      <point x="31.860000000000003" y="499.745" type="line"/>
      <point x="107.575" y="499.745" type="line"/>
      <point x="107.575" y="0.0" type="line"/>
      <point x="150.66" y="0.0" type="line"/>
      <point x="150.66" y="283.685" type="line"/>
      <point x="775.3989999999999" y="283.685" type="line"/>
      <point x="775.3989999999999" y="0.0" type="line"/>
      <point x="817.8539999999999" y="0.0" type="line"/>
      <point x="817.8539999999999" y="499.745" type="line"/>
      <point x="893.5689999999998" y="499.745" type="line"/>
      <point x="893.5689999999998" y="531.553" type="line"/>
      <point x="817.8539999999999" y="531.553" type="line"/>
      <point x="817.8539999999999" y="700.0" type="line"/>
      <point x="775.3989999999999" y="700.0" type="line"/>
      <point x="775.3989999999999" y="531.553" type="line"/>
      <point x="150.66" y="531.553" type="line"/>
      <point x="150.66" y="700.0" type="line"/>
      <point x="107.575" y="700.0" type="line"/>
      <point x="107.575" y="531.553" type="line"/>
      <point x="31.860000000000003" y="531.553" type="line"/>
    </contour>
    <contour>
      <point x="150.66" y="321.727" type="line"/>
      <point x="150.66" y="499.745" type="line"/>
      <point x="775.3989999999999" y="499.745" type="line"/>
      <point x="775.3989999999999" y="321.727" type="line"/>
    </contour>
  </outline>
</glyph>
<glyph name="hbar" format="2">
  <advance width="707.603"/>
  <unicode hex="0127"/>
  <outline>
    <contour>
      <point x="-9.975999999999999" y="615.5250000000001" type="line"/>
      <point x="389.887" y="615.5250000000001" type="line"/>
      <point x="389.887" y="642.2550000000001" type="line"/>
      <point x="-9.975999999999999" y="642.2550000000001" type="line"/>
    </contour>
    <component base="h"/>
  </outline>
</glyph>
<glyph name="Idotaccent" format="2">
  <advance width="258.109"/>
  <unicode hex="0130"/>
  <outline>
    <contour>
      <point x="129.095" y="818.253" type="curve" smooth="yes"/>
      <point x="153.027" y="818.253"/>
      <point x="157.732" y="822.556"/>
      <point x="157.732" y="843.623" type="curve" smooth="yes"/>
      <point x="157.732" y="864.744"/>
      <point x="152.97299999999998" y="869.02"/>
      <point x="129.095" y="869.02" type="curve" smooth="yes"/>
      <point x="105.19" y="869.02"/>
      <point x="100.43099999999998" y="864.744"/>
      <point x="100.43099999999998" y="843.623" type="curve" smooth="yes"/>
      <point x="100.43099999999998" y="822.529"/>
      <point x="106.1" y="818.253"/>
    </contour>
    <component base="I"/>
  </outline>
</glyph>
<glyph name="dotlessi" format="2">
  <advance width="231.736"/>
  <unicode hex="0131"/>
  <anchor x="134.186" y="0.8999999999999999" name="ogonek"/>
  <anchor x="115.922" y="0.0" name="bottom"/>
  <anchor x="115.868" y="531.8" name="top"/>
  <outline>
    <contour>
      <point x="94.915" y="0.0" type="line"/>
      <point x="136.821" y="0.0" type="line"/>
      <point x="136.821" y="531.8" type="line"/>
      <point x="94.915" y="531.8" type="line"/>
    </contour>
  </outline>
</glyph>
<glyph name="kgreenlandic" format="2">
  <advance width="642.2699999999999"/>
  <unicode hex="0138"/>
  <anchor x="323.46" y="531.8" name="top"/>
  <anchor x="323.46" y="0.0" name="bottom"/>
  <outline>
    <contour>
      <point x="615.19" y="-9.09" type="curve" smooth="yes"/>
      <point x="621.58" y="-9.09"/>
      <point x="628.71" y="-8.18"/>
      <point x="634.4300000000001" y="-7.09" type="curve"/>
      <point x="631.2" y="33.25000000000001" type="line"/>
      <point x="625.8399999999999" y="32.339999999999996"/>
      <point x="620.57" y="31.84"/>
      <point x="617.53" y="31.84" type="curve" smooth="yes"/>
      <point x="578.8999999999999" y="31.84"/>
      <point x="526.12" y="62.21999999999999"/>
      <point x="383.12999999999994" y="177.21999999999997" type="curve" smooth="yes"/>
      <point x="135.83999999999997" y="376.71" type="line"/>
      <point x="135.83999999999997" y="531.8" type="line"/>
      <point x="94.87" y="531.8" type="line"/>
      <point x="94.87" y="0.0" type="line"/>
      <point x="135.83999999999997" y="0.0" type="line"/>
      <point x="135.83999999999997" y="327.34999999999997" type="line"/>
      <point x="375.79999999999995" y="134.11" type="line" smooth="yes"/>
      <point x="542.73" y="-0.05000000000000021"/>
      <point x="574.4799999999999" y="-9.09"/>
    </contour>
    <contour>
      <point x="263.21999999999997" y="254.78000000000003" type="line"/>
      <point x="368.92" y="316.23"/>
      <point x="522.17" y="400.15"/>
      <point x="586.7900000000001" y="528.8" type="curve"/>
      <point x="546.2599999999999" y="539.21" type="line"/>
      <point x="484.48999999999995" y="416.25"/>
      <point x="343.13" y="339.91999999999996"/>
      <point x="226.15999999999997" y="272.42" type="curve"/>
    </contour>
  </outline>
</glyph>
<glyph name="Ldot" format="2">
  <advance width="680.51"/>
  <unicode hex="013F"/>
  <outline>
    <contour>
      <point x="437.75199999999995" y="371.99699999999996" type="curve" smooth="yes"/>
      <point x="437.75199999999995" y="351.36199999999997"/>
      <point x="442.61999999999995" y="347.32"/>
      <point x="464.265" y="347.32" type="curve" smooth="yes"/>
      <point x="486.847" y="347.32"/>
      <point x="490.80499999999995" y="351.36199999999997"/>
      <point x="490.80499999999995" y="371.99699999999996" type="curve" smooth="yes"/>
      <point x="490.80499999999995" y="392.722"/>
      <point x="486.847" y="396.76399999999995"/>
      <point x="464.265" y="396.76399999999995" type="curve" smooth="yes"/>
      <point x="441.7099999999999" y="396.76399999999995"/>
      <point x="437.75199999999995" y="392.722"/>
    </contour>
    <component base="L"/>
  </outline>
</glyph>
<glyph name="ldot" format="2">
  <advance width="310.14500000000004"/>
  <unicode hex="0140"/>
  <outline>
    <contour>
      <point x="277.39" y="338.697" type="curve" smooth="yes"/>
      <point x="296.12" y="338.697"/>
      <point x="298.791" y="341.92900000000003"/>
      <point x="298.791" y="361.286" type="curve" smooth="yes"/>
      <point x="298.791" y="380.67"/>
      <point x="296.12" y="383.902"/>
      <point x="277.39" y="383.902" type="curve" smooth="yes"/>
      <point x="258.687" y="383.902"/>
      <point x="256.01599999999996" y="380.67"/>
      <point x="256.01599999999996" y="361.286" type="curve" smooth="yes"/>
      <point x="256.01599999999996" y="341.92900000000003"/>
      <point x="259.597" y="338.697"/>
    </contour>
    <component base="l"/>
  </outline>
</glyph>
<glyph name="Lslash" format="2">
  <advance width="687.521"/>
  <unicode hex="0141"/>
  <outline>
    <contour>
      <point x="23.15" y="185.62499999999997" type="line"/>
      <point x="114.52300000000001" y="242.84499999999997" type="line"/>
      <point x="114.52300000000001" y="0.0" type="line"/>
      <point x="665.481" y="0.0" type="line"/>
      <point x="665.481" y="37.85300000000001" type="line"/>
      <point x="157.635" y="37.85300000000001" type="line"/>
      <point x="157.635" y="265.791" type="line"/>
      <point x="445.789" y="443.72499999999997" type="line"/>
      <point x="445.789" y="485.173" type="line"/>
      <point x="157.635" y="307.51199999999994" type="line"/>
      <point x="157.635" y="700.0" type="line"/>
      <point x="114.52300000000001" y="700.0" type="line"/>
      <point x="114.52300000000001" y="284.566" type="line"/>
      <point x="23.15" y="227.346" type="line"/>
    </contour>
  </outline>
</glyph>
<glyph name="lslash" format="2">
  <advance width="307.49899999999997"/>
  <unicode hex="0142"/>
  <outline>
    <contour>
      <point x="221.892" y="-10.0" type="curve" smooth="yes"/>
      <point x="256.05899999999997" y="-10.0"/>
      <point x="289.789" y="-3.0980000000000008"/>
      <point x="316.947" y="4.372999999999999" type="curve"/>
      <point x="310.8949999999999" y="39.696999999999996" type="line"/>
      <point x="285.042" y="33.278999999999996"/>
      <point x="256.859" y="27.567999999999998"/>
      <point x="231.05399999999997" y="27.567999999999998" type="curve" smooth="yes"/>
      <point x="181.84099999999998" y="27.567999999999998"/>
      <point x="137.721" y="49.498999999999995"/>
      <point x="137.721" y="156.128" type="curve" smooth="yes"/>
      <point x="137.721" y="275.435" type="line"/>
      <point x="267.66" y="400.08799999999997" type="line"/>
      <point x="267.66" y="441.51" type="line"/>
      <point x="137.721" y="316.857" type="line"/>
      <point x="137.721" y="740.0" type="line"/>
      <point x="95.896" y="740.0" type="line"/>
      <point x="95.896" y="286.027" type="line"/>
      <point x="23.909" y="217.57799999999997" type="line"/>
      <point x="23.909" y="176.429" type="line"/>
      <point x="96.022" y="244.668" type="line"/>
      <point x="96.148" y="149.504" type="line" smooth="yes"/>
      <point x="97.21900000000001" y="19.261"/>
      <point x="153.205" y="-10.0"/>
    </contour>
  </outline>
</glyph>
<glyph name="Eng" format="2">
  <advance width="919.675"/>
  <unicode hex="014A"/>
  <outline>
    <contour>
      <point x="107.68499999999999" y="0.0" type="line"/>
      <point x="148.25" y="0.0" type="line"/>
      <point x="148.25" y="643.23" type="line"/>
      <point x="770.8849999999999" y="-2.1949999999999994" type="line"/>
      <point x="770.8849999999999" y="-11.605" type="line" smooth="yes"/>
      <point x="767.245" y="-119.88"/>
      <point x="680.135" y="-159.26999999999998"/>
      <point x="561.97" y="-159.26999999999998" type="curve" smooth="yes"/>
      <point x="510.2149999999999" y="-159.26999999999998"/>
      <point x="452.69" y="-150.81"/>
      <point x="408.36999999999995" y="-141.765" type="curve"/>
      <point x="401.675" y="-176.25" type="line"/>
      <point x="447.12" y="-186.11"/>
      <point x="507.99" y="-194.97500000000002"/>
      <point x="564.76" y="-194.97500000000002" type="curve" smooth="yes"/>
      <point x="711.6" y="-194.97500000000002"/>
      <point x="811.9899999999999" y="-139.03"/>
      <point x="811.9899999999999" y="-10.18" type="curve" smooth="yes"/>
      <point x="811.9899999999999" y="700.0" type="line"/>
      <point x="771.5149999999999" y="700.0" type="line"/>
      <point x="771.5149999999999" y="54.835" type="line"/>
      <point x="145.795" y="706.37" type="line"/>
      <point x="107.68499999999999" y="706.37" type="line"/>
    </contour>
  </outline>
</glyph>
<glyph name="eng" format="2">
  <advance width="707.5490000000001"/>
  <unicode hex="014B"/>
  <outline>
    <contour>
      <point x="612.688" y="10.6" type="curve"/>
      <point x="612.688" y="367.69199999999995" type="line" smooth="yes"/>
      <point x="612.688" y="478.612"/>
      <point x="546.978" y="541.8"/>
      <point x="419.679" y="541.8" type="curve" smooth="yes"/>
      <point x="309.837" y="541.8"/>
      <point x="231.889" y="507.824"/>
      <point x="134.355" y="460.821" type="curve"/>
      <point x="134.355" y="531.8" type="line"/>
      <point x="94.915" y="531.8" type="line"/>
      <point x="94.915" y="0.0" type="line"/>
      <point x="136.767" y="0.0" type="line"/>
      <point x="136.767" y="428.076" type="line"/>
      <point x="233.552" y="474.476"/>
      <point x="305.416" y="506.1820000000001"/>
      <point x="407.832" y="506.1820000000001" type="curve" smooth="yes"/>
      <point x="519.972" y="506.1820000000001"/>
      <point x="570.8359999999999" y="449.9"/>
      <point x="570.8359999999999" y="359.268" type="curve" smooth="yes"/>
      <point x="570.8359999999999" y="8.142000000000001" type="line" smooth="yes"/>
      <point x="570.8359999999999" y="-75.99199999999999"/>
      <point x="546.472" y="-131.382"/>
      <point x="501.35699999999997" y="-160.502" type="curve" smooth="yes"/>
      <point x="492.72200000000004" y="-165.689"/>
      <point x="483.75399999999996" y="-169.813"/>
      <point x="473.984" y="-173.027" type="curve"/>
      <point x="481.39799999999997" y="-207.323" type="line"/>
      <point x="494.043" y="-203.92299999999997"/>
      <point x="506.34299999999996" y="-198.706"/>
      <point x="517.378" y="-193.246" type="curve" smooth="yes"/>
      <point x="578.6229999999999" y="-160.85"/>
      <point x="612.688" y="-92.619"/>
    </contour>
  </outline>
</glyph>
<glyph name="OE" format="2">
  <advance width="1385.618"/>
  <unicode hex="0152"/>
  <outline>
    <contour>
      <point x="1345.83" y="0.0" type="line"/>
      <point x="1345.83" y="38.18" type="line"/>
      <point x="788.354" y="38.18" type="line"/>
      <point x="788.354" y="355.84" type="line"/>
      <point x="1295.396" y="355.84" type="line"/>
      <point x="1295.396" y="393.48" type="line"/>
      <point x="788.354" y="393.48" type="line"/>
      <point x="788.354" y="661.9100000000001" type="line"/>
      <point x="1322.494" y="661.9100000000001" type="line"/>
      <point x="1322.494" y="700.0" type="line"/>
      <point x="787.0039999999999" y="700.0" type="line"/>
      <point x="676.948" y="703.844"/>
      <point x="565.472" y="708.3439999999999"/>
      <point x="483.544" y="708.3439999999999" type="curve" smooth="yes"/>
      <point x="259.49600000000004" y="708.3439999999999"/>
      <point x="68.786" y="631.348"/>
      <point x="68.786" y="354.344" type="curve" smooth="yes"/>
      <point x="68.786" y="43.54600000000001"/>
      <point x="288.582" y="-8.926"/>
      <point x="503.954" y="-8.926" type="curve" smooth="yes"/>
      <point x="598.3939999999999" y="-8.926"/>
      <point x="683.996" y="-4.2700000000000005"/>
      <point x="788.3539999999998" y="0.0" type="curve"/>
    </contour>
    <contour>
      <point x="745.1339999999999" y="33.775999999999996" type="line"/>
      <point x="694.0640000000001" y="31.775999999999996"/>
      <point x="594.39" y="26.217999999999996"/>
      <point x="509.51" y="26.217999999999996" type="curve" smooth="yes"/>
      <point x="316.302" y="26.217999999999996"/>
      <point x="113.45599999999999" y="68.30600000000001"/>
      <point x="113.45599999999999" y="353.41" type="curve" smooth="yes"/>
      <point x="113.45599999999999" y="622.8399999999999"/>
      <point x="319.18" y="673.536"/>
      <point x="491.42599999999993" y="673.536" type="curve" smooth="yes"/>
      <point x="531.774" y="673.536"/>
      <point x="715.696" y="666.5600000000001"/>
      <point x="745.1339999999999" y="665.7979999999999" type="curve"/>
    </contour>
  </outline>
</glyph>
